<svg xmlns="http://www.w3.org/2000/svg" xmlns:xlink="http://www.w3.org/1999/xlink" width="502.93" height="440.21" viewBox="0 0 502.93 440.21">
  <defs>
    <style>
      .a, .e {
        fill: none;
      }

      .b {
        clip-path: url(#a);
      }

      .c {
        fill: #ed2f2f;
      }

      .c, .d, .e {
        stroke: #9e0d0d;
        stroke-miterlimit: 10;
      }

      .d {
        fill: #fff;
      }

      .f {
        clip-path: url(#b);
      }
    </style>
    <clipPath id="a" transform="translate(-55.6 -48.73)">
      <path class="a" d="M148.33,270.91c8-4.49,10-16.55,4.6-27-23.86-45.85-20.39-95.77,7.74-111.63l-.23.13c27.88-15.7,70.55,10.19,95.38,57.93l.23-.13,126.1,242.35c5.43,10.43,16.26,15.24,24.24,10.75l-.47.26c8-4.49,10-16.55,4.6-27L282.68,170.87C249.4,107,187.14,75.18,143.45,99.78S91.31,196,124.56,259.9c5.43,10.43,16.26,15.23,24.23,10.75"/>
    </clipPath>
    <clipPath id="b" transform="translate(-55.6 -48.73)">
      <path class="a" d="M465.82,270.91c-8-4.49-10-16.55-4.6-27,23.86-45.85,20.38-95.77-7.75-111.63l.23.13c-27.89-15.7-70.54,10.19-95.38,57.93l-.23-.13L232,432.57c-5.43,10.43-16.27,15.24-24.23,10.75l.46.26c-8-4.49-10-16.55-4.6-27L331.45,170.87C364.74,107,427,75.18,470.69,99.78S522.83,196,489.58,259.9c-5.43,10.43-16.27,15.23-24.23,10.75"/>
    </clipPath>
  </defs>
  <title>candycane</title>
  <g class="b">
    <g>
      <polygon class="c" points="90.77 0.67 114.94 12.22 24.83 216.43 0.65 204.88 90.77 0.67"/>
      <polygon class="c" points="138.06 30.33 162.24 41.88 72.13 246.09 47.95 234.54 138.06 30.33"/>
      <polygon class="c" points="197.19 44.58 221.36 56.12 131.25 260.33 107.07 248.78 197.19 44.58"/>
      <polygon class="c" points="250.74 70.08 274.91 81.63 184.8 285.83 160.62 274.29 250.74 70.08"/>
      <polygon class="c" points="292.76 112.72 316.94 124.26 226.83 328.47 202.65 316.93 292.76 112.72"/>
      <polygon class="c" points="331.37 167.28 355.55 178.82 265.43 383.03 241.26 371.49 331.37 167.28"/>
      <polygon class="c" points="376.48 210.05 400.65 221.6 310.54 425.8 286.37 414.26 376.48 210.05"/>
      <polygon class="d" points="114.4 14.89 140.73 27.46 50.62 231.67 24.28 219.1 114.4 14.89"/>
      <polygon class="d" points="165.57 35.51 196.23 50.14 106.12 254.36 75.46 239.71 165.57 35.51"/>
      <polygon class="d" points="220.81 58.79 249.83 72.65 159.72 276.86 130.7 263 220.81 58.79"/>
      <polygon class="d" points="274.37 84.3 299.93 96.5 209.82 300.71 184.25 288.5 274.37 84.3"/>
      <polygon class="d" points="317.5 124.43 344.78 137.46 254.67 341.67 227.38 328.64 317.5 124.43"/>
      <polygon class="d" points="355.35 177.54 384.66 191.54 294.55 395.75 265.24 381.75 355.35 177.54"/>
      <polygon class="d" points="399.86 223.78 424.03 235.33 333.92 439.54 309.74 427.99 399.86 223.78"/>
    </g>
  </g>
  <path class="e" d="M148.33,270.91c8-4.49,10-16.55,4.6-27-23.86-45.85-20.39-95.77,7.74-111.63l-.23.13c27.88-15.7,70.55,10.19,95.38,57.93l.23-.13,126.1,242.35c5.43,10.43,16.26,15.24,24.24,10.75l-.47.26c8-4.49,10-16.55,4.6-27L282.68,170.87C249.4,107,187.14,75.18,143.45,99.78S91.31,196,124.56,259.9c5.43,10.43,16.26,15.23,24.23,10.75" transform="translate(-55.6 -48.73)"/>
  <g class="f">
    <g>
      <polygon class="c" points="412.17 0.67 387.99 12.22 478.1 216.43 502.28 204.88 412.17 0.67"/>
      <polygon class="c" points="364.87 30.33 340.69 41.88 430.81 246.09 454.98 234.54 364.87 30.33"/>
      <polygon class="c" points="305.75 44.58 281.57 56.12 371.69 260.33 395.86 248.78 305.75 44.58"/>
      <polygon class="c" points="252.2 70.08 228.02 81.63 318.13 285.83 342.31 274.29 252.2 70.08"/>
      <polygon class="c" points="210.17 112.72 185.99 124.26 276.11 328.47 300.28 316.93 210.17 112.72"/>
      <polygon class="c" points="171.56 167.28 147.38 178.82 237.49 383.03 261.67 371.49 171.56 167.28"/>
      <polygon class="c" points="126.45 210.05 102.28 221.6 192.39 425.8 216.56 414.26 126.45 210.05"/>
      <polygon class="d" points="388.53 14.89 362.2 27.46 452.32 231.67 478.65 219.1 388.53 14.89"/>
      <polygon class="d" points="337.36 35.51 306.7 50.14 396.81 254.36 427.47 239.71 337.36 35.51"/>
      <polygon class="d" points="282.12 58.79 253.1 72.65 343.21 276.86 372.23 263 282.12 58.79"/>
      <polygon class="d" points="228.57 84.3 203 96.5 293.12 300.71 318.68 288.5 228.57 84.3"/>
      <polygon class="d" points="185.44 124.43 158.15 137.46 248.26 341.67 275.55 328.64 185.44 124.43"/>
      <polygon class="d" points="147.58 177.54 118.27 191.54 208.38 395.75 237.69 381.75 147.58 177.54"/>
      <polygon class="d" points="103.07 223.78 78.9 235.33 169.01 439.54 193.19 427.99 103.07 223.78"/>
    </g>
  </g>
  <path class="e" d="M465.82,270.91c-8-4.49-10-16.55-4.6-27,23.86-45.85,20.38-95.77-7.75-111.63l.23.13c-27.89-15.7-70.54,10.19-95.38,57.93l-.23-.13L232,432.57c-5.43,10.43-16.27,15.24-24.23,10.75l.46.26c-8-4.49-10-16.55-4.6-27L331.45,170.87C364.74,107,427,75.18,470.69,99.78S522.83,196,489.58,259.9c-5.43,10.43-16.27,15.23-24.23,10.75" transform="translate(-55.6 -48.73)"/>
</svg>
