<svg xmlns="http://www.w3.org/2000/svg" viewBox="0 0 388 359" id="el_QwEs0tm55"><style>@-webkit-keyframes el_9Z7w45XK3BN_f0-ucDJ6U_Animation{0%{-webkit-transform: rotate(0deg);transform: rotate(0deg);}10%{-webkit-transform: rotate(-5deg);transform: rotate(-5deg);}20%{-webkit-transform: rotate(0deg);transform: rotate(0deg);}30%{-webkit-transform: rotate(-5deg);transform: rotate(-5deg);}40%{-webkit-transform: rotate(0deg);transform: rotate(0deg);}50%{-webkit-transform: rotate(-5deg);transform: rotate(-5deg);}60%{-webkit-transform: rotate(0deg);transform: rotate(0deg);}70%{-webkit-transform: rotate(-5deg);transform: rotate(-5deg);}80%{-webkit-transform: rotate(0deg);transform: rotate(0deg);}90%{-webkit-transform: rotate(-5deg);transform: rotate(-5deg);}100%{-webkit-transform: rotate(0deg);transform: rotate(0deg);}}@keyframes el_9Z7w45XK3BN_f0-ucDJ6U_Animation{0%{-webkit-transform: rotate(0deg);transform: rotate(0deg);}10%{-webkit-transform: rotate(-5deg);transform: rotate(-5deg);}20%{-webkit-transform: rotate(0deg);transform: rotate(0deg);}30%{-webkit-transform: rotate(-5deg);transform: rotate(-5deg);}40%{-webkit-transform: rotate(0deg);transform: rotate(0deg);}50%{-webkit-transform: rotate(-5deg);transform: rotate(-5deg);}60%{-webkit-transform: rotate(0deg);transform: rotate(0deg);}70%{-webkit-transform: rotate(-5deg);transform: rotate(-5deg);}80%{-webkit-transform: rotate(0deg);transform: rotate(0deg);}90%{-webkit-transform: rotate(-5deg);transform: rotate(-5deg);}100%{-webkit-transform: rotate(0deg);transform: rotate(0deg);}}@-webkit-keyframes el_t6bdHhvEak_gtzoayry0_Animation{0%{-webkit-transform: rotate(0deg);transform: rotate(0deg);}10%{-webkit-transform: rotate(5deg);transform: rotate(5deg);}20%{-webkit-transform: rotate(0deg);transform: rotate(0deg);}30%{-webkit-transform: rotate(5deg);transform: rotate(5deg);}40%{-webkit-transform: rotate(0deg);transform: rotate(0deg);}50%{-webkit-transform: rotate(5deg);transform: rotate(5deg);}60%{-webkit-transform: rotate(0deg);transform: rotate(0deg);}70%{-webkit-transform: rotate(5deg);transform: rotate(5deg);}80%{-webkit-transform: rotate(0deg);transform: rotate(0deg);}90%{-webkit-transform: rotate(5deg);transform: rotate(5deg);}100%{-webkit-transform: rotate(0deg);transform: rotate(0deg);}}@keyframes el_t6bdHhvEak_gtzoayry0_Animation{0%{-webkit-transform: rotate(0deg);transform: rotate(0deg);}10%{-webkit-transform: rotate(5deg);transform: rotate(5deg);}20%{-webkit-transform: rotate(0deg);transform: rotate(0deg);}30%{-webkit-transform: rotate(5deg);transform: rotate(5deg);}40%{-webkit-transform: rotate(0deg);transform: rotate(0deg);}50%{-webkit-transform: rotate(5deg);transform: rotate(5deg);}60%{-webkit-transform: rotate(0deg);transform: rotate(0deg);}70%{-webkit-transform: rotate(5deg);transform: rotate(5deg);}80%{-webkit-transform: rotate(0deg);transform: rotate(0deg);}90%{-webkit-transform: rotate(5deg);transform: rotate(5deg);}100%{-webkit-transform: rotate(0deg);transform: rotate(0deg);}}#el_QwEs0tm55 *{-webkit-animation-duration: 3s;animation-duration: 3s;-webkit-animation-timing-function: cubic-bezier(0, 0, 1, 1);animation-timing-function: cubic-bezier(0, 0, 1, 1);}#el_HpzYgbLbRD{fill: #ed2f2f;stroke: #110c0c;stroke-miterlimit: 10;-webkit-transform: translate(-50.98px, -40.96px);transform: translate(-50.98px, -40.96px);}#el_J4BhewDywB{fill: #ed2f2f;stroke: #110c0c;stroke-miterlimit: 10;-webkit-transform: translate(-50.98px, -40.96px);transform: translate(-50.98px, -40.96px);}#el_4hZB5CntPh{fill: #ed2f2f;stroke: #110c0c;stroke-miterlimit: 10;-webkit-transform: translate(-50.98px, -40.96px);transform: translate(-50.98px, -40.96px);}#el_h9Y2_fji-V{fill: #ed2f2f;stroke: #110c0c;stroke-miterlimit: 10;-webkit-transform: translate(-50.98px, -40.96px);transform: translate(-50.98px, -40.96px);}#el_ZWBfQRvKM6{fill: #ed2f2f;stroke: #110c0c;stroke-miterlimit: 10;}#el_KoyKPnGv72{fill: #ed2f2f;stroke: #110c0c;stroke-miterlimit: 10;}#el_Khc8fRLDw5{fill: #ed2f2f;stroke: #110c0c;stroke-miterlimit: 10;}#el_A2mP9VqrKO{fill: #ed2f2f;stroke: #110c0c;stroke-miterlimit: 10;-webkit-transform: translate(-50.98px, -40.96px);transform: translate(-50.98px, -40.96px);}#el_wbsPb0Mwd6{stroke: #110c0c;stroke-miterlimit: 10;fill: #fff;-webkit-transform: translate(-50.98px, -40.96px);transform: translate(-50.98px, -40.96px);}#el_NcqvibciYI{stroke: #110c0c;stroke-miterlimit: 10;fill: #fff;-webkit-transform: translate(-50.98px, -40.96px);transform: translate(-50.98px, -40.96px);}#el_YFy1490OEf{stroke: #110c0c;stroke-miterlimit: 10;fill: #fff;-webkit-transform: translate(-50.98px, -40.96px);transform: translate(-50.98px, -40.96px);}#el_UZiIpcvn-g{stroke: #110c0c;stroke-miterlimit: 10;fill: #fff;-webkit-transform: translate(-50.98px, -40.96px);transform: translate(-50.98px, -40.96px);}#el_evBl7uUvvm{stroke: #110c0c;stroke-miterlimit: 10;fill: #fff;-webkit-transform: translate(-50.98px, -40.96px);transform: translate(-50.98px, -40.96px);}#el_PQHRgCx5mp{stroke: #110c0c;stroke-miterlimit: 10;fill: #fff;}#el_BAiMkDJ_9Nn{stroke: #110c0c;stroke-miterlimit: 10;fill: #fff;}#el_kKwxzerzU0H{stroke: #110c0c;stroke-miterlimit: 10;fill: #fff;}#el_zyxIUgx_wzF{stroke: #110c0c;stroke-miterlimit: 10;fill: #fff;-webkit-transform: translate(-50.98px, -40.96px);transform: translate(-50.98px, -40.96px);}#el_Hij-JE2yPFg{stroke: #110c0c;stroke-miterlimit: 10;fill: #fff;-webkit-transform: translate(-50.98px, -40.96px);transform: translate(-50.98px, -40.96px);}#el_-YoaFANCYoq{fill: #ed2f2f;stroke: #110c0c;stroke-miterlimit: 10;-webkit-transform: translate(-50.98px, -40.96px);transform: translate(-50.98px, -40.96px);}#el_V1nmx_o25xt{fill: #ed2f2f;stroke: #110c0c;stroke-miterlimit: 10;-webkit-transform: translate(-50.98px, -40.96px);transform: translate(-50.98px, -40.96px);}#el_gUe8-pQHtg7{fill: #ed2f2f;stroke: #110c0c;stroke-miterlimit: 10;-webkit-transform: translate(-50.98px, -40.96px);transform: translate(-50.98px, -40.96px);}#el_IR0gUO2fuRo{fill: #ed2f2f;stroke: #110c0c;stroke-miterlimit: 10;-webkit-transform: translate(-50.98px, -40.96px);transform: translate(-50.98px, -40.96px);}#el_Bm2-ezYzzZ6{fill: #ed2f2f;stroke: #110c0c;stroke-miterlimit: 10;}#el_xbnUbC4V0rj{fill: #ed2f2f;stroke: #110c0c;stroke-miterlimit: 10;}#el_UZsbZ-NHris{fill: #ed2f2f;stroke: #110c0c;stroke-miterlimit: 10;}#el_7HRGSDfZUFD{fill: #ed2f2f;stroke: #110c0c;stroke-miterlimit: 10;-webkit-transform: translate(-50.98px, -40.96px);transform: translate(-50.98px, -40.96px);}#el_qjXHo8w3mlk{stroke: #110c0c;stroke-miterlimit: 10;fill: #fff;-webkit-transform: translate(-50.98px, -40.96px);transform: translate(-50.98px, -40.96px);}#el_BdDwdXkEwoE{stroke: #110c0c;stroke-miterlimit: 10;fill: #fff;-webkit-transform: translate(-50.98px, -40.96px);transform: translate(-50.98px, -40.96px);}#el_Cqf_J_WGnom{stroke: #110c0c;stroke-miterlimit: 10;fill: #fff;-webkit-transform: translate(-50.98px, -40.96px);transform: translate(-50.98px, -40.96px);}#el_pFdkNj9CoZp{stroke: #110c0c;stroke-miterlimit: 10;fill: #fff;-webkit-transform: translate(-50.98px, -40.96px);transform: translate(-50.98px, -40.96px);}#el_tDAZcX1fMUE{stroke: #110c0c;stroke-miterlimit: 10;fill: #fff;-webkit-transform: translate(-50.98px, -40.96px);transform: translate(-50.98px, -40.96px);}#el_6jWOdxfhnt3{stroke: #110c0c;stroke-miterlimit: 10;fill: #fff;}#el_5cz2tM0WC3L{stroke: #110c0c;stroke-miterlimit: 10;fill: #fff;}#el_4oRyGVtc6Ys{stroke: #110c0c;stroke-miterlimit: 10;fill: #fff;}#el_A3TO2zhtaCS{stroke: #110c0c;stroke-miterlimit: 10;fill: #fff;-webkit-transform: translate(-50.98px, -40.96px);transform: translate(-50.98px, -40.96px);}#el_EPu61tzovC6{stroke: #110c0c;stroke-miterlimit: 10;fill: #fff;-webkit-transform: translate(-50.98px, -40.96px);transform: translate(-50.98px, -40.96px);}#el_t6bdHhvEak_gtzoayry0{-webkit-animation-name: el_t6bdHhvEak_gtzoayry0_Animation;animation-name: el_t6bdHhvEak_gtzoayry0_Animation;-webkit-transform-origin: 50% 50%;transform-origin: 50% 50%;transform-box: fill-box;-webkit-transform: rotate(0deg);transform: rotate(0deg);}#el_9Z7w45XK3BN_f0-ucDJ6U{-webkit-animation-name: el_9Z7w45XK3BN_f0-ucDJ6U_Animation;animation-name: el_9Z7w45XK3BN_f0-ucDJ6U_Animation;-webkit-animation-timing-function: cubic-bezier(0.42, 0, 0.58, 1);animation-timing-function: cubic-bezier(0.42, 0, 0.58, 1);-webkit-transform-origin: 50% 50%;transform-origin: 50% 50%;transform-box: fill-box;-webkit-transform: rotate(0deg);transform: rotate(0deg);}</style>
  <defs>
    
  </defs>
  <title>candycane</title>
  <g id="el_t6bdHhvEak_gtzoayry0" data-animator-group="true" data-animator-type="1"><g id="el_t6bdHhvEak">
    <path d="M90.66,53.83c-31.61,17.8-44.75,60.22-37,106.51L103,48.51A64,64,0,0,0,90.66,53.83Z" id="el_HpzYgbLbRD"/>
    <path d="M146.59,86.5l14.11-32a96,96,0,0,0-24.42-7.82L120.62,82.19C128.79,81.13,137.63,82.68,146.59,86.5Z" id="el_J4BhewDywB"/>
    <path d="M86.53,159.49,67,203.9q2.26,5.06,4.86,10C75,220,80,224.19,85.2,225.71l13.52-30.66A142.87,142.87,0,0,1,86.53,159.49Z" id="el_4hZB5CntPh"/>
    <path d="M193.53,128.35,209,93.21A159.42,159.42,0,0,0,189.9,73.62l-14.5,32.87A140.61,140.61,0,0,1,193.53,128.35Z" id="el_h9Y2_fji-V"/>
    <polygon points="178.31 153.22 195.14 115.06 179.42 84.86 162.59 123.03 178.31 153.22" id="el_ZWBfQRvKM6"/>
    <polygon points="228.08 178.33 212.24 147.9 195.41 186.06 211.26 216.49 228.08 178.33" id="el_KoyKPnGv72"/>
    <polygon points="244.78 280.87 261.61 242.71 246.31 213.33 229.48 251.49 244.78 280.87" id="el_Khc8fRLDw5"/>
    <path d="M329.45,386.54c.45.85.94,1.64,1.45,2.42l16.74-38L331.8,320.57,315,358.73Z" id="el_A2mP9VqrKO"/>
    <path d="M107.8,86.37a35.42,35.42,0,0,1,12.82-4.18l15.66-35.53a71,71,0,0,0-32.59,1.63L53.83,161.37A179.35,179.35,0,0,0,67,203.9l19.58-44.41C80.16,127,87.58,97.85,107.8,86.37Z" id="el_wbsPb0Mwd6"/>
    <path d="M95.82,224.81c7.79-4.6,9.71-16.51,4.36-26.86-.41-.78-.79-1.57-1.18-2.35L85.66,225.84A13.84,13.84,0,0,0,95.82,224.81Z" id="el_NcqvibciYI"/>
    <path d="M96.05,224.7a1.63,1.63,0,0,0-.23.11c-.08,0-.15.1-.23.15Z" id="el_YFy1490OEf"/>
    <path d="M175.4,106.49l14.5-32.87a129.46,129.46,0,0,0-28.77-18.94L147,86.69C156.6,90.85,166.29,97.58,175.4,106.49Z" id="el_UZiIpcvn-g"/>
    <path d="M203.28,144.22,213.57,164l16.83-38.17-.49-.94a183,183,0,0,0-20.48-31.17l-15.52,35.2a164.34,164.34,0,0,1,9.14,15.44Z" id="el_evBl7uUvvm"/>
    <polygon points="195.49 115.72 178.66 153.88 195.41 186.06 212.24 147.9 195.49 115.72" id="el_PQHRgCx5mp"/>
    <polygon points="229.48 251.49 246.31 213.33 228.42 178.98 211.6 217.14 229.48 251.49" id="el_BAiMkDJ_9Nn"/>
    <polygon points="264 317.77 280.82 279.61 261.61 242.71 244.78 280.87 264 317.77" id="el_kKwxzerzU0H"/>
    <path d="M353.43,397.41c7.82-4.59,9.74-16.52,4.39-26.87l-10.09-19.38L331,389.11C336.69,397.61,346.18,401.28,353.43,397.41Z" id="el_zyxIUgx_wzF"/>
    <path d="M353.7,397.28l-.27.13-.2.13Z" id="el_Hij-JE2yPFg"/>
  </g></g>
  <g id="el_9Z7w45XK3BN_f0-ucDJ6U" data-animator-group="true" data-animator-type="1"><g id="el_9Z7w45XK3BN">
    <path d="M437.26,154.82C444,108.37,430,66.24,398,49.11a63.28,63.28,0,0,0-12.42-5.06Z" id="el_-YoaFANCYoq"/>
    <path d="M328,51.25,342.77,83c8.87-4,17.68-5.74,25.87-4.87L352.23,42.91A96,96,0,0,0,328,51.25Z" id="el_V1nmx_o25xt"/>
    <path d="M392.94,190.48l14.16,30.36c5.17-1.64,10.1-5.89,13.14-12q2.49-5.06,4.64-10.16l-20.51-44A142.63,142.63,0,0,1,392.94,190.48Z" id="el_gUe8-pQHtg7"/>
    <path d="M280.49,91l16.24,34.8a141.85,141.85,0,0,1,17.66-22.24L299.2,71A160.13,160.13,0,0,0,280.49,91Z" id="el_IR0gUO2fuRo"/>
    <polygon points="193.75 113.62 211.39 151.43 226.47 120.9 208.83 83.09 193.75 113.62" id="el_Bm2-ezYzzZ6"/>
    <polygon points="162.16 177.57 179.8 215.37 194.99 184.62 177.35 146.81 162.16 177.57" id="el_xbnUbC4V0rj"/>
    <polygon points="130.01 242.66 147.65 280.46 162.32 250.76 144.68 212.96 130.01 242.66" id="el_UZsbZ-NHris"/>
    <path d="M147.38,351.68l17.55,37.6c.49-.79,1-1.6,1.4-2.46l13.87-28.09-17.63-37.8Z" id="el_7HRGSDfZUFD"/>
    <path d="M384.84,43.84a71.06,71.06,0,0,0-32.61-.93l16.41,35.18A35.44,35.44,0,0,1,381.55,82c20.46,11,28.5,40,22.82,72.67l20.51,44a179,179,0,0,0,12.22-42.78Z" id="el_qjXHo8w3mlk"/>
    <path d="M396.71,220.3l-.2-.13-.27-.12Z" id="el_BdDwdXkEwoE"/>
    <path d="M406.63,221l-14-29.93c-.37.79-.73,1.58-1.12,2.36-5.13,10.47-3,22.36,5,26.77A13.68,13.68,0,0,0,406.63,221Z" id="el_Cqf_J_WGnom"/>
    <path d="M299.2,71l15.19,32.56c8.91-9.1,18.46-16,27.95-20.4l-14.79-31.7A129.5,129.5,0,0,0,299.2,71Z" id="el_pFdkNj9CoZp"/>
    <path d="M260.28,123.09l-.47,1,17.64,37.81,9.87-20,.23.13a163.59,163.59,0,0,1,8.81-15.62L280.1,91.5A182.74,182.74,0,0,0,260.28,123.09Z" id="el_tDAZcX1fMUE"/>
    <polygon points="193.42 114.28 177.35 146.81 194.99 184.62 211.06 152.09 193.42 114.28" id="el_6jWOdxfhnt3"/>
    <polygon points="161.84 178.23 144.68 212.96 162.32 250.76 179.47 216.04 161.84 178.23" id="el_5cz2tM0WC3L"/>
    <polygon points="111.59 279.97 129.22 317.77 147.65 280.46 130.01 242.66 111.59 279.97" id="el_4oRyGVtc6Ys"/>
    <path d="M164.83,389.43,147.3,351.85l-9.67,19.57c-5.13,10.46-3,22.33,4.93,26.76C149.88,401.92,159.31,398.06,164.83,389.43Z" id="el_A3TO2zhtaCS"/>
    <path d="M142.79,398.32l-.23-.14-.23-.11Z" id="el_EPu61tzovC6"/>
  </g></g>
<script>(function(){var a=document.querySelector('#el_QwEs0tm55'),b=a.querySelectorAll('style'),c=function(d){b.forEach(function(f){var g=f.textContent;g&amp;&amp;(f.textContent=g.replace(/transform-box:[^;\r\n]*/gi,'transform-box: '+d))})};c('initial'),window.requestAnimationFrame(function(){return c('fill-box')})})();</script></svg>