<svg xmlns="http://www.w3.org/2000/svg" width="388.44" height="359.15" viewBox="0 0 388.44 359.15">
  <defs>
    <style>
      .a {
        fill: #ed2f2f;
      }

      .a, .b {
        stroke: #110c0c;
        stroke-miterlimit: 10;
      }

      .b {
        fill: #fff;
      }
    </style>
  </defs>
  <title>candycane</title>
  <g>
    <path class="a" d="M90.66,53.83c-31.61,17.8-44.75,60.22-37,106.51L103,48.51A64,64,0,0,0,90.66,53.83Z" transform="translate(-50.98 -40.96)"/>
    <path class="a" d="M146.59,86.5l14.11-32a96,96,0,0,0-24.42-7.82L120.62,82.19C128.79,81.13,137.63,82.68,146.59,86.5Z" transform="translate(-50.98 -40.96)"/>
    <path class="a" d="M86.53,159.49,67,203.9q2.26,5.06,4.86,10C75,220,80,224.19,85.2,225.71l13.52-30.66A142.87,142.87,0,0,1,86.53,159.49Z" transform="translate(-50.98 -40.96)"/>
    <path class="a" d="M193.53,128.35,209,93.21A159.42,159.42,0,0,0,189.9,73.62l-14.5,32.87A140.61,140.61,0,0,1,193.53,128.35Z" transform="translate(-50.98 -40.96)"/>
    <polygon class="a" points="178.31 153.22 195.14 115.06 179.42 84.86 162.59 123.03 178.31 153.22"/>
    <polygon class="a" points="228.08 178.33 212.24 147.9 195.41 186.06 211.26 216.49 228.08 178.33"/>
    <polygon class="a" points="244.78 280.87 261.61 242.71 246.31 213.33 229.48 251.49 244.78 280.87"/>
    <path class="a" d="M329.45,386.54c.45.85.94,1.64,1.45,2.42l16.74-38L331.8,320.57,315,358.73Z" transform="translate(-50.98 -40.96)"/>
    <path class="b" d="M107.8,86.37a35.42,35.42,0,0,1,12.82-4.18l15.66-35.53a71,71,0,0,0-32.59,1.63L53.83,161.37A179.35,179.35,0,0,0,67,203.9l19.58-44.41C80.16,127,87.58,97.85,107.8,86.37Z" transform="translate(-50.98 -40.96)"/>
    <path class="b" d="M95.82,224.81c7.79-4.6,9.71-16.51,4.36-26.86-.41-.78-.79-1.57-1.18-2.35L85.66,225.84A13.84,13.84,0,0,0,95.82,224.81Z" transform="translate(-50.98 -40.96)"/>
    <path class="b" d="M96.05,224.7a1.63,1.63,0,0,0-.23.11c-.08,0-.15.1-.23.15Z" transform="translate(-50.98 -40.96)"/>
    <path class="b" d="M175.4,106.49l14.5-32.87a129.46,129.46,0,0,0-28.77-18.94L147,86.69C156.6,90.85,166.29,97.58,175.4,106.49Z" transform="translate(-50.98 -40.96)"/>
    <path class="b" d="M203.28,144.22,213.57,164l16.83-38.17-.49-.94a183,183,0,0,0-20.48-31.17l-15.52,35.2a164.34,164.34,0,0,1,9.14,15.44Z" transform="translate(-50.98 -40.96)"/>
    <polygon class="b" points="195.49 115.72 178.66 153.88 195.41 186.06 212.24 147.9 195.49 115.72"/>
    <polygon class="b" points="229.48 251.49 246.31 213.33 228.42 178.98 211.6 217.14 229.48 251.49"/>
    <polygon class="b" points="264 317.77 280.82 279.61 261.61 242.71 244.78 280.87 264 317.77"/>
    <path class="b" d="M353.43,397.41c7.82-4.59,9.74-16.52,4.39-26.87l-10.09-19.38L331,389.11C336.69,397.61,346.18,401.28,353.43,397.41Z" transform="translate(-50.98 -40.96)"/>
    <path class="b" d="M353.7,397.28l-.27.13-.2.13Z" transform="translate(-50.98 -40.96)"/>
  </g>
  <g>
    <path class="a" d="M437.26,154.82C444,108.37,430,66.24,398,49.11a63.28,63.28,0,0,0-12.42-5.06Z" transform="translate(-50.98 -40.96)"/>
    <path class="a" d="M328,51.25,342.77,83c8.87-4,17.68-5.74,25.87-4.87L352.23,42.91A96,96,0,0,0,328,51.25Z" transform="translate(-50.98 -40.96)"/>
    <path class="a" d="M392.94,190.48l14.16,30.36c5.17-1.64,10.1-5.89,13.14-12q2.49-5.06,4.64-10.16l-20.51-44A142.63,142.63,0,0,1,392.94,190.48Z" transform="translate(-50.98 -40.96)"/>
    <path class="a" d="M280.49,91l16.24,34.8a141.85,141.85,0,0,1,17.66-22.24L299.2,71A160.13,160.13,0,0,0,280.49,91Z" transform="translate(-50.98 -40.96)"/>
    <polygon class="a" points="193.75 113.62 211.39 151.43 226.47 120.9 208.83 83.09 193.75 113.62"/>
    <polygon class="a" points="162.16 177.57 179.8 215.37 194.99 184.62 177.35 146.81 162.16 177.57"/>
    <polygon class="a" points="130.01 242.66 147.65 280.46 162.32 250.76 144.68 212.96 130.01 242.66"/>
    <path class="a" d="M147.38,351.68l17.55,37.6c.49-.79,1-1.6,1.4-2.46l13.87-28.09-17.63-37.8Z" transform="translate(-50.98 -40.96)"/>
    <path class="b" d="M384.84,43.84a71.06,71.06,0,0,0-32.61-.93l16.41,35.18A35.44,35.44,0,0,1,381.55,82c20.46,11,28.5,40,22.82,72.67l20.51,44a179,179,0,0,0,12.22-42.78Z" transform="translate(-50.98 -40.96)"/>
    <path class="b" d="M396.71,220.3l-.2-.13-.27-.12Z" transform="translate(-50.98 -40.96)"/>
    <path class="b" d="M406.63,221l-14-29.93c-.37.79-.73,1.58-1.12,2.36-5.13,10.47-3,22.36,5,26.77A13.68,13.68,0,0,0,406.63,221Z" transform="translate(-50.98 -40.96)"/>
    <path class="b" d="M299.2,71l15.19,32.56c8.91-9.1,18.46-16,27.95-20.4l-14.79-31.7A129.5,129.5,0,0,0,299.2,71Z" transform="translate(-50.98 -40.96)"/>
    <path class="b" d="M260.28,123.09l-.47,1,17.64,37.81,9.87-20,.23.13a163.59,163.59,0,0,1,8.81-15.62L280.1,91.5A182.74,182.74,0,0,0,260.28,123.09Z" transform="translate(-50.98 -40.96)"/>
    <polygon class="b" points="193.42 114.28 177.35 146.81 194.99 184.62 211.06 152.09 193.42 114.28"/>
    <polygon class="b" points="161.84 178.23 144.68 212.96 162.32 250.76 179.47 216.04 161.84 178.23"/>
    <polygon class="b" points="111.59 279.97 129.22 317.77 147.65 280.46 130.01 242.66 111.59 279.97"/>
    <path class="b" d="M164.83,389.43,147.3,351.85l-9.67,19.57c-5.13,10.46-3,22.33,4.93,26.76C149.88,401.92,159.31,398.06,164.83,389.43Z" transform="translate(-50.98 -40.96)"/>
    <path class="b" d="M142.79,398.32l-.23-.14-.23-.11Z" transform="translate(-50.98 -40.96)"/>
  </g>
</svg>
