<svg xmlns="http://www.w3.org/2000/svg" xmlns:xlink="http://www.w3.org/1999/xlink" viewBox="0 0 1084.23 948.78"><defs><style>.a{fill:none;}.a,.c,.d{stroke:#9e0d0d;stroke-miterlimit:10;}.b{clip-path:url(#a);}.c{fill:#ed2f2f;}.d{fill:#fff;}.e{clip-path:url(#b);}</style><clipPath id="a" transform="translate(-226.02 -53.3)"><path class="a" d="M425.43,532.16c17.2-9.68,21.64-35.73,9.93-58.25-51.51-99-44-206.77,16.72-241l-.5.28c60.2-33.9,152.3,22,205.91,125.07l.5-.28L930.22,881.17c11.72,22.51,35.11,32.89,52.32,23.2l-1,.57c17.2-9.69,21.64-35.74,9.93-58.25l-276-530.49C643.64,178.25,509.23,109.61,414.9,162.72S302.34,370.45,374.12,508.4c11.72,22.51,35.11,32.88,52.31,23.2"/></clipPath><clipPath id="b" transform="translate(-226.02 -53.3)"><path class="a" d="M1110.84,532.16c-17.2-9.68-21.64-35.73-9.93-58.25,51.51-99,44-206.77-16.73-241l.5.28c-60.2-33.9-152.29,22-205.9,125.07l-.5-.28L606,881.17c-11.71,22.51-35.11,32.89-52.31,23.2l1,.57c-17.2-9.69-21.64-35.74-9.93-58.25l276-530.49C892.63,178.25,1027,109.61,1121.36,162.72s112.57,207.73,40.78,345.68c-11.71,22.51-35.11,32.88-52.31,23.2"/></clipPath></defs><title>candycane</title><g class="b"><polygon class="c" points="195.19 0.67 247.38 25.6 52.84 466.45 0.65 441.53 195.19 0.67"/><polygon class="c" points="297.3 64.7 349.49 89.62 154.95 530.48 102.76 505.55 297.3 64.7"/><polygon class="c" points="424.93 95.45 477.12 120.37 282.58 561.23 230.38 536.3 424.93 95.45"/><polygon class="c" points="540.54 150.51 592.73 175.44 398.19 616.29 346 591.37 540.54 150.51"/><polygon class="c" points="631.27 242.55 683.46 267.48 488.92 708.33 436.73 683.41 631.27 242.55"/><polygon class="c" points="714.62 360.34 766.81 385.26 572.27 826.12 520.08 801.2 714.62 360.34"/><polygon class="c" points="812 452.69 864.19 477.61 669.65 918.46 617.46 893.54 812 452.69"/><polygon class="d" points="246.21 31.36 303.05 58.5 108.51 499.36 51.66 472.21 246.21 31.36"/><polygon class="d" points="356.69 75.87 422.87 107.47 228.33 548.33 162.15 516.72 356.69 75.87"/><polygon class="d" points="475.94 126.13 538.59 156.05 344.05 596.91 281.4 566.99 475.94 126.13"/><polygon class="d" points="591.55 181.2 646.74 207.55 452.2 648.41 397.01 622.05 591.55 181.2"/><polygon class="d" points="684.66 267.84 743.57 295.98 549.03 736.83 490.12 708.7 684.66 267.84"/><polygon class="d" points="766.39 382.5 829.66 412.72 635.12 853.57 571.85 823.36 766.39 382.5"/><polygon class="d" points="862.47 482.33 914.66 507.25 720.12 948.11 667.92 923.18 862.47 482.33"/></g><path class="a" d="M425.43,532.16c17.2-9.68,21.64-35.73,9.93-58.25-51.51-99-44-206.77,16.72-241l-.5.28c60.2-33.9,152.3,22,205.91,125.07l.5-.28L930.22,881.17c11.72,22.51,35.11,32.89,52.32,23.2l-1,.57c17.2-9.69,21.64-35.74,9.93-58.25l-276-530.49C643.64,178.25,509.23,109.61,414.9,162.72S302.34,370.45,374.12,508.4c11.72,22.51,35.11,32.88,52.31,23.2" transform="translate(-226.02 -53.3)"/><g class="e"><polygon class="c" points="889.04 0.67 836.85 25.6 1031.38 466.45 1083.58 441.53 889.04 0.67"/><polygon class="c" points="786.93 64.7 734.74 89.62 929.28 530.48 981.47 505.55 786.93 64.7"/><polygon class="c" points="659.3 95.45 607.11 120.37 801.65 561.23 853.84 536.3 659.3 95.45"/><polygon class="c" points="543.69 150.51 491.5 175.44 686.04 616.29 738.23 591.37 543.69 150.51"/><polygon class="c" points="452.96 242.55 400.77 267.48 595.31 708.33 647.5 683.41 452.96 242.55"/><polygon class="c" points="369.61 360.34 317.42 385.26 511.95 826.12 564.15 801.2 369.61 360.34"/><polygon class="c" points="272.23 452.69 220.04 477.61 414.58 918.46 466.77 893.54 272.23 452.69"/><polygon class="d" points="838.02 31.36 781.18 58.5 975.72 499.36 1032.57 472.21 838.02 31.36"/><polygon class="d" points="727.54 75.87 661.36 107.47 855.9 548.33 922.08 516.72 727.54 75.87"/><polygon class="d" points="608.29 126.13 545.64 156.05 740.18 596.91 802.83 566.99 608.29 126.13"/><polygon class="d" points="492.68 181.2 437.49 207.55 632.03 648.41 687.22 622.05 492.68 181.2"/><polygon class="d" points="399.57 267.84 340.66 295.98 535.2 736.83 594.11 708.7 399.57 267.84"/><polygon class="d" points="317.84 382.5 254.57 412.72 449.11 853.57 512.38 823.36 317.84 382.5"/><polygon class="d" points="221.76 482.33 169.57 507.25 364.11 948.11 416.3 923.18 221.76 482.33"/></g><path class="a" d="M1110.84,532.16c-17.2-9.68-21.64-35.73-9.93-58.25,51.51-99,44-206.77-16.73-241l.5.28c-60.2-33.9-152.29,22-205.9,125.07l-.5-.28L606,881.17c-11.71,22.51-35.11,32.89-52.31,23.2l1,.57c-17.2-9.69-21.64-35.74-9.93-58.25l276-530.49C892.63,178.25,1027,109.61,1121.36,162.72s112.57,207.73,40.78,345.68c-11.71,22.51-35.11,32.88-52.31,23.2" transform="translate(-226.02 -53.3)"/></svg>