<svg xmlns="http://www.w3.org/2000/svg" xmlns:xlink="http://www.w3.org/1999/xlink" viewBox="0 0 600 488" id="el_riOd45zzV"><style>@-webkit-keyframes el_BKftNgbppXE_3EAHO3UDw_Animation{0%{-webkit-transform: rotate(0deg);transform: rotate(0deg);}10%{-webkit-transform: rotate(-5deg);transform: rotate(-5deg);}20%{-webkit-transform: rotate(0deg);transform: rotate(0deg);}30%{-webkit-transform: rotate(-5deg);transform: rotate(-5deg);}40%{-webkit-transform: rotate(0deg);transform: rotate(0deg);}50%{-webkit-transform: rotate(-5deg);transform: rotate(-5deg);}60%{-webkit-transform: rotate(0deg);transform: rotate(0deg);}70%{-webkit-transform: rotate(-5deg);transform: rotate(-5deg);}80%{-webkit-transform: rotate(0deg);transform: rotate(0deg);}90%{-webkit-transform: rotate(-5deg);transform: rotate(-5deg);}100%{-webkit-transform: rotate(0deg);transform: rotate(0deg);}}@keyframes el_BKftNgbppXE_3EAHO3UDw_Animation{0%{-webkit-transform: rotate(0deg);transform: rotate(0deg);}10%{-webkit-transform: rotate(-5deg);transform: rotate(-5deg);}20%{-webkit-transform: rotate(0deg);transform: rotate(0deg);}30%{-webkit-transform: rotate(-5deg);transform: rotate(-5deg);}40%{-webkit-transform: rotate(0deg);transform: rotate(0deg);}50%{-webkit-transform: rotate(-5deg);transform: rotate(-5deg);}60%{-webkit-transform: rotate(0deg);transform: rotate(0deg);}70%{-webkit-transform: rotate(-5deg);transform: rotate(-5deg);}80%{-webkit-transform: rotate(0deg);transform: rotate(0deg);}90%{-webkit-transform: rotate(-5deg);transform: rotate(-5deg);}100%{-webkit-transform: rotate(0deg);transform: rotate(0deg);}}@-webkit-keyframes el_CbxdB8wdObs_LnMPCJX6Y_Animation{0%{-webkit-transform: rotate(0deg);transform: rotate(0deg);}10%{-webkit-transform: rotate(5deg);transform: rotate(5deg);}20%{-webkit-transform: rotate(0deg);transform: rotate(0deg);}30%{-webkit-transform: rotate(5deg);transform: rotate(5deg);}40%{-webkit-transform: rotate(0deg);transform: rotate(0deg);}50%{-webkit-transform: rotate(5deg);transform: rotate(5deg);}60%{-webkit-transform: rotate(0deg);transform: rotate(0deg);}70%{-webkit-transform: rotate(5deg);transform: rotate(5deg);}80%{-webkit-transform: rotate(0deg);transform: rotate(0deg);}90%{-webkit-transform: rotate(5deg);transform: rotate(5deg);}100%{-webkit-transform: rotate(0deg);transform: rotate(0deg);}}@keyframes el_CbxdB8wdObs_LnMPCJX6Y_Animation{0%{-webkit-transform: rotate(0deg);transform: rotate(0deg);}10%{-webkit-transform: rotate(5deg);transform: rotate(5deg);}20%{-webkit-transform: rotate(0deg);transform: rotate(0deg);}30%{-webkit-transform: rotate(5deg);transform: rotate(5deg);}40%{-webkit-transform: rotate(0deg);transform: rotate(0deg);}50%{-webkit-transform: rotate(5deg);transform: rotate(5deg);}60%{-webkit-transform: rotate(0deg);transform: rotate(0deg);}70%{-webkit-transform: rotate(5deg);transform: rotate(5deg);}80%{-webkit-transform: rotate(0deg);transform: rotate(0deg);}90%{-webkit-transform: rotate(5deg);transform: rotate(5deg);}100%{-webkit-transform: rotate(0deg);transform: rotate(0deg);}}@-webkit-keyframes el_ZbNhw2Gcyz2_ESNVJZtCg_Animation{0%{-webkit-transform: rotate(0deg);transform: rotate(0deg);}10%{-webkit-transform: rotate(-5deg);transform: rotate(-5deg);}20%{-webkit-transform: rotate(0deg);transform: rotate(0deg);}30%{-webkit-transform: rotate(-5deg);transform: rotate(-5deg);}40%{-webkit-transform: rotate(0deg);transform: rotate(0deg);}50%{-webkit-transform: rotate(-5deg);transform: rotate(-5deg);}60%{-webkit-transform: rotate(0deg);transform: rotate(0deg);}70%{-webkit-transform: rotate(-5deg);transform: rotate(-5deg);}80%{-webkit-transform: rotate(0deg);transform: rotate(0deg);}90%{-webkit-transform: rotate(-5deg);transform: rotate(-5deg);}100%{-webkit-transform: rotate(0deg);transform: rotate(0deg);}}@keyframes el_ZbNhw2Gcyz2_ESNVJZtCg_Animation{0%{-webkit-transform: rotate(0deg);transform: rotate(0deg);}10%{-webkit-transform: rotate(-5deg);transform: rotate(-5deg);}20%{-webkit-transform: rotate(0deg);transform: rotate(0deg);}30%{-webkit-transform: rotate(-5deg);transform: rotate(-5deg);}40%{-webkit-transform: rotate(0deg);transform: rotate(0deg);}50%{-webkit-transform: rotate(-5deg);transform: rotate(-5deg);}60%{-webkit-transform: rotate(0deg);transform: rotate(0deg);}70%{-webkit-transform: rotate(-5deg);transform: rotate(-5deg);}80%{-webkit-transform: rotate(0deg);transform: rotate(0deg);}90%{-webkit-transform: rotate(-5deg);transform: rotate(-5deg);}100%{-webkit-transform: rotate(0deg);transform: rotate(0deg);}}@-webkit-keyframes el_JyVEvo-KUK_HaoUm91bd_Animation{0%{-webkit-transform: rotate(0deg);transform: rotate(0deg);}10%{-webkit-transform: rotate(5deg);transform: rotate(5deg);}20%{-webkit-transform: rotate(0deg);transform: rotate(0deg);}30%{-webkit-transform: rotate(5deg);transform: rotate(5deg);}40%{-webkit-transform: rotate(0deg);transform: rotate(0deg);}50%{-webkit-transform: rotate(5deg);transform: rotate(5deg);}60%{-webkit-transform: rotate(0deg);transform: rotate(0deg);}70%{-webkit-transform: rotate(5deg);transform: rotate(5deg);}80%{-webkit-transform: rotate(0deg);transform: rotate(0deg);}90%{-webkit-transform: rotate(5deg);transform: rotate(5deg);}100%{-webkit-transform: rotate(0deg);transform: rotate(0deg);}}@keyframes el_JyVEvo-KUK_HaoUm91bd_Animation{0%{-webkit-transform: rotate(0deg);transform: rotate(0deg);}10%{-webkit-transform: rotate(5deg);transform: rotate(5deg);}20%{-webkit-transform: rotate(0deg);transform: rotate(0deg);}30%{-webkit-transform: rotate(5deg);transform: rotate(5deg);}40%{-webkit-transform: rotate(0deg);transform: rotate(0deg);}50%{-webkit-transform: rotate(5deg);transform: rotate(5deg);}60%{-webkit-transform: rotate(0deg);transform: rotate(0deg);}70%{-webkit-transform: rotate(5deg);transform: rotate(5deg);}80%{-webkit-transform: rotate(0deg);transform: rotate(0deg);}90%{-webkit-transform: rotate(5deg);transform: rotate(5deg);}100%{-webkit-transform: rotate(0deg);transform: rotate(0deg);}}#el_riOd45zzV *{-webkit-animation-duration: 3s;animation-duration: 3s;-webkit-animation-iteration-count: infinite;animation-iteration-count: infinite;-webkit-animation-timing-function: cubic-bezier(0, 0, 1, 1);animation-timing-function: cubic-bezier(0, 0, 1, 1);}#el_z7ySvCxC5X{fill: #edcdae;}#el_U9d6XcHgVn{-webkit-clip-path: url(#a);clip-path: url(#a);}#el_9tbGaIG0WJ{fill: #31a34c;}#el_vXN7cWZMFs{fill: #e30000;}#el_CCmL9EzFPh{fill: #31a34c;}#el_88aZ9n5iSx{fill: #e30000;}#el_Ik0k-tDa0G{fill: #31a34c;}#el_2lYSxcRPhg{fill: #e30000;}#el_ats7snaYG-{fill: #31a34c;}#el_4fJjtEBD-O{fill: #e30000;}#el_Drf6QiEbwL{fill: #31a34c;}#el_Dge12f-8N8{fill: #e30000;}#el_n6CZbdEx2b{fill: #28843c;-webkit-transform: translate(-105.1px, -21.93px);transform: translate(-105.1px, -21.93px);}#el_JyVEvo-KUK{fill: #edcdae;-webkit-transform: translate(-105.1px, -21.93px);transform: translate(-105.1px, -21.93px);}#el_ZbNhw2Gcyz2{fill: #edcdae;-webkit-transform: translate(-105.1px, -21.93px);transform: translate(-105.1px, -21.93px);}#el_CbxdB8wdObs{fill: #dbbda5;-webkit-transform: translate(-105.1px, -21.93px);transform: translate(-105.1px, -21.93px);}#el_BKftNgbppXE{fill: #dbbda5;-webkit-transform: translate(-105.1px, -21.93px);transform: translate(-105.1px, -21.93px);}#el_jTCDi6OXmZp{fill: #ffd92d;}#el_JyVEvo-KUK_HaoUm91bd{-webkit-animation-name: el_JyVEvo-KUK_HaoUm91bd_Animation;animation-name: el_JyVEvo-KUK_HaoUm91bd_Animation;-webkit-transform-origin: 50% 50%;transform-origin: 50% 50%;transform-box: fill-box;-webkit-transform: rotate(0deg);transform: rotate(0deg);}#el_ZbNhw2Gcyz2_ESNVJZtCg{-webkit-animation-name: el_ZbNhw2Gcyz2_ESNVJZtCg_Animation;animation-name: el_ZbNhw2Gcyz2_ESNVJZtCg_Animation;-webkit-transform-origin: 50% 50%;transform-origin: 50% 50%;transform-box: fill-box;-webkit-transform: rotate(0deg);transform: rotate(0deg);}#el_CbxdB8wdObs_LnMPCJX6Y{-webkit-animation-name: el_CbxdB8wdObs_LnMPCJX6Y_Animation;animation-name: el_CbxdB8wdObs_LnMPCJX6Y_Animation;-webkit-transform-origin: 50% 50%;transform-origin: 50% 50%;transform-box: fill-box;-webkit-transform: rotate(0deg);transform: rotate(0deg);}#el_BKftNgbppXE_3EAHO3UDw{-webkit-animation-name: el_BKftNgbppXE_3EAHO3UDw_Animation;animation-name: el_BKftNgbppXE_3EAHO3UDw_Animation;-webkit-transform-origin: 50% 50%;transform-origin: 50% 50%;transform-box: fill-box;-webkit-transform: rotate(0deg);transform: rotate(0deg);}</style>
  <defs>
    
    <clipPath id="a" transform="translate(-105.1 -21.93)">
      <path class="a" d="M522.28,259.94l-332.2-18.45c.6-13.58,3.45-39.72,18.49-66.19,15.18-26.73,34.86-39.86,49.37-49.28,28.11-18.28,53.2-22.86,76.56-27.13,32.59-6,57.9-4.49,79.14-3.13,32,2,55,7.41,80.15,13.25,35.67,8.3,53.51,12.44,72.25,23.22,12,6.87,34.22,20,53.35,47.28,24.88,35.43,29.27,73.21,31.25,90,1.48,12.72,1,32.06-.16,70.82-.81,28.71-1.91,37.26-3.75,37.47-4.44.51-1.69-49.76-30.19-91.22-6.5-9.45-28.23-41.08-60.18-40.23C541,246.79,529,254.54,522.28,259.94Z"/>
    </clipPath>
  </defs>
  <title>elf</title>
  <circle cx="264.96" cy="297.64" r="190.57" id="el_z7ySvCxC5X"/>
  <g id="el_U9d6XcHgVn">
    <g id="el_4r0dsXOBiW">
      <polygon points="545.91 355.94 90.31 168.75 98.43 144.88 554.04 332.06 545.91 355.94" id="el_9tbGaIG0WJ"/>
      <polygon points="554.04 332.06 98.43 144.88 106.56 120.99 562.16 308.18 554.04 332.06" id="el_vXN7cWZMFs"/>
      <polygon points="562.16 308.18 106.56 120.99 114.68 97.11 570.28 284.3 562.16 308.18" id="el_CCmL9EzFPh"/>
      <polygon points="570.28 284.3 114.68 97.11 122.8 73.23 578.4 260.42 570.28 284.3" id="el_88aZ9n5iSx"/>
      <polygon points="578.4 260.42 122.8 73.23 130.93 49.35 586.53 236.54 578.4 260.42" id="el_Ik0k-tDa0G"/>
      <polygon points="586.53 236.54 130.93 49.35 139.05 25.47 594.65 212.66 586.53 236.54" id="el_2lYSxcRPhg"/>
      <polygon points="594.65 212.66 139.05 25.47 147.17 1.59 602.77 188.78 594.65 212.66" id="el_ats7snaYG-"/>
      <polygon points="602.77 188.78 147.81 0 614.33 156.31 602.77 188.78" id="el_4fJjtEBD-O"/>
      <polygon points="74.06 216.52 82.19 192.63 537.79 379.82 74.06 216.52" id="el_Drf6QiEbwL"/>
      <polygon points="537.79 379.82 82.19 192.63 90.31 168.75 545.91 355.94 537.79 379.82" id="el_Dge12f-8N8"/>
    </g>
  </g>
  <path d="M567.64,181.11c-22.8,70.34-15.31,71.6-1,100.31a.73.73,0,0,1-.75.7h0c-56.17,30.24-419.43,7.77-392.37-4s.48-103.32.48-103.32l47.58,68.31a.77.77,0,0,0,1.07.16.81.81,0,0,0,.16-.16l48.78-67a.77.77,0,0,1,1.23,0l47.39,68a.77.77,0,0,0,1.07.16.81.81,0,0,0,.16-.16l48.8-67a.76.76,0,0,1,.62-.3.75.75,0,0,1,.61.32l47.4,68a.75.75,0,0,0,1.06.16.61.61,0,0,0,.16-.16l48.81-67a.77.77,0,0,1,1.07-.16,1.21,1.21,0,0,1,.16.16l47.37,68a.77.77,0,0,0,1.07.16,1.21,1.21,0,0,0,.16-.16l47.63-65.43a.75.75,0,0,1,1-.09A.77.77,0,0,1,567.64,181.11Z" id="el_n6CZbdEx2b"/>
  <g id="el_JyVEvo-KUK_HaoUm91bd" data-animator-group="true" data-animator-type="1"><path d="M208.8,399.31c15.87-15.37-8.44-65.77-25.77-91.71-16.61-24.89-33.72-37.63-45.13-45.94-14.39-10.5-30.15-18.91-32.54-16.11-2.52,3,13.8,13.88,18.9,37.07,2.73,12.37,2.14,27.7,2.1,28.65-.33,7.7-1.11,8.62-1.2,15.86a88.68,88.68,0,0,0,3.39,27.62,73.1,73.1,0,0,0,14.12,27.05,70,70,0,0,0,20.05,16.47c5.07,2.77,11,6,19.34,6.92C183.27,405.31,200.81,407,208.8,399.31Z" id="el_JyVEvo-KUK"/></g>
  <g id="el_ZbNhw2Gcyz2_ESNVJZtCg" data-animator-group="true" data-animator-type="1"><path d="M518.57,416.37C502.69,401,527,350.6,544.33,324.65,561,299.77,578.06,287,589.46,278.72c14.4-10.5,30.15-18.91,32.54-16.1s-13.8,13.87-18.9,37.06c-2.73,12.37-2.14,27.7-2.1,28.66.33,7.7,1.11,8.61,1.2,15.85a88.76,88.76,0,0,1-3.4,27.62,72.88,72.88,0,0,1-14.11,27.05,69.89,69.89,0,0,1-20.06,16.46c-5.07,2.77-11,6-19.35,6.92C544.09,422.37,526.55,424.11,518.57,416.37Z" id="el_ZbNhw2Gcyz2"/></g>
  <g id="el_CbxdB8wdObs_LnMPCJX6Y" data-animator-group="true" data-animator-type="1"><path d="M135.9,280.29c2.66-1.52,11.69,8.3,17,16.38,2.91,4.44,5,8.85,9.07,17.7a72.08,72.08,0,0,1,3.53,8.82c1.16,3.64,1.49,5.78,2.39,9.76,1.35,6,1.81,6.57,3.5,13.19,2.87,11.22,4.3,16.84,3.06,19.9-2.17,5.43-8.81,10.11-14.32,9.13-6.78-1.21-9.87-10.56-13.79-22.43-3.57-10.79-4.63-20-5.54-28.37-1.34-12.15-.27-12.57-1.77-22.94C136.93,287.33,134,281.38,135.9,280.29Z" id="el_CbxdB8wdObs"/></g>
  <g id="el_BKftNgbppXE_3EAHO3UDw" data-animator-group="true" data-animator-type="1"><path d="M594.88,295.25c-2.66-1.56-11.8,8.13-17.19,16.16-3,4.41-5.07,8.8-9.28,17.57a70.61,70.61,0,0,0-3.64,8.78,98.53,98.53,0,0,0-2.51,9.73c-1.43,6-1.91,6.54-3.66,13.15-3,11.18-4.5,16.78-3.32,19.85,2.11,5.46,8.69,10.23,14.22,9.31,6.79-1.12,10-10.43,14.07-22.25,3.69-10.75,4.87-20,5.89-28.3,1.49-12.13.42-12.57,2-22.92C593.74,302.27,596.77,296.36,594.88,295.25Z" id="el_BKftNgbppXE"/></g>
  <circle cx="540.8" cy="353.31" r="23.53" id="el_jTCDi6OXmZp"/>
<script>(function(){var a=document.querySelector('#el_riOd45zzV'),b=a.querySelectorAll('style'),c=function(d){b.forEach(function(f){var g=f.textContent;g&amp;&amp;(f.textContent=g.replace(/transform-box:[^;\r\n]*/gi,'transform-box: '+d))})};c('initial'),window.requestAnimationFrame(function(){return c('fill-box')})})();</script></svg>