<svg xmlns="http://www.w3.org/2000/svg" xmlns:xlink="http://www.w3.org/1999/xlink" width="614.33" height="488.21" viewBox="0 0 614.33 488.21">
  <defs>
    <style>
      .a {
        fill: none;
      }

      .b {
        fill: #edcdae;
      }

      .c {
        clip-path: url(#a);
      }

      .d {
        fill: #31a34c;
      }

      .e {
        fill: #e30000;
      }

      .f {
        fill: #28843c;
      }

      .g {
        fill: #dbbda5;
      }

      .h {
        fill: #ffd92d;
      }
    </style>
    <clipPath id="a" transform="translate(-105.1 -21.93)">
      <path class="a" d="M522.28,259.94l-332.2-18.45c.6-13.58,3.45-39.72,18.49-66.19,15.18-26.73,34.86-39.86,49.37-49.28,28.11-18.28,53.2-22.86,76.56-27.13,32.59-6,57.9-4.49,79.14-3.13,32,2,55,7.41,80.15,13.25,35.67,8.3,53.51,12.44,72.25,23.22,12,6.87,34.22,20,53.35,47.28,24.88,35.43,29.27,73.21,31.25,90,1.48,12.72,1,32.06-.16,70.82-.81,28.71-1.91,37.26-3.75,37.47-4.44.51-1.69-49.76-30.19-91.22-6.5-9.45-28.23-41.08-60.18-40.23C541,246.79,529,254.54,522.28,259.94Z"/>
    </clipPath>
  </defs>
  <title>elf</title>
  <circle class="b" cx="264.96" cy="297.64" r="190.57"/>
  <g class="c">
    <g>
      <polygon class="d" points="545.91 355.94 90.31 168.75 98.43 144.88 554.04 332.06 545.91 355.94"/>
      <polygon class="e" points="554.04 332.06 98.43 144.88 106.56 120.99 562.16 308.18 554.04 332.06"/>
      <polygon class="d" points="562.16 308.18 106.56 120.99 114.68 97.11 570.28 284.3 562.16 308.18"/>
      <polygon class="e" points="570.28 284.3 114.68 97.11 122.8 73.23 578.4 260.42 570.28 284.3"/>
      <polygon class="d" points="578.4 260.42 122.8 73.23 130.93 49.35 586.53 236.54 578.4 260.42"/>
      <polygon class="e" points="586.53 236.54 130.93 49.35 139.05 25.47 594.65 212.66 586.53 236.54"/>
      <polygon class="d" points="594.65 212.66 139.05 25.47 147.17 1.59 602.77 188.78 594.65 212.66"/>
      <polygon class="e" points="602.77 188.78 147.81 0 614.33 156.31 602.77 188.78"/>
      <polygon class="d" points="74.06 216.52 82.19 192.63 537.79 379.82 74.06 216.52"/>
      <polygon class="e" points="537.79 379.82 82.19 192.63 90.31 168.75 545.91 355.94 537.79 379.82"/>
    </g>
  </g>
  <path class="f" d="M567.64,181.11c-22.8,70.34-15.31,71.6-1,100.31a.73.73,0,0,1-.75.7h0c-56.17,30.24-419.43,7.77-392.37-4s.48-103.32.48-103.32l47.58,68.31a.77.77,0,0,0,1.07.16.81.81,0,0,0,.16-.16l48.78-67a.77.77,0,0,1,1.23,0l47.39,68a.77.77,0,0,0,1.07.16.81.81,0,0,0,.16-.16l48.8-67a.76.76,0,0,1,.62-.3.75.75,0,0,1,.61.32l47.4,68a.75.75,0,0,0,1.06.16.61.61,0,0,0,.16-.16l48.81-67a.77.77,0,0,1,1.07-.16,1.21,1.21,0,0,1,.16.16l47.37,68a.77.77,0,0,0,1.07.16,1.21,1.21,0,0,0,.16-.16l47.63-65.43a.75.75,0,0,1,1-.09A.77.77,0,0,1,567.64,181.11Z" transform="translate(-105.1 -21.93)"/>
  <path class="b" d="M208.8,399.31c15.87-15.37-8.44-65.77-25.77-91.71-16.61-24.89-33.72-37.63-45.13-45.94-14.39-10.5-30.15-18.91-32.54-16.11-2.52,3,13.8,13.88,18.9,37.07,2.73,12.37,2.14,27.7,2.1,28.65-.33,7.7-1.11,8.62-1.2,15.86a88.68,88.68,0,0,0,3.39,27.62,73.1,73.1,0,0,0,14.12,27.05,70,70,0,0,0,20.05,16.47c5.07,2.77,11,6,19.34,6.92C183.27,405.31,200.81,407,208.8,399.31Z" transform="translate(-105.1 -21.93)"/>
  <path class="b" d="M518.57,416.37C502.69,401,527,350.6,544.33,324.65,561,299.77,578.06,287,589.46,278.72c14.4-10.5,30.15-18.91,32.54-16.1s-13.8,13.87-18.9,37.06c-2.73,12.37-2.14,27.7-2.1,28.66.33,7.7,1.11,8.61,1.2,15.85a88.76,88.76,0,0,1-3.4,27.62,72.88,72.88,0,0,1-14.11,27.05,69.89,69.89,0,0,1-20.06,16.46c-5.07,2.77-11,6-19.35,6.92C544.09,422.37,526.55,424.11,518.57,416.37Z" transform="translate(-105.1 -21.93)"/>
  <path class="g" d="M135.9,280.29c2.66-1.52,11.69,8.3,17,16.38,2.91,4.44,5,8.85,9.07,17.7a72.08,72.08,0,0,1,3.53,8.82c1.16,3.64,1.49,5.78,2.39,9.76,1.35,6,1.81,6.57,3.5,13.19,2.87,11.22,4.3,16.84,3.06,19.9-2.17,5.43-8.81,10.11-14.32,9.13-6.78-1.21-9.87-10.56-13.79-22.43-3.57-10.79-4.63-20-5.54-28.37-1.34-12.15-.27-12.57-1.77-22.94C136.93,287.33,134,281.38,135.9,280.29Z" transform="translate(-105.1 -21.93)"/>
  <path class="g" d="M594.88,295.25c-2.66-1.56-11.8,8.13-17.19,16.16-3,4.41-5.07,8.8-9.28,17.57a70.61,70.61,0,0,0-3.64,8.78,98.53,98.53,0,0,0-2.51,9.73c-1.43,6-1.91,6.54-3.66,13.15-3,11.18-4.5,16.78-3.32,19.85,2.11,5.46,8.69,10.23,14.22,9.31,6.79-1.12,10-10.43,14.07-22.25,3.69-10.75,4.87-20,5.89-28.3,1.49-12.13.42-12.57,2-22.92C593.74,302.27,596.77,296.36,594.88,295.25Z" transform="translate(-105.1 -21.93)"/>
  <circle class="h" cx="540.8" cy="353.31" r="23.53"/>
</svg>
