<svg xmlns="http://www.w3.org/2000/svg" xmlns:xlink="http://www.w3.org/1999/xlink" viewBox="0 0 1283.83 1020.29"><defs><style>.a{fill:none;}.b{fill:#edcdae;}.c{clip-path:url(#a);}.d{fill:#31a34c;}.e{fill:#e30000;}.f{fill:#28843c;}.g{fill:#dbbda5;}.h{fill:#ffd92d;}</style><clipPath id="a" transform="translate(-438.67 -43.26)"><path class="a" d="M1310.49,540.65,616.24,502.09c1.25-28.38,7.21-83,38.64-138.31,31.72-55.86,72.85-83.31,103.17-103,58.75-38.19,111.19-47.77,160-56.69,68.11-12.44,121-9.39,165.39-6.54,66.79,4.28,114.93,15.47,167.5,27.69,74.56,17.34,111.84,26,151,48.53,25,14.35,71.52,41.81,111.49,98.79,52,74.06,61.18,153,65.3,188.19,3.1,26.57,2,67-.32,148-1.7,60-4,77.87-7.84,78.3-9.27,1.06-3.54-104-63.1-190.64-13.57-19.75-59-85.84-125.76-84.07C1349.65,513.18,1324.61,529.37,1310.49,540.65Z"/></clipPath></defs><title>elf</title><circle class="b" cx="553.68" cy="622.02" r="398.27"/><g class="c"><polygon class="d" points="1140.84 743.86 188.69 352.67 205.67 302.77 1157.82 693.96 1140.84 743.86"/><polygon class="e" points="1157.82 693.96 205.67 302.77 222.65 252.86 1174.79 644.05 1157.82 693.96"/><polygon class="d" points="1174.79 644.05 222.65 252.86 239.63 202.95 1191.77 594.14 1174.79 644.05"/><polygon class="e" points="1191.77 594.14 239.63 202.95 256.6 153.04 1208.74 544.24 1191.77 594.14"/><polygon class="d" points="1208.74 544.24 256.6 153.04 273.58 103.14 1225.72 494.33 1208.74 544.24"/><polygon class="e" points="1225.72 494.33 273.58 103.14 290.55 53.23 1242.7 444.42 1225.72 494.33"/><polygon class="d" points="1242.7 444.42 290.55 53.23 307.53 3.32 1259.67 394.52 1242.7 444.42"/><polygon class="e" points="1259.67 394.52 308.86 0 1283.83 326.66 1259.67 394.52"/><polygon class="d" points="154.74 452.49 171.72 402.58 1123.86 793.77 154.74 452.49"/><polygon class="e" points="1123.86 793.77 171.72 402.58 188.69 352.67 1140.84 743.86 1123.86 793.77"/></g><path class="f" d="M1405.28,375.91c-47.64,147-32,149.64-2.16,209.64a1.5,1.5,0,0,1-1.56,1.45c-117.38,63.21-876.55,16.25-820-8.44s1-215.91,1-215.91L682,505.41a1.6,1.6,0,0,0,2.57,0l101.94-140a1.59,1.59,0,0,1,1.29-.64,1.55,1.55,0,0,1,1.28.67l99.05,142.1a1.59,1.59,0,0,0,2.56,0l102-140a1.56,1.56,0,0,1,1.29-.64,1.54,1.54,0,0,1,1.27.67l99.06,142.1a1.59,1.59,0,0,0,2.56,0l102-140a1.59,1.59,0,0,1,2.56,0l99,142.1a1.6,1.6,0,0,0,2.57,0l99.54-136.74A1.56,1.56,0,0,1,1405.28,375.91Z" transform="translate(-438.67 -43.26)"/><path class="b" d="M655.35,831.93c33.18-32.12-17.63-137.46-53.84-191.68-34.73-52-70.48-78.64-94.33-96-30.07-21.94-63-39.51-68-33.66-5.27,6.19,28.84,29,39.51,77.46,5.69,25.85,4.46,57.89,4.37,59.89-.69,16.09-2.31,18-2.5,33.13-.16,12.19-.26,33,7.09,57.72,3.21,10.77,10.23,33.52,29.5,56.53a146.35,146.35,0,0,0,41.9,34.43c10.6,5.79,23,12.56,40.43,14.46C602,844.46,638.66,848.08,655.35,831.93Z" transform="translate(-438.67 -43.26)"/><path class="b" d="M1302.73,867.58c-33.18-32.11,17.62-137.45,53.83-191.68,34.74-52,70.49-78.63,94.33-96,30.08-21.93,63-39.51,68-33.65,5.26,6.19-28.85,29-39.51,77.46-5.69,25.85-4.46,57.89-4.37,59.89.68,16.09,2.31,18,2.5,33.12.15,12.19.26,33-7.1,57.72-3.2,10.78-10.22,33.53-29.5,56.54A146.28,146.28,0,0,1,1399,865.37c-10.6,5.79-23,12.57-40.44,14.47C1356.06,880.11,1319.42,883.74,1302.73,867.58Z" transform="translate(-438.67 -43.26)"/><path class="g" d="M503,583.19c5.57-3.19,24.44,17.34,35.48,34.22,6.08,9.28,10.37,18.51,18.94,37a147.88,147.88,0,0,1,7.38,18.44c2.42,7.59,3.11,12.06,5,20.38,2.83,12.56,3.79,13.74,7.31,27.58,6,23.45,9,35.18,6.4,41.58-4.53,11.35-18.41,21.13-29.93,19.08-14.16-2.52-20.63-22.06-28.82-46.88-7.45-22.54-9.67-41.82-11.58-59.28-2.79-25.39-.55-26.27-3.69-47.95C505.16,597.89,499,585.47,503,583.19Z" transform="translate(-438.67 -43.26)"/><path class="g" d="M1462.2,614.45c-5.54-3.26-24.66,17-35.91,33.77-6.19,9.21-10.6,18.39-19.4,36.73a148.21,148.21,0,0,0-7.61,18.35c-2.51,7.56-3.27,12-5.24,20.32-3,12.52-4,13.68-7.65,27.48-6.27,23.38-9.41,35.07-6.93,41.5,4.4,11.4,18.15,21.36,29.7,19.45,14.19-2.34,20.9-21.8,29.41-46.51,7.72-22.45,10.18-41.7,12.32-59.13,3.1-25.36.87-26.27,4.28-47.9C1459.82,629.12,1466.15,616.78,1462.2,614.45Z" transform="translate(-438.67 -43.26)"/><circle class="h" cx="1130.15" cy="738.37" r="49.18"/></svg>