<svg xmlns="http://www.w3.org/2000/svg" width="743" height="455.71" viewBox="0 0 743 455.71">
  <defs>
    <style>
      .a {
        fill: #333851;
      }

      .b {
        fill: #aa5959;
      }

      .c {
        fill: #dda526;
      }

      .d {
        fill: #efb643;
      }

      .e {
        fill: #edd545;
      }

      .f {
        fill: #8c4545;
      }
    </style>
  </defs>
  <title>fireplace</title>
  <g>
    <rect class="a" x="92" y="113.71" width="580" height="342"/>
    <path class="b" d="M577,242.42V617.58A29.42,29.42,0,0,0,606.42,647h72.49a29.47,29.47,0,0,0,29.39-30.81q-.3-7.05-.3-14.19c0-139.73,85.74-253,191.5-253S1091,462.27,1091,602q0,7.14-.3,14.19A29.47,29.47,0,0,0,1120.09,647h72.49A29.42,29.42,0,0,0,1222,617.58V242.42A29.42,29.42,0,0,0,1192.58,213H606.42A29.42,29.42,0,0,0,577,242.42Z" transform="translate(-528 -191.29)"/>
    <path class="c" d="M788,615c-7.19-14.2-9.2-37.23-6-57,1.14-7.06,3.26-19.44,11-33,9.76-17.1,17-16,25-32,2.4-4.79,11-22,6-40-3.93-14.08-13.77-19.78-12-22,2.58-3.23,25.86,5.69,39,25,3.8,5.58,9.36,13.75,10,25,.55,9.78-2.86,17.56,0,31a52.3,52.3,0,0,0,2.44,8.1C865.76,526,869,534.23,873,535c8.21,1.58,28.69-26.25,23-50-2.86-11.93-9.76-12.18-14-28-1.47-5.47-5.5-20.51,2-34,6.16-11.09,18.82-18.79,23-16,2.72,1.81,0,6.82,0,23a100.51,100.51,0,0,0,2,22,88.38,88.38,0,0,0,6,18c5.28,11.55,11.58,18.71,19,27,10.78,12.05,16.17,18.08,21,17,7.26-1.62,10.56-16,11-25,.72-14.67-5.8-23.1-3-25,3-2.07,14.22,5.5,19,16,2.31,5.06,3.23,11,4,16,1.33,8.62.49,11.2,3,15,2.77,4.19,5.06,3,11,8,5.22,4.41,8,9.19,12,16,3.37,5.77,5.06,8.66,6,12,1,3.51,1.44,7.73-5,33-2,8-5,19-5,19h0s-7.68,12.49-8,13C989.49,628.82,820.28,678.73,788,615Z" transform="translate(-528 -191.29)"/>
    <path class="d" d="M804.85,614.07c-5.12-10.1-6.55-26.5-4.28-40.58A67,67,0,0,1,808.41,550c6.94-12.17,12.1-11.4,17.79-22.78,1.71-3.41,7.85-15.68,4.28-28.48-2.8-10-9.81-14.08-8.55-15.66,1.84-2.3,18.41,4.05,27.77,17.8,2.7,4,6.66,9.79,7.12,17.8.39,7-2,12.5,0,22.07a35.66,35.66,0,0,0,1.74,5.76c1.64,4.21,3.94,10.06,6.8,10.61,5.84,1.12,20.42-18.69,16.37-35.6-2-8.49-6.94-8.66-10-19.93-1-3.9-3.92-14.6,1.42-24.21,4.39-7.89,13.4-13.37,16.38-11.39,1.93,1.3,0,4.86,0,16.38A71.14,71.14,0,0,0,891,498a62.78,62.78,0,0,0,4.27,12.82c3.76,8.22,8.25,13.31,13.53,19.22,7.67,8.58,11.51,12.87,15,12.1,5.17-1.15,7.52-11.4,7.83-17.8.51-10.44-4.13-16.44-2.14-17.8,2.17-1.47,10.12,3.92,13.53,11.39,1.64,3.61,2.3,7.85,2.85,11.4,1,6.13.35,8,2.13,10.67,2,3,3.61,2.13,7.83,5.7,3.72,3.14,5.71,6.54,8.55,11.39,2.4,4.11,3.6,6.17,4.27,8.54s1,5.51-3.56,23.5c-1.46,5.71-3.56,13.52-3.56,13.52h0s-5.47,8.9-5.7,9.26C948.29,623.91,827.83,659.45,804.85,614.07Z" transform="translate(-528 -191.29)"/>
    <path class="e" d="M860.46,623.7c-4.75-9.37-6.08-24.58-4-37.63a61.86,61.86,0,0,1,7.26-21.79C870.2,553,875,553.71,880.27,543.16c1.58-3.17,7.27-14.55,4-26.41-2.6-9.29-9.1-13.06-7.93-14.53,1.71-2.13,17.08,3.76,25.75,16.51,2.51,3.69,6.18,9.08,6.61,16.5.36,6.46-1.89,11.6,0,20.47a34,34,0,0,0,1.61,5.35c1.53,3.9,3.66,9.33,6.31,9.84,5.42,1,18.94-17.33,15.18-33-1.88-7.88-6.44-8-9.24-18.49-1-3.61-3.63-13.54,1.32-22.45,4.07-7.32,12.43-12.4,15.19-10.56,1.79,1.2,0,4.5,0,15.18a66,66,0,0,0,1.32,14.53,57.74,57.74,0,0,0,4,11.88c3.48,7.63,7.64,12.35,12.54,17.83,7.12,8,10.68,11.93,13.87,11.22,4.79-1.07,7-10.57,7.26-16.5.47-9.69-3.83-15.25-2-16.51,2-1.36,9.38,3.63,12.54,10.56a41.15,41.15,0,0,1,2.64,10.57c.88,5.69.33,7.39,2,9.9,1.83,2.77,3.34,2,7.27,5.28,3.45,2.91,5.29,6.07,7.92,10.57,2.23,3.81,3.34,5.71,4,7.92s1,5.1-3.3,21.79c-1.35,5.29-3.3,12.54-3.3,12.54h0s-5.07,8.25-5.28,8.58C993.49,632.83,881.77,665.78,860.46,623.7Z" transform="translate(-528 -191.29)"/>
    <rect class="f" width="743" height="43.43"/>
    <rect class="f" x="35" y="70.71" width="114" height="49" rx="12"/>
    <rect class="f" x="149" y="113.71" width="114" height="49" rx="12"/>
    <rect class="f" x="594" y="323.71" width="114" height="49" rx="12"/>
    <rect class="f" x="537" y="214.71" width="114" height="49" rx="12"/>
    <rect class="f" x="362" y="64.71" width="114" height="49" rx="12"/>
    <rect class="f" x="594" y="64.71" width="114" height="49" rx="12"/>
    <rect class="f" x="35" y="249.71" width="114" height="49" rx="12"/>
    <rect class="f" x="594" y="162.71" width="114" height="49" rx="12"/>
  </g>
</svg>
