<svg xmlns="http://www.w3.org/2000/svg" xmlns:xlink="http://www.w3.org/1999/xlink" viewBox="0 0 319 447" id="el_JBYGjru8C"><style>@-webkit-keyframes el_NN2qN0wxYJ_P2knrT9ul_Animation{0%{-webkit-transform: translate(284.63035583496094px, 122.83963775634766px) translate(-284.63035583496094px, -122.83963775634766px) translate(0px, 50px);transform: translate(284.63035583496094px, 122.83963775634766px) translate(-284.63035583496094px, -122.83963775634766px) translate(0px, 50px);}43.33%{-webkit-transform: translate(284.63035583496094px, 122.83963775634766px) translate(-284.63035583496094px, -122.83963775634766px) translate(0px, -130px);transform: translate(284.63035583496094px, 122.83963775634766px) translate(-284.63035583496094px, -122.83963775634766px) translate(0px, -130px);}100%{-webkit-transform: translate(284.63035583496094px, 122.83963775634766px) translate(-284.63035583496094px, -122.83963775634766px) translate(0px, 50px);transform: translate(284.63035583496094px, 122.83963775634766px) translate(-284.63035583496094px, -122.83963775634766px) translate(0px, 50px);}}@keyframes el_NN2qN0wxYJ_P2knrT9ul_Animation{0%{-webkit-transform: translate(284.63035583496094px, 122.83963775634766px) translate(-284.63035583496094px, -122.83963775634766px) translate(0px, 50px);transform: translate(284.63035583496094px, 122.83963775634766px) translate(-284.63035583496094px, -122.83963775634766px) translate(0px, 50px);}43.33%{-webkit-transform: translate(284.63035583496094px, 122.83963775634766px) translate(-284.63035583496094px, -122.83963775634766px) translate(0px, -130px);transform: translate(284.63035583496094px, 122.83963775634766px) translate(-284.63035583496094px, -122.83963775634766px) translate(0px, -130px);}100%{-webkit-transform: translate(284.63035583496094px, 122.83963775634766px) translate(-284.63035583496094px, -122.83963775634766px) translate(0px, 50px);transform: translate(284.63035583496094px, 122.83963775634766px) translate(-284.63035583496094px, -122.83963775634766px) translate(0px, 50px);}}@-webkit-keyframes el_WGFgPDN3-i_3Tfpe_iyb_Animation{0%{-webkit-transform: translate(229.61283111572266px, 137.1876678466797px) translate(-229.61283111572266px, -137.1876678466797px) translate(0px, 50px);transform: translate(229.61283111572266px, 137.1876678466797px) translate(-229.61283111572266px, -137.1876678466797px) translate(0px, 50px);}43.33%{-webkit-transform: translate(229.61283111572266px, 137.1876678466797px) translate(-229.61283111572266px, -137.1876678466797px) translate(0px, -150px);transform: translate(229.61283111572266px, 137.1876678466797px) translate(-229.61283111572266px, -137.1876678466797px) translate(0px, -150px);}100%{-webkit-transform: translate(229.61283111572266px, 137.1876678466797px) translate(-229.61283111572266px, -137.1876678466797px) translate(0px, 50px);transform: translate(229.61283111572266px, 137.1876678466797px) translate(-229.61283111572266px, -137.1876678466797px) translate(0px, 50px);}}@keyframes el_WGFgPDN3-i_3Tfpe_iyb_Animation{0%{-webkit-transform: translate(229.61283111572266px, 137.1876678466797px) translate(-229.61283111572266px, -137.1876678466797px) translate(0px, 50px);transform: translate(229.61283111572266px, 137.1876678466797px) translate(-229.61283111572266px, -137.1876678466797px) translate(0px, 50px);}43.33%{-webkit-transform: translate(229.61283111572266px, 137.1876678466797px) translate(-229.61283111572266px, -137.1876678466797px) translate(0px, -150px);transform: translate(229.61283111572266px, 137.1876678466797px) translate(-229.61283111572266px, -137.1876678466797px) translate(0px, -150px);}100%{-webkit-transform: translate(229.61283111572266px, 137.1876678466797px) translate(-229.61283111572266px, -137.1876678466797px) translate(0px, 50px);transform: translate(229.61283111572266px, 137.1876678466797px) translate(-229.61283111572266px, -137.1876678466797px) translate(0px, 50px);}}@-webkit-keyframes el_1msnM5K4G7_wzdwy8gqU_Animation{0%{-webkit-transform: translate(167.9325408935547px, 106.14067840576172px) translate(-167.9325408935547px, -106.14067840576172px) translate(0px, 50px);transform: translate(167.9325408935547px, 106.14067840576172px) translate(-167.9325408935547px, -106.14067840576172px) translate(0px, 50px);}43.33%{-webkit-transform: translate(167.9325408935547px, 106.14067840576172px) translate(-167.9325408935547px, -106.14067840576172px) translate(0px, -130px);transform: translate(167.9325408935547px, 106.14067840576172px) translate(-167.9325408935547px, -106.14067840576172px) translate(0px, -130px);}100%{-webkit-transform: translate(167.9325408935547px, 106.14067840576172px) translate(-167.9325408935547px, -106.14067840576172px) translate(0px, 50px);transform: translate(167.9325408935547px, 106.14067840576172px) translate(-167.9325408935547px, -106.14067840576172px) translate(0px, 50px);}}@keyframes el_1msnM5K4G7_wzdwy8gqU_Animation{0%{-webkit-transform: translate(167.9325408935547px, 106.14067840576172px) translate(-167.9325408935547px, -106.14067840576172px) translate(0px, 50px);transform: translate(167.9325408935547px, 106.14067840576172px) translate(-167.9325408935547px, -106.14067840576172px) translate(0px, 50px);}43.33%{-webkit-transform: translate(167.9325408935547px, 106.14067840576172px) translate(-167.9325408935547px, -106.14067840576172px) translate(0px, -130px);transform: translate(167.9325408935547px, 106.14067840576172px) translate(-167.9325408935547px, -106.14067840576172px) translate(0px, -130px);}100%{-webkit-transform: translate(167.9325408935547px, 106.14067840576172px) translate(-167.9325408935547px, -106.14067840576172px) translate(0px, 50px);transform: translate(167.9325408935547px, 106.14067840576172px) translate(-167.9325408935547px, -106.14067840576172px) translate(0px, 50px);}}#el_JBYGjru8C *{-webkit-animation-duration: 3s;animation-duration: 3s;-webkit-animation-iteration-count: infinite;animation-iteration-count: infinite;-webkit-animation-timing-function: cubic-bezier(0, 0, 1, 1);animation-timing-function: cubic-bezier(0, 0, 1, 1);}#el_5LVvO41V6a{fill: #d6b59a;}#el_B4bhYQrhHZ{fill: none;}#el_QI4seBgUPM{fill: none;-webkit-transform: translate(-93.26px, -45.23px);transform: translate(-93.26px, -45.23px);}#el_2GJMAcuNm3{fill: url(#a);-webkit-transform: translate(-93.26px, -45.23px);transform: translate(-93.26px, -45.23px);}#el_1msnM5K4G7{stroke: #ffe2b5;stroke-miterlimit: 10;fill: url(#b);-webkit-transform: translate(-93.26px, -45.23px);transform: translate(-93.26px, -45.23px);}#el_WGFgPDN3-i{stroke: #ffe2b5;stroke-miterlimit: 10;fill: url(#c);-webkit-transform: translate(-93.26px, -45.23px);transform: translate(-93.26px, -45.23px);}#el_NN2qN0wxYJ{stroke: #ffe2b5;stroke-miterlimit: 10;fill: url(#d);-webkit-transform: translate(-93.26px, -45.23px);transform: translate(-93.26px, -45.23px);}#el_C8Gzs-6r82{fill: #30c637;-webkit-transform: translate(-93.26px, -45.23px);transform: translate(-93.26px, -45.23px);}#el_kUtAoVwgxV{fill: #30c637;-webkit-transform: translate(-93.26px, -45.23px);transform: translate(-93.26px, -45.23px);}#el_9djlMNiwT9{fill: #30c637;-webkit-transform: translate(-93.26px, -45.23px);transform: translate(-93.26px, -45.23px);}#el_lTAPevf8Pv{fill: #30c637;-webkit-transform: translate(-93.26px, -45.23px);transform: translate(-93.26px, -45.23px);}#el_daP_w2kjSY{fill: #30c637;-webkit-transform: translate(-93.26px, -45.23px);transform: translate(-93.26px, -45.23px);}#el_ttnCXmCj_K{fill: #30c637;-webkit-transform: translate(-93.26px, -45.23px);transform: translate(-93.26px, -45.23px);}#el_wQ6LTKXikY{fill: #30c637;-webkit-transform: translate(-93.26px, -45.23px);transform: translate(-93.26px, -45.23px);}#el_PdTRb3rInqK{fill: #30c637;-webkit-transform: translate(-93.26px, -45.23px);transform: translate(-93.26px, -45.23px);}#el_H6Ml2Uh78W9{fill: #30c637;-webkit-transform: translate(-93.26px, -45.23px);transform: translate(-93.26px, -45.23px);}#el_hDnUT3zJqeY{fill: #30c637;-webkit-transform: translate(-93.26px, -45.23px);transform: translate(-93.26px, -45.23px);}#el_nl8Z3rrqpaL{fill: #30c637;-webkit-transform: translate(-93.26px, -45.23px);transform: translate(-93.26px, -45.23px);}#el_vpBIkk-9FO_{fill: #30c637;-webkit-transform: translate(-93.26px, -45.23px);transform: translate(-93.26px, -45.23px);}#el_Hf0LWQK68m2{fill: #30c637;-webkit-transform: translate(-93.26px, -45.23px);transform: translate(-93.26px, -45.23px);}#el_a9ERi6WXG4k{fill: #30c637;-webkit-transform: translate(-93.26px, -45.23px);transform: translate(-93.26px, -45.23px);}#el_B5CvEjqnSwx{fill: #fff;-webkit-transform: translate(-93.26px, -45.23px);transform: translate(-93.26px, -45.23px);}#el_UE-E69arJpP{fill: #fff;-webkit-transform: translate(-93.26px, -45.23px);transform: translate(-93.26px, -45.23px);}#el_I7jYzoqu0dM{fill: #fff;-webkit-transform: translate(-93.26px, -45.23px);transform: translate(-93.26px, -45.23px);}#el_PGcTBWhYBsp{fill: #fff;-webkit-transform: translate(-93.26px, -45.23px);transform: translate(-93.26px, -45.23px);}#el_Ydg4uduFdDc{fill: #fff;-webkit-transform: translate(-93.26px, -45.23px);transform: translate(-93.26px, -45.23px);}#el_KY3j4qfdVJh{fill: #fff;-webkit-transform: translate(-93.26px, -45.23px);transform: translate(-93.26px, -45.23px);}#el_EAXttV2-uK0{fill: #fff;-webkit-transform: translate(-93.26px, -45.23px);transform: translate(-93.26px, -45.23px);}#el_lWb3vwV-KWL{fill: #fff;-webkit-transform: translate(-93.26px, -45.23px);transform: translate(-93.26px, -45.23px);}#el_nsBYyVyhlxH{fill: #fff;-webkit-transform: translate(-93.26px, -45.23px);transform: translate(-93.26px, -45.23px);}#el_eS2fi-l5f1_{fill: #fff;-webkit-transform: translate(-93.26px, -45.23px);transform: translate(-93.26px, -45.23px);}#el_RaQI9iQJhCB{fill: #fff;-webkit-transform: translate(-93.26px, -45.23px);transform: translate(-93.26px, -45.23px);}#el_UVbShe90vtf{fill: #fff;-webkit-transform: translate(-93.26px, -45.23px);transform: translate(-93.26px, -45.23px);}#el_7gqhlII6pSC{fill: #fff;-webkit-transform: translate(-93.26px, -45.23px);transform: translate(-93.26px, -45.23px);}#el_OyZyGSBeBhS{fill: #fff;-webkit-transform: translate(-93.26px, -45.23px);transform: translate(-93.26px, -45.23px);}#el_1msnM5K4G7_wzdwy8gqU{-webkit-animation-name: el_1msnM5K4G7_wzdwy8gqU_Animation;animation-name: el_1msnM5K4G7_wzdwy8gqU_Animation;}#el_WGFgPDN3-i_3Tfpe_iyb{-webkit-animation-name: el_WGFgPDN3-i_3Tfpe_iyb_Animation;animation-name: el_WGFgPDN3-i_3Tfpe_iyb_Animation;}#el_NN2qN0wxYJ_P2knrT9ul{-webkit-animation-name: el_NN2qN0wxYJ_P2knrT9ul_Animation;animation-name: el_NN2qN0wxYJ_P2knrT9ul_Animation;}</style>
  <defs>
    
    <radialGradient id="a" cx="950.86" cy="260.5" fx="778.2835552781025" fy="341.6050956196503" r="190.69" gradientTransform="matrix(0.99, -0.1, -0.14, -1.34, -655.99, 793.53)" gradientUnits="userSpaceOnUse">
      <stop offset="0.38" stop-color="#fc0000"/>
      <stop offset="0.43" stop-color="#f20000"/>
      <stop offset="0.52" stop-color="#d70000"/>
      <stop offset="0.64" stop-color="#ab0000"/>
      <stop offset="0.78" stop-color="#6e0000"/>
      <stop offset="0.94" stop-color="#200"/>
      <stop offset="1"/>
    </radialGradient>
    <linearGradient id="b" x1="865.15" y1="526.32" x2="903.88" y2="526.32" gradientTransform="matrix(1, 0, 0, -1, -713.32, 632.48)" gradientUnits="userSpaceOnUse">
      <stop offset="0" stop-color="#fff"/>
      <stop offset="0.15" stop-color="#fefcf9"/>
      <stop offset="0.35" stop-color="#fdf4e9"/>
      <stop offset="0.57" stop-color="#fbe6ce"/>
      <stop offset="0.81" stop-color="#f7d3a9"/>
      <stop offset="1" stop-color="#f4c287"/>
    </linearGradient>
    <linearGradient id="c" x1="926.32" y1="495.33" x2="959.54" y2="495.33" gradientTransform="matrix(1, 0, 0, -1, -713.32, 632.48)" gradientUnits="userSpaceOnUse">
      <stop offset="0" stop-color="#fff"/>
      <stop offset="0.16" stop-color="#fffcfa"/>
      <stop offset="0.35" stop-color="#fdf5ec"/>
      <stop offset="0.56" stop-color="#fbe9d4"/>
      <stop offset="0.77" stop-color="#f8d8b2"/>
      <stop offset="1" stop-color="#f4c288"/>
      <stop offset="1" stop-color="#f4c287"/>
    </linearGradient>
    <linearGradient id="d" x1="976.84" y1="509.67" x2="1019.06" y2="509.67" gradientTransform="matrix(1, 0, 0, -1, -713.32, 632.48)" gradientUnits="userSpaceOnUse">
      <stop offset="0" stop-color="#fff"/>
      <stop offset="0.2" stop-color="#fffdfb"/>
      <stop offset="0.38" stop-color="#fef8f1"/>
      <stop offset="0.55" stop-color="#fceede"/>
      <stop offset="0.72" stop-color="#fae1c5"/>
      <stop offset="0.88" stop-color="#f7d1a4"/>
      <stop offset="1" stop-color="#f4c287"/>
    </linearGradient>
  </defs>
  <title>mug</title>
  <ellipse cx="136.6" cy="181.14" rx="120.54" ry="15.13" id="el_5LVvO41V6a"/>
  <ellipse cx="136.6" cy="181.14" rx="120.54" ry="15.13" id="el_B4bhYQrhHZ"/>
  <path d="M397.11,311.74c-2-11.52-4.92-27.82-16.95-36-.72-.49-6.9-4.6-13.69-5.4V420.57c.67-.56,1.14-1.06,1.44-1.35,8.1-8.2,16.39-9.29,22.42-16.79,2.28-2.84,2.91-4.94,5.51-30.17,2.86-27.74,3.07-34.73,2.8-42.6C398.39,322.57,398.24,318.08,397.11,311.74Z" id="el_QI4seBgUPM"/>
  <path d="M412.55,326.4c-.33-9.64-.53-15.76-2.07-24.39-2.77-15.69-6.74-37.91-23.1-49.07-1.05-.72-10.79-7.2-20.9-7.51v-25H366c-.67-13.59-61.48-24.57-136.36-24.57-75.31,0-136.37,11.1-136.37,24.81a5,5,0,0,0,.47,2.06V467.65h0c.68,13.6,61.48,24.58,136.36,24.58s135.66-11,136.36-24.58h0V451.93a23.12,23.12,0,0,0,4.23-3.53c11-11.17,22.33-12.65,30.55-22.88,3.09-3.85,4-6.74,7.49-41.09C412.64,346.64,412.93,337.14,412.55,326.4ZM229.86,211.92c66.57,0,120.54,6.75,120.54,15.13s-53.95,15.13-120.54,15.13-120.54-6.75-120.54-15.13S163.29,211.92,229.86,211.92Zm166,161c-2.6,25.23-3.23,27.33-5.51,30.17-6,7.5-14.32,8.59-22.42,16.79a17.71,17.71,0,0,1-1.44,1.35V271c6.79.8,13,4.91,13.69,5.4,12,8.2,14.92,24.5,16.95,36,1.13,6.34,1.28,10.83,1.53,17.91C398.91,338.19,398.7,345.18,395.82,372.92Z" id="el_2GJMAcuNm3"/>
  <g id="el_1msnM5K4G7_wzdwy8gqU" data-animator-group="true" data-animator-type="0"><path d="M169.59,46A41.88,41.88,0,0,0,152.1,64.93a36.32,36.32,0,0,0-3.31,19.38c.45,3.57,1.72,6.84,4.26,13.23a178.67,178.67,0,0,0,7.56,16.54c7.77,15,10.26,15.51,11.35,22.22.37,2.34,1.39,9.22-1.89,16.07-4.32,9-13,11.61-12.29,13.24s9.94.38,17.49-4.72a26.36,26.36,0,0,0,10.4-12.29c3.85-9.91-.29-19-1.43-21.27-1.9-3.8-2.63-2.92-6.61-9a73.85,73.85,0,0,1-8-16.55,54.08,54.08,0,0,1-3.3-14.65c-.58-9.06,2.08-12.32,3.3-23.16A80.4,80.4,0,0,0,169.59,46Z" id="el_1msnM5K4G7"/></g>
  <g id="el_WGFgPDN3-i_3Tfpe_iyb" data-animator-group="true" data-animator-type="0"><path d="M228.21,102.3a30.8,30.8,0,0,1,7.11,9c2.23,4.35,2.7,8,3.32,12.3.85,6.29,1.34,9.9,0,14.16-2,6.23-5.34,6-7.1,12.28a20.42,20.42,0,0,0,.47,12.3c1.43,3.72,3.8,6.11,6.63,9,4.91,5,7.89,5.79,7.56,7.09-.52,2.05-8.77,3-15.6,0a21.6,21.6,0,0,1-9.93-9c-.67-1.1-4.44-7.95-2.36-15.59,1.35-4.92,3.88-5.68,7.56-12.29,2.7-4.91,4.39-8,4.72-12.29.3-3.76-.56-7.09-2.36-11.35-6.37-15-16.33-22.09-15.13-23.6C214.11,92.94,222.26,96.86,228.21,102.3Z" id="el_WGFgPDN3-i"/></g>
  <g id="el_NN2qN0wxYJ_P2knrT9ul" data-animator-group="true" data-animator-type="0"><path d="M279.73,81.49a34.17,34.17,0,0,0-10.87,10.4c-.48.75-8.69,13.92-3.78,26.48,1.3,3.33,3.86,6.32,9,12.28,6.62,7.73,8.72,8,10.4,12.3A20.18,20.18,0,0,1,283,160c-4.67,8.09-15,8.16-14.65,9.92s11.53,3,20.32-2.36a15.47,15.47,0,0,0,6.62-6.62c2.08-4.42,1-8.87,0-13.24a37.54,37.54,0,0,0-4.25-10.39c-1.24-2.16-3.53-5.1-8-10.88-4-5.22-4.46-5.53-5.2-7.09-1.68-3.51-2-6.54-2.37-10.87-.55-6-1.05-9,0-11.34.53-1.2,1.31-2.35,6.63-6.62a106.63,106.63,0,0,1,10.87-8c9-5.81,13-6.74,12.76-7.56C305.31,73.47,291.61,73.79,279.73,81.49Z" id="el_NN2qN0wxYJ"/></g>
  <g id="el_37OJniVnKx">
    <path d="M161.46,290.69c-3.16,7.11-6,14.16-8.65,21.45-.87,1.35-1.52,3.1-3.23,3.81a5.66,5.66,0,0,1-3.74.23c-2.57-1.49-5-3.15-7.42-4.82a51.27,51.27,0,0,0-9.94-5.56c-.08.09,0,.14,1.05,2.37s3.38,6.67,7.71,15.28c1.28,2.55,3.37,5.88,4.32,8.91.28.92.31,2.25-1.82,3.37-2.28,1.19-3.27.06-3.87-1.2-.83-1.72-1.7-3.56-2.86-5.72-1.71-3.19-4-7.2-7.34-13.48-2.56-4.78-5.67-9.52-8.14-13.33-.6-.92,2.36-3.16,4.15-4a3.8,3.8,0,0,1,1.27-.46c2.69-.33,3.6.2,7,2.24l.55.41c5.59,3.44,11.25,6.74,16.86,10.18,0,.1.13.06.23,0,.23-.67.34-1.05.58-1.76,3.07-8.48,6.75-16.68,10.56-24.86a5.42,5.42,0,0,1,4.13-3.44c1.27-.37,3.93.13,4.13.86.52,1.88.77,2.82,1.29,4.72,3.2,11.66,6.68,23.24,10.11,34.85.17.62-1.46,1.8-2.93,2.21-.87.25-1.7.28-2.17-.32Q167.51,306.55,161.46,290.69Z" id="el_C8Gzs-6r82"/>
    <path d="M201.76,284.93c6.6-1,15.51,1.95,16.61,9.53,0,.63,0,1,.08,1.57-1.35,4.79-7.58,5.6-13.4,6.28-1.72.2-2.57.31-4.29.54-3.32.46-6.48.8-9.69,1.41.61,3.29,3.19,9.54,11.06,8.46a17.75,17.75,0,0,0,9.28-3.91c1.1-1.12.93-2.15,3.27-2.32,1-.07,3.83,0,3.87.79.23,4.16-9.05,7.83-14.83,8.86-8.48,1.51-17.76-2.44-19.56-11.16C181.94,294.4,191.82,286.39,201.76,284.93ZM192.5,300.2c4.59-.81,6.9-1.14,11.52-1.7,3.68-.44,7.51-1.57,7.32-3.89a7.7,7.7,0,0,0-8.44-6.28c-7.94.95-13.07,7.67-12.39,11.35.17.9.67.37,2,.52Z" id="el_kUtAoVwgxV"/>
    <path d="M225.88,298.6c-.16-3.17-.67-6.54-.76-9.78,0-.71-.13-1.41-.15-2.17a4.73,4.73,0,0,1,1.28-3.7,1,1,0,0,1,.32-.16h1.67c4.16,0,4.26,1.93,4.52,3.6.07.41.29,1.52.59,1.53,2.7-1.47,7.25-2.44,10.79-3a18.63,18.63,0,0,1,4,0l1.13.1c4.72.42,6.14,2.14,8.1,4.46a9.55,9.55,0,0,1-.05,1.2c0,.32-.25,1.11-.26,1.16a5.58,5.58,0,0,1-.73.95c-1,1.41-1.26,2.92-4.72,2.57a5.11,5.11,0,0,1-3.37-1.41,8.52,8.52,0,0,1,.08-.87c.1-1.18.8-2.21.91-3.37v-.32c0-.22-.06-.45-.67-.5-5.08-.44-13.31,1.56-15.64,4.28a15.17,15.17,0,0,0-.36,3.68c0,3.4.16,8,.12,9.85v.43c0,1.68.5,3.37.46,5.05,0,1.07-1.65,1.64-3.17,1.63-1.35,0-3.31-.5-3.38-1.49C226.43,307.82,226.1,303.18,225.88,298.6Z" id="el_9djlMNiwT9"/>
    <path d="M266.3,301.85c.45-3.15.56-6.56,1.13-9.75.12-.68.14-1.41.27-2.15a4.64,4.64,0,0,1,2-3.38.75.75,0,0,1,.33-.1l1.65.31c4.1.77,3.83,2.69,3.77,4.39,0,.42,0,1.55.28,1.61,2.92-.93,7.61-1,11.24-.82a18.52,18.52,0,0,1,3.9.74l1.1.31c4.61,1.35,5.65,3.3,7.15,6-.05.16-.23,1-.28,1.17-.1.31-.46,1.05-.47,1.09a5.27,5.27,0,0,1-.91.79c-1.24,1.19-1.81,2.63-5.15,1.6a5.1,5.1,0,0,1-3-2l.24-.84c.33-1.14,1.22-2,1.56-3.15l.08-.31c.06-.21,0-.45-.56-.62-4.93-1.42-13.43-1-16.25,1.18a15,15,0,0,0-1.06,3.54c-.68,3.33-1.35,7.89-1.77,9.69,0,.17-.05.26-.09.43-.36,1.64-.17,3.37-.52,5-.23,1.05-1.95,1.3-3.45,1s-3.16-1.12-3-2.11C265.1,311,265.67,306.38,266.3,301.85Z" id="el_lTAPevf8Pv"/>
    <path d="M297.31,334.91c.45-1.16,1.4-1.38,3.43-.55s2.2,3.37,2.77,4.72c.58.6.9,1.56,1.82,2,3.81,2.07,7.83-1.56,8.77-3.37l.39-.78a45.63,45.63,0,0,0,2.25-5.17c-1.53,1.42-8.86-1.29-11.13-2.25-9.32-4-7.92-10.2-6.26-14.78,2.18-6.07,4.22-9.76,7.9-15.73.38-.73,2.32-.52,3.49-.07,2.36.92,3.75,2.81,3.19,3.9-1.64,3.08-4.45,5.5-6.75,11.28-.23.6-.73,1.57-1.21,2.78-1.29,3.21-2.44,7.82,2,9.73,2.31,1,8.44,2.62,10.91.21q4.41-9.06,8.8-18.11c.58-1.17,2.42-1.08,4.41.15,1.1.68,2.74,2.54,2.7,3.46l-1.72,3.19c-2.87,5.34-4.21,8.68-7.09,14-1.08,2-2,3.85-2.85,5.47-4.38,8.09-6.92,10.84-12.14,10.75a13.11,13.11,0,0,1-5.85-.83l-.61-.29c-5-2.29-6.83-5.12-7.47-9Z" id="el_daP_w2kjSY"/>
    <path d="M120.75,406.85a74.44,74.44,0,0,1-6.46-7c-4.29-5.23-5.89-13.34-.75-18.29a13.1,13.1,0,0,1,10.61-3.83,3.73,3.73,0,0,1,2.24,1c.67.89,0,1.75-1.12,2.7-.87.67-2.11.58-3.38.44-1.7-.19-3.58-.29-5.24,1.21-3.33,3-2,6.81-.91,9.08,2.3,5,6.07,8.84,10.21,13s10.44,9.33,14.16,5.94c1.92-1.76,1.83-4.05,1.74-5.87-.06-1.42-.06-2.77.82-3.49.63-.51,2.91,0,3,.16a.54.54,0,0,1,.15.29c0,.35,0,.53-.06.88-.16,3.59-.17,7.55-3.37,10.51a10.68,10.68,0,0,1-4.11,2.25,9.57,9.57,0,0,1-7.59-1.16A83.36,83.36,0,0,1,120.75,406.85Z" id="el_ttnCXmCj_K"/>
    <path d="M138.1,385.94a198.34,198.34,0,0,1-11.78-17.27c-.18-.81.5-1.45,1.39-2.09l.34-.24a2.11,2.11,0,0,1,1-.46c.34,0,1.85-.1,2.15-.11l.86,1.25c1.72,2.5,3,5.14,5.39,8.57.83,1.2,1.75,2.54,2.89,3.93a3.89,3.89,0,0,1,.28-.39c1.75-2.78,3.93-6.63,7.21-8.57l.39-.23a13.55,13.55,0,0,1,5.09-1.5c8.65-.51,13.89,16.82,17,22.51.37.72,0,2.8-.94,3.28-.53.28-1.82.85-2.42.5-3.23-6.07-4.84-9.05-8.05-15.1-.25-.48-2.25-3.42-2.79-4.21-1-1.55-3.13-4-6.07-2.27a15.6,15.6,0,0,0-1.77,1.24c-2.1,2.29-5.35,6.92-4.77,9.67.19.27,1,1.6,1.21,1.87,1.9,2.76,4,5.39,5.94,8.13.4.58,3.86,4.83,4.72,5.88l.3.45a2.21,2.21,0,0,1-.62,2.81c-1.11.78-2,.79-2.85,0C147.18,398,142.54,391.92,138.1,385.94Z" id="el_wQ6LTKXikY"/>
    <path d="M170.7,375.8c-1.35-2.88-3-5.82-4.35-8.77-.28-.68-.67-1.26-.94-2a5.74,5.74,0,0,1-.6-3.75s.07-.21.14-.25l1.11-.47c2.77-1.18,3.56.55,4.4,2,.2.37.77,1.34,1,1.24,1.2-2.11,3.85-4.32,6-5.85a9.64,9.64,0,0,1,2.58-1.2l.77-.25c3.26-1,4.78.14,6.86,1.69.05.16.34,1,.39,1.13.08.32.23,1.12.24,1.17a5.8,5.8,0,0,1-.13,1.1c-.14,1.61.23,3.12-2.11,3.83a2.91,2.91,0,0,1-2.65-.32l-.27-.82c-.36-1.14-.28-2.3-.64-3.43l-.1-.31c-.06-.21-.19-.39-.61-.26-3.45,1.1-8.09,5.31-8.57,8.48a22.39,22.39,0,0,0,1.18,3.49c1.27,3.17,3.17,7.36,3.85,9.07.07.16.11.24.17.4.62,1.56,1.6,3,2.22,4.54a2,2,0,0,1-1.35,2.36c-.85.35-2.26.41-2.7-.51C174.67,384.09,172.66,379.94,170.7,375.8Z" id="el_PdTRb3rInqK"/>
    <path d="M198.16,378.36c-2-8.43-3.7-16.93-5.4-25.42.05-.46.9-.71,1.48-.84l.29-.07c.73-.15,2.9-.27,3.08.58q2.79,13.77,5.59,27.58c-.06,1.56-.23,1.91-2.1,2.32-.81.18-2-.15-2.22-1Zm-4.09-37.29c1.7-.36,2.57.36,2.76,1.35a3.41,3.41,0,0,1-2.57,3.72c-.9.19-2.12.12-2.53-.72-.57-1.18-.84-3.69,2.34-4.35Z" id="el_H6Ml2Uh78W9"/>
    <path d="M209.7,373.91H210c2.57.23,2.3,3.57,5.64,3.23a5.15,5.15,0,0,0,4.67-5.28v-.22c-.32-3-4.64-8.45-7.32-10.88-2.21-2-5.25-3.7-5.64-6.43-.05-.41-.08-.61-.14-1-.3-2.58,2.58-5.19,6.37-5.55l.52-.05c3.05-.29,10,1.48,10.28,4.18.07.81-.61,1.35-1.9,1.42-2.65.12-4.34-2.39-7.82-2.07a2.41,2.41,0,0,0-1.89,2.26c.25,2,3,3.67,4.46,5.18a49.83,49.83,0,0,1,4.45,5.29l.14.21c1.66,2.25,3.29,4.91,3.5,7.5V372c.13,4.54-4.76,8.2-9.77,8.76-2.78.29-7.08-1.87-7.5-4.3A2.48,2.48,0,0,1,209.7,373.91Z" id="el_hDnUT3zJqeY"/>
    <path d="M232.85,352.47a13.37,13.37,0,0,0,0-1.79,2,2,0,0,0-1.6-.46c-.67,0-1.35-.12-2.2-1.74v-.22c1.26-1.3,2.24-1.18,4.11-1.52,0,0,.23-.1.23-.16.63-4,1-7.34,1.81-11.46.6-.9,1.09-1.05,2.54-1,2.41.12,2.77.81,2.7,2.43-.2,3-1,6.07-1.2,9.14V347l.21.23,1.71.12c1.05.08,2.55.09,4.05.23,2.9.29,5.82,1.06,5.53,3.21-.17,1.23-1.69,1-3.21.85l-.51-.06c-1.16-.12-3.48-.41-5.4-.56a15.84,15.84,0,0,0-2.84-.08l-.31.14a67.45,67.45,0,0,0-.67,7c-.2,3.45-.28,7.19-.48,10.7-.07,1.19-.24,2.42-.26,3.37,0,2.52.25,4.41,3.71,4.72,4.45.38,4.64-2.76,7.5-2.37a2.1,2.1,0,0,1,1.71,2.42.51.51,0,0,1,0,.13l-.12.68c-2.25,1.73-6.07,3.37-9.24,3.13-3.6-.32-6.6-1.88-7.48-5.4-.9-6.42-.52-13.18-.36-19.61C232.72,355.28,232.82,353.83,232.85,352.47Z" id="el_nl8Z3rrqpaL"/>
    <path d="M254.16,377.38c1.31-7.21,2.16-14.61,3.41-21.89.11-.59.17-.89.28-1.49s.19-1,.12-1.07l0-.22c.22-1.17,2-1,3.26-.58.68.21,1.47,1.3,1.7,1.63a2.46,2.46,0,0,1-.11,1.14c-.08.42-.16.79.05.84,3.74-.84,6.74-2.06,11-.84,4.05,1.17,5.3,6,5.44,6,3.57-.57,6.81-1,10.74.5,5.81,2.18,4.15,8.76,2.77,11.68l-.11.24c-2.07,4.24-4.44,8.69-6.47,13.06-.3.63-.4,1.3-.73,2-.71,1.53-1.59,3.12-3.81,2.13-.67-.29-1.64-1.24-1.35-2a3.14,3.14,0,0,1,.68-.9c.38-.89.57-1.35,1-2.24,1.59-3.73,3.37-7.38,4.95-11.06l1.67-3.89c.58-1.52,1.58-4-.11-5.85-2.36-1-9.12-1.87-9.74-.08l-2.82,8c-.95,2.76-2,5.76-2.94,8.38-.47,1.38-.89,2.69-1.22,3.75s-1.74,1.35-3.17.89a2.38,2.38,0,0,1-.87-3.1l.12-.42c.56-1.41,2.06-5.88,3.46-10.43a95.33,95.33,0,0,0,2.57-10.11c.15-.87.28-2.93-1.4-3.41-2.7-.78-9.95,1.55-10.9,2.89-.08.37-.57,2.32-.67,2.7-1.26,5.77-2.15,11.61-3.41,17.32-.14.63-1.68,1.19-2.32,1.06s-1.78-.91-1.7-1.66C253.63,379.45,254,378.38,254.16,377.38Z" id="el_vpBIkk-9FO_"/>
    <path d="M297.61,397.83l-.21-.14c-4.28-2.63-7-7.63-4.84-11.86l.19-.39c5.05-7.72,13.94-3.7,19.89.45l1,.67a7.48,7.48,0,0,0,.95-3.93c.15-3.62-1-5.92-4.95-8.3l-.52-.3c-1.4-.84-3-.53-4.51-1.35-.58-.32-2.2-1.19-2.23-1.76l.38-.71c1.15-2.16,6.2-.07,8.54,1.2l.45.28c9.11,5.54,9.65,14.53,3.52,22.47L313.12,397c-1.75,2.34-4.18,6.33-5.39,6.7a3.18,3.18,0,0,1-2.7-.37c-2.28-1.64-.28-2.32-.75-2.86C301.92,400.29,299.49,398.89,297.61,397.83Zm1.91-3c2.22,1.35,5.09,2.7,7.62,2.16l.46-.67c.92-1.35,2-2.63,2.93-4l.4-.57c.34-.49,1-1.6,1.06-1.64-.05-.22-.07-.33-.13-.55,0,0-.91-.92-1.35-1.25s-.92-.75-1.44-1.09c-3.89-2.56-9.8-3.59-11.92-.21-1.36,2.19-.29,6.12,2.37,7.76Z" id="el_Hf0LWQK68m2"/>
    <path d="M316.37,404c.06,0,.13.17.18.21,1.65,2.16-1.05,4.16,1.6,6.56a5.35,5.35,0,0,0,7.3.22l.16-.16c2-2.21,3-9.29,2.91-13-.1-3.07-1-6.57.81-8.69l.67-.79c1.73-1.94,5.72-1.43,8.71,1.32l.41.38c2.39,2.22,6.07,9,4.25,11-.55.6-1.47.41-2.44-.58-2-2.07-1.35-5.08-4-7.63a2.49,2.49,0,0,0-3,0c-1.35,1.52-.64,4.78-.68,7a51,51,0,0,1-.77,7.06.39.39,0,0,1-.06.25c-.49,2.81-1.31,5.9-3.11,7.78l-.23.22c-3.31,3.11-9.59,1.57-13.58-2-2.2-2-3.63-6.75-2.11-8.71A2.41,2.41,0,0,1,316.37,404Z" id="el_a9ERi6WXG4k"/>
  </g>
  <g id="el_t97vbu-llmt">
    <path d="M163.84,287.38c-3.15,7.12-6,14.16-8.65,21.46-.85,1.35-1.51,3.09-3.23,3.8a5.63,5.63,0,0,1-3.73.23c-2.57-1.49-5-3.15-7.42-4.82a51.88,51.88,0,0,0-9.95-5.56c-.07.09-.05.14,1.06,2.37s3.37,6.66,7.7,15.28c1.28,2.55,3.37,5.89,4.33,8.92.28.91.3,2.25-1.83,3.37-2.28,1.18-3.27.05-3.87-1.2-.83-1.73-1.7-3.58-2.85-5.73-1.71-3.19-4-7.21-7.34-13.48-2.56-4.78-5.68-9.52-8.15-13.33-.59-.92,2.36-3.16,4.16-4.08a3.82,3.82,0,0,1,1.26-.46c2.7-.33,3.6.21,7,2.26l.56.39c5.58,3.44,11.24,6.75,16.85,10.19.05.1.14.06.23,0,.23-.68.35-1.06.59-1.76,3.08-8.49,6.74-16.69,10.55-24.87a5.45,5.45,0,0,1,4.14-3.44c1.27-.37,3.93.13,4.13.86.51,1.88.77,2.82,1.29,4.72,3.2,11.66,6.69,23.25,10.11,34.84.17.63-1.47,1.8-2.93,2.23-.87.25-1.71.27-2.16-.32Q169.88,303.23,163.84,287.38Z" id="el_B5CvEjqnSwx"/>
    <path d="M204.12,281.62c6.6-1,15.51,1.95,16.62,9.54,0,.63,0,.94.07,1.56-1.35,4.78-7.58,5.6-13.4,6.28-1.71.2-2.57.31-4.28.54-3.33.46-6.49.8-9.7,1.4.62,3.3,3.19,9.55,11.06,8.47a17.91,17.91,0,0,0,9.26-3.93c1.11-1.14.93-2.16,3.27-2.33,1-.08,3.83,0,3.88.79.22,4.16-9.05,7.82-14.83,8.86-8.47,1.52-17.76-2.45-19.56-11.17C184.3,291.09,194.19,283.07,204.12,281.62Zm-9.26,15.27c4.6-.81,6.9-1.15,11.52-1.69,3.68-.45,7.51-1.58,7.32-3.9a7.68,7.68,0,0,0-8.44-6.27c-7.93.94-13.07,7.67-12.38,11.34C193,297.27,193.52,296.74,194.86,296.89Z" id="el_UE-E69arJpP"/>
    <path d="M228.22,295.33c-.16-3.17-.7-6.54-.76-9.79,0-.67-.13-1.4-.15-2.16a4.63,4.63,0,0,1,1.28-3.7,1,1,0,0,1,.32-.17h1.66c4.17,0,4.26,1.93,4.53,3.6.06.41.28,1.52.59,1.52,2.7-1.46,7.25-2.43,10.79-2.95a17.3,17.3,0,0,1,3.94,0l1.14.09c4.72.42,6.13,2.15,8.09,4.47a9.48,9.48,0,0,1,0,1.19c0,.32-.24,1.12-.25,1.17a5.58,5.58,0,0,1-.73.95c-1,1.4-1.26,2.92-4.72,2.56a5,5,0,0,1-3.37-1.41,6.4,6.4,0,0,1,.08-.86c.1-1.18.8-2.21.91-3.37v-.32c0-.22-.07-.45-.68-.49-5.07-.45-13.3,1.55-15.64,4.27a15.68,15.68,0,0,0-.35,3.68c-.06,3.41.16,8,.12,9.85v.43c0,1.68.5,3.37.46,5,0,1.09-1.65,1.65-3.18,1.65-1.35,0-3.3-.51-3.37-1.5C228.8,304.51,228.46,299.87,228.22,295.33Z" id="el_I7jYzoqu0dM"/>
    <path d="M268.66,298.54c.45-3.15.57-6.56,1.13-9.75.12-.68.15-1.41.28-2.16a4.61,4.61,0,0,1,2-3.37.83.83,0,0,1,.34-.1l1.65.31c4.1.78,3.82,2.69,3.76,4.39,0,.42,0,1.55.29,1.61,2.92-.92,7.61-1,11.23-.81a18.5,18.5,0,0,1,3.9.73l1.11.32c4.6,1.35,5.65,3.29,7.14,6,0,.16-.23,1-.27,1.17-.11.31-.46,1.05-.47,1.1a6.15,6.15,0,0,1-.91.78c-1.25,1.19-1.81,2.63-5.15,1.61a5.16,5.16,0,0,1-3.05-2l.24-.83c.34-1.14,1.23-2,1.56-3.16l.09-.31c.06-.21,0-.44-.57-.61-4.93-1.42-13.43-1.05-16.25,1.18a15,15,0,0,0-1.06,3.54c-.67,3.33-1.39,7.89-1.77,9.69l-.09.42c-.35,1.65-.16,3.38-.52,5-.23,1.06-1.94,1.3-3.44,1s-3.16-1.13-3-2.12C267.46,307.69,268,303.07,268.66,298.54Z" id="el_PGcTBWhYBsp"/>
    <path d="M299.68,331.6c.45-1.16,1.39-1.38,3.43-.55s2.2,3.37,2.76,4.72c.58.62.91,1.56,1.83,2.07,3.8,2.06,7.82-1.57,8.77-3.41l.38-.77a44.78,44.78,0,0,0,2.25-5.18c-1.53,1.43-8.86-1.28-11.12-2.24-9.32-4-7.93-10.2-6.27-14.79a75.74,75.74,0,0,1,7.9-15.73c.38-.72,2.32-.52,3.5-.06,2.35.91,3.75,2.8,3.18,3.89-1.63,3.09-4.45,5.5-6.75,11.28-.24.6-.73,1.57-1.21,2.78-1.29,3.21-2.44,7.83,2,9.74,2.31,1,8.44,2.61,10.91.2q4.41-9,8.8-18.11c.58-1.16,2.41-1.08,4.41.16,1.1.67,2.73,2.53,2.69,3.45-.67,1.28-1,1.91-1.71,3.2-2.87,5.34-4.21,8.67-7.09,14-1.08,2-2,3.86-2.86,5.47-4.37,8.1-6.91,10.84-12.13,10.76a13.11,13.11,0,0,1-5.85-.84l-.62-.28c-5-2.3-6.83-5.13-7.46-9Z" id="el_Ydg4uduFdDc"/>
    <path d="M123.12,403.54a75.92,75.92,0,0,1-6.47-7c-4.28-5.22-5.89-13.34-.74-18.29a13.08,13.08,0,0,1,10.6-3.83,3.68,3.68,0,0,1,2.24,1c.67.9.06,1.75-1.12,2.7-.87.67-2.11.58-3.37.44-1.7-.19-3.59-.28-5.25,1.21-3.33,3-2,6.82-.91,9.08,2.3,5,6.07,8.84,10.21,13s10.45,9.32,14.16,5.94c1.91-1.76,1.83-4.05,1.74-5.87-.07-1.42-.06-2.78.82-3.49.62-.51,2.91,0,3,.15a.85.85,0,0,1,.15.3c0,.35,0,.53-.06.88-.17,3.59-.17,7.55-3.38,10.5a10.38,10.38,0,0,1-4.11,2.26,9.56,9.56,0,0,1-7.5-1.16A84.31,84.31,0,0,1,123.12,403.54Z" id="el_KY3j4qfdVJh"/>
    <path d="M140.46,382.63a198.34,198.34,0,0,1-11.78-17.27c-.18-.81.5-1.45,1.39-2.09l.35-.24a2,2,0,0,1,1-.45c.35,0,1.86-.11,2.16-.12l.85,1.25c1.72,2.5,3.05,5.14,5.4,8.57.83,1.2,1.75,2.54,2.88,3.93a2.82,2.82,0,0,1,.29-.39c1.74-2.78,3.92-6.63,7.2-8.57l.4-.23a13.58,13.58,0,0,1,5.06-1.49c8.67-.52,13.89,16.82,17,22.5.36.73,0,2.8-.94,3.28-.54.29-1.82.86-2.44.51-3.22-6.07-4.83-9.06-8-15.1-.27-.47-2.26-3.42-2.8-4.21-1-1.55-3.13-4-6.07-2.27a13.4,13.4,0,0,0-1.77,1.24c-2.1,2.29-5.35,6.91-4.77,9.67.19.26,1,1.6,1.2,1.87,1.91,2.76,4.05,5.39,6,8.13.39.58,3.86,4.83,4.72,5.88l.3.45a2.21,2.21,0,0,1-.63,2.81c-1.11.78-2,.79-2.85,0C149.54,394.66,144.9,388.61,140.46,382.63Z" id="el_EAXttV2-uK0"/>
    <path d="M173.06,372.49c-1.35-2.88-3-5.82-4.35-8.77-.28-.67-.63-1.26-.94-1.94a5.73,5.73,0,0,1-.59-3.77s.06-.21.14-.23l1.1-.48c2.78-1.18,3.57.54,4.41,2,.2.37.77,1.35,1,1.24,1.2-2.11,3.84-4.31,6-5.85a9.42,9.42,0,0,1,2.57-1.2l.78-.25c3.25-1,4.77.13,6.86,1.69,0,.16.34,1,.38,1.13.09.31.24,1.12.25,1.17a6,6,0,0,1-.14,1.11c-.14,1.61.23,3.11-2.11,3.81a2.87,2.87,0,0,1-2.65-.31c-.1-.33-.16-.49-.26-.82-.36-1.13-.28-2.3-.67-3.43l-.1-.31c-.07-.21-.2-.39-.61-.26-3.45,1.1-8.09,5.32-8.57,8.48A21.72,21.72,0,0,0,176.7,369c1.27,3.16,3.17,7.37,3.85,9.07l.17.41c.62,1.55,1.59,3,2.21,4.53a1.93,1.93,0,0,1-1.35,2.36c-.84.35-2.26.41-2.7-.51C177,380.78,175,376.64,173.06,372.49Z" id="el_lWb3vwV-KWL"/>
    <path d="M200.52,375.05c-2-8.43-3.69-16.92-5.39-25.43,0-.45.9-.67,1.48-.83l.29-.06c.73-.16,2.9-.29,3.07.56q2.79,13.8,5.59,27.59c-.05,1.56-.22,1.91-2.09,2.33-.82.18-2-.16-2.23-1C200.93,376.92,200.81,376.29,200.52,375.05Zm-4.08-37.29c1.7-.36,2.57.36,2.75,1.34a3.41,3.41,0,0,1-2.56,3.73c-.9.19-2.12.12-2.53-.71-.58-1.19-.85-3.7,2.34-4.36Z" id="el_nsBYyVyhlxH"/>
    <path d="M212.07,370.6h.26c2.58.23,2.3,3.58,5.64,3.23a5.14,5.14,0,0,0,4.67-5.28v-.21c-.32-3-4.63-8.47-7.32-10.88-2.21-2-5.24-3.71-5.63-6.44l-.15-1c-.29-2.58,2.59-5.18,6.37-5.55l.53-.05c3-.28,10,1.48,10.27,4.18.08.81-.6,1.35-1.9,1.42-2.65.12-4.33-2.39-7.82-2.07a2.4,2.4,0,0,0-1.89,2.25c.25,2,3,3.69,4.46,5.19a49.83,49.83,0,0,1,4.45,5.29l.15.21c1.65,2.25,3.28,4.9,3.48,7.5v.32c.13,4.55-4.75,8.2-9.77,8.77-2.78.3-7.07-1.87-7.49-4.3A2.52,2.52,0,0,1,212.07,370.6Z" id="el_eS2fi-l5f1_"/>
    <path d="M235.22,349.16a15.28,15.28,0,0,0,0-1.79,2,2,0,0,0-1.59-.46c-.68,0-1.35-.12-2.2-1.74V345c1.26-1.3,2.23-1.19,4.11-1.52,0,0,.22-.1.23-.16.62-4,1-7.33,1.81-11.46.59-.91,1.08-1.05,2.53-1,2.42.13,2.78.81,2.7,2.43-.2,3-1,6.07-1.19,9.15v1.3l.21.23,1.71.11c1,.08,2.54.1,4.05.24,2.9.29,5.81,1.06,5.52,3.2-.17,1.23-1.68,1-3.21.86l-.5-.06c-1.16-.13-3.48-.42-5.4-.56a16.83,16.83,0,0,0-2.84-.09l-.3.15a67.26,67.26,0,0,0-.67,7c-.2,3.46-.27,7.19-.48,10.71-.06,1.18-.24,2.42-.25,3.37,0,2.51.23,4.41,3.71,4.72,4.43.38,4.63-2.76,7.48-2.37a2.11,2.11,0,0,1,1.72,2.42.61.61,0,0,1,0,.13c0,.28-.06.42-.1.68-2.26,1.73-6.07,3.4-9.25,3.13-3.59-.32-6.59-1.88-7.48-5.4-.9-6.42-.52-13.18-.35-19.6C235.08,352,235.18,350.51,235.22,349.16Z" id="el_RaQI9iQJhCB"/>
    <path d="M256.52,374.07c1.31-7.21,2.16-14.61,3.42-21.88l.27-1.49a3.05,3.05,0,0,0,.13-1.08l0-.22c.21-1.16,2-1,3.26-.58.67.2,1.46,1.3,1.69,1.63a2.46,2.46,0,0,1-.1,1.14c-.09.42-.17.79,0,.84,3.75-.84,6.75-2.06,11-.84,4.05,1.17,5.29,6,5.4,6,3.56-.57,6.81-1,10.74.49,5.82,2.19,4.15,8.77,2.77,11.69L295,370c-2.06,4.24-4.43,8.69-6.46,13.06-.3.67-.4,1.31-.72,2-.71,1.52-1.6,3.11-3.81,2.13-.68-.29-1.65-1.25-1.35-2a2.94,2.94,0,0,1,.67-.9c.38-.89.57-1.35,1-2.24,1.59-3.73,3.37-7.41,5-11.07l1.66-3.88c.57-1.52,1.57-4-.11-5.86-2.36-1-9.12-1.86-9.73-.07-1.14,3.2-1.7,4.81-2.83,8-.94,2.77-2,5.77-2.94,8.38-.47,1.35-.89,2.7-1.22,3.76s-1.73,1.35-3.17.9a2.43,2.43,0,0,1-.88-3.11l.13-.42c.56-1.41,2.07-5.87,3.46-10.43a100.57,100.57,0,0,0,2.57-10.08c.15-.87.28-2.92-1.4-3.41-2.7-.78-10,1.55-10.89,2.9-.08.36-.58,2.31-.68,2.7-1.25,5.76-2.14,11.61-3.41,17.31-.13.64-1.67,1.2-2.31,1.06s-1.79-.89-1.7-1.65C256,376.14,256.34,375.07,256.52,374.07Z" id="el_UVbShe90vtf"/>
    <path d="M300,394.49l-.21-.13c-4.28-2.64-7-7.63-4.85-11.87l.2-.38c5.05-7.72,13.94-3.7,19.88.44l1,.68a7.37,7.37,0,0,0,.95-4c.16-3.62-1-5.92-4.95-8.29l-.51-.31c-1.41-.83-3-.52-4.52-1.34-.58-.33-2.19-1.2-2.23-1.77l.39-.72c1.14-2.15,6.19-.06,8.53,1.21l.45.28c9.11,5.54,9.65,14.54,3.52,22.47l-2.15,2.86c-1.75,2.33-4.18,6.32-5.39,6.69a3.18,3.18,0,0,1-2.7-.37c-2.28-1.64-.28-2.33-.75-2.85C304.28,397,301.86,395.58,300,394.49Zm1.9-3c2.23,1.35,5.09,2.7,7.62,2.16.18-.27.28-.4.46-.68.93-1.35,2-2.63,2.93-4l.4-.58c.35-.48,1-1.59,1.06-1.64l-.12-.54s-.92-.93-1.35-1.25-.92-.75-1.44-1.1c-3.89-2.56-9.8-3.59-11.91-.21C298.15,386,299.23,389.88,301.88,391.53Z" id="el_7gqhlII6pSC"/>
    <path d="M318.74,400.69c.05,0,.12.16.17.2,1.65,2.17-1.05,4.17,1.6,6.58a5.36,5.36,0,0,0,7.31.21l.15-.16c2-2.22,3-9.29,2.91-13-.09-3.07-1-6.57.81-8.69l.67-.79c1.73-1.94,5.73-1.43,8.71,1.35l.42.38c2.39,2.22,6.06,9,4.24,11-.55.59-1.47.42-2.44-.59-2-2.06-1.35-5.08-4-7.62a2.46,2.46,0,0,0-3,0c-1.35,1.53-.63,4.78-.68,7a50.64,50.64,0,0,1-.77,7.06,1.11,1.11,0,0,1-.05.25c-.49,2.82-1.31,5.9-3.11,7.77l-.24.23c-3.31,3.11-9.58,1.57-13.57-2-2.21-2-3.63-6.74-2.11-8.7A2.39,2.39,0,0,1,318.74,400.69Z" id="el_OyZyGSBeBhS"/>
  </g>
</svg>