<svg xmlns="http://www.w3.org/2000/svg" xmlns:xlink="http://www.w3.org/1999/xlink" width="473.68" height="662.48" viewBox="0 0 473.68 662.48">
  <defs>
    <style>
      .a {
        fill: #d6b59a;
      }

      .b {
        fill: none;
      }

      .c {
        fill: url(#a);
      }

      .d, .e, .f {
        stroke: #ffe2b5;
        stroke-miterlimit: 10;
      }

      .d {
        fill: url(#b);
      }

      .e {
        fill: url(#c);
      }

      .f {
        fill: url(#d);
      }

      .g {
        fill: #30c637;
      }

      .h {
        fill: #fff;
      }
    </style>
    <radialGradient id="a" cx="950.16" cy="474.24" fx="694.2335876398874" fy="594.5147022135712" r="282.78" gradientTransform="translate(-61.38 -62.53) rotate(-5.98) scale(1 1.35)" gradientUnits="userSpaceOnUse">
      <stop offset="0.38" stop-color="#fc0000"/>
      <stop offset="0.43" stop-color="#f20000"/>
      <stop offset="0.52" stop-color="#d70000"/>
      <stop offset="0.64" stop-color="#ab0000"/>
      <stop offset="0.78" stop-color="#6e0000"/>
      <stop offset="0.94" stop-color="#200"/>
      <stop offset="1"/>
    </radialGradient>
    <linearGradient id="b" x1="800.19" y1="121.5" x2="857.61" y2="121.5" gradientUnits="userSpaceOnUse">
      <stop offset="0" stop-color="#fff"/>
      <stop offset="0.15" stop-color="#fefcf9"/>
      <stop offset="0.35" stop-color="#fdf4e9"/>
      <stop offset="0.57" stop-color="#fbe6ce"/>
      <stop offset="0.81" stop-color="#f7d3a9"/>
      <stop offset="1" stop-color="#f4c287"/>
    </linearGradient>
    <linearGradient id="c" x1="890.87" y1="167.44" x2="940.12" y2="167.44" gradientUnits="userSpaceOnUse">
      <stop offset="0" stop-color="#fff"/>
      <stop offset="0.16" stop-color="#fffcfa"/>
      <stop offset="0.35" stop-color="#fdf5ec"/>
      <stop offset="0.56" stop-color="#fbe9d4"/>
      <stop offset="0.77" stop-color="#f8d8b2"/>
      <stop offset="1" stop-color="#f4c288"/>
      <stop offset="1" stop-color="#f4c287"/>
    </linearGradient>
    <linearGradient id="d" x1="965.81" y1="146.18" x2="1028.42" y2="146.18" gradientUnits="userSpaceOnUse">
      <stop offset="0" stop-color="#fff"/>
      <stop offset="0.2" stop-color="#fffdfb"/>
      <stop offset="0.38" stop-color="#fef8f1"/>
      <stop offset="0.55" stop-color="#fceede"/>
      <stop offset="0.72" stop-color="#fae1c5"/>
      <stop offset="0.88" stop-color="#f7d1a4"/>
      <stop offset="1" stop-color="#f4c287"/>
    </linearGradient>
  </defs>
  <title>mug</title>
  <ellipse class="a" cx="202.58" cy="268.23" rx="178.75" ry="22.43"/>
  <ellipse class="b" cx="202.58" cy="268.23" rx="178.75" ry="22.43"/>
  <path class="b" d="M1163.92,426.34c-3-17.08-7.3-41.26-25.14-53.42-1.06-.72-10.23-6.81-20.3-8V587.72c1-.82,1.69-1.56,2.14-2,12-12.16,24.3-13.77,33.24-24.9,3.38-4.2,4.32-7.32,8.17-44.73,4.24-41.14,4.55-51.5,4.15-63.17C1165.82,442.4,1165.59,435.74,1163.92,426.34Z" transform="translate(-713.32 -31.52)"/>
  <path class="c" d="M1186.82,448.08c-.49-14.29-.8-23.37-3.07-36.17-4.12-23.27-10-56.21-34.26-72.77-1.56-1.06-16-10.68-31-11.14V290.94h-.72c-1-20.16-91.17-36.45-202.21-36.45-111.69,0-202.23,16.47-202.23,36.8a7.33,7.33,0,0,0,.7,3.06v363.2h0c1,20.16,91.16,36.45,202.21,36.45s201.17-16.29,202.21-36.45h0V634.23a34.62,34.62,0,0,0,6.28-5.23c16.34-16.56,33.1-18.76,45.29-33.93,4.59-5.71,5.88-10,11.12-60.93C1186.94,478.09,1187.37,464,1186.82,448.08ZM915.9,278.32c98.72,0,178.75,10,178.75,22.43s-80,22.43-178.75,22.43-178.75-10-178.75-22.43S817.18,278.32,915.9,278.32ZM1162,517.07c-3.85,37.41-4.79,40.53-8.17,44.73-8.94,11.13-21.24,12.74-33.24,24.9-.45.46-1.17,1.2-2.14,2V365.93c10.07,1.18,19.24,7.27,20.3,8,17.84,12.16,22.12,36.34,25.14,53.42,1.67,9.4,1.9,16.06,2.26,26.56C1166.58,465.57,1166.27,475.93,1162,517.07Z" transform="translate(-713.32 -31.52)"/>
  <path class="d" d="M826.52,32.33c-5.27,3-18.47,11.4-25.93,28-1.85,4.11-6.6,15.08-4.91,28.74.66,5.3,2.55,10.15,6.31,19.63a263.91,263.91,0,0,0,11.22,24.53c11.52,22.18,15.21,23,16.82,32.95.56,3.47,2.07,13.67-2.8,23.83-6.41,13.37-19.33,17.21-18.23,19.63s14.74.56,25.94-7c3.65-2.48,11.39-7.87,15.42-18.23,5.71-14.69-.42-28.17-2.11-31.54-2.82-5.63-3.91-4.33-9.81-13.32a109.33,109.33,0,0,1-11.92-24.53c-2-6-4.34-12.83-4.9-21.73-.85-13.44,3.09-18.27,4.9-34.35A119.82,119.82,0,0,0,826.52,32.33Z" transform="translate(-713.32 -31.52)"/>
  <path class="e" d="M913.45,115.75A45.8,45.8,0,0,1,924,129.06c3.3,6.44,4,11.88,4.91,18.23,1.27,9.34,2,14.69,0,21-2.92,9.25-7.92,8.83-10.52,18.22a30.14,30.14,0,0,0,.7,18.23c2.11,5.52,5.63,9.07,9.82,13.32,7.28,7.38,11.7,8.59,11.21,10.51-.77,3.05-13,4.42-23.13,0a32,32,0,0,1-14.72-13.32c-1-1.64-6.58-11.8-3.5-23.13,2-7.29,5.75-8.42,11.21-18.22,4-7.28,6.51-11.93,7-18.23.44-5.57-.83-10.51-3.5-16.82-9.45-22.28-24.22-32.76-22.44-35C892.54,101.88,904.63,107.69,913.45,115.75Z" transform="translate(-713.32 -31.52)"/>
  <path class="f" d="M989.85,84.9a50.48,50.48,0,0,0-16.12,15.42c-.71,1.11-12.88,20.64-5.61,39.26,1.94,4.95,5.73,9.38,13.32,18.22,9.82,11.46,12.94,11.84,15.42,18.23a29.9,29.9,0,0,1-2.1,25.24c-6.92,12-22.24,12.11-21.73,14.72s17.1,4.41,30.14-3.51c3-1.81,7.32-4.52,9.81-9.81,3.09-6.55,1.53-13.15,0-19.63a55.71,55.71,0,0,0-6.3-15.42c-1.84-3.19-5.23-7.55-11.92-16.12-6-7.75-6.61-8.21-7.71-10.52-2.49-5.2-2.91-9.7-3.51-16.12-.82-8.83-1.56-13.28,0-16.82.78-1.77,1.93-3.48,9.82-9.82a159.75,159.75,0,0,1,16.12-11.91c13.42-8.62,19.27-10,18.93-11.22C1027.78,73,1007.47,73.48,989.85,84.9Z" transform="translate(-713.32 -31.52)"/>
  <g>
    <path class="g" d="M814.46,395.12c-4.69,10.55-8.89,21-12.83,31.82-1.28,2-2.25,4.59-4.79,5.64a8.33,8.33,0,0,1-5.54.34c-3.81-2.2-7.37-4.66-11-7.14a76.13,76.13,0,0,0-14.75-8.25c-.11.14-.07.21,1.57,3.52s5,9.88,11.43,22.65c1.9,3.79,5,8.73,6.41,13.22.41,1.36.45,3.34-2.7,5-3.39,1.76-4.86.09-5.75-1.78-1.23-2.56-2.52-5.29-4.23-8.48-2.54-4.74-5.88-10.69-10.89-20-3.79-7.08-8.41-14.11-12.07-19.76-.89-1.37,3.5-4.69,6.15-6a5.72,5.72,0,0,1,1.88-.68c4-.49,5.34.3,10.36,3.33l.81.6c8.29,5.1,16.68,10,25,15.1.06.15.2.09.34,0,.34-1,.51-1.56.87-2.61,4.55-12.57,10-24.74,15.65-36.86,1.56-3.18,2.82-4.15,6.13-5.11,1.89-.55,5.83.2,6.12,1.28.77,2.79,1.15,4.18,1.91,7,4.75,17.29,9.92,34.46,15,51.67.25.93-2.17,2.67-4.35,3.29-1.28.37-2.52.41-3.21-.48Q823.44,418.64,814.46,395.12Z" transform="translate(-713.32 -31.52)"/>
    <path class="g" d="M874.22,386.58c9.8-1.43,23,2.89,24.64,14.14,0,.93.07,1.4.12,2.33-2,7.09-11.25,8.3-19.87,9.3-2.55.3-3.82.46-6.36.81-4.93.68-9.61,1.19-14.38,2.08.91,4.89,4.73,14.15,16.41,12.55A26.39,26.39,0,0,0,888.53,422c1.64-1.67,1.39-3.2,4.85-3.44,1.52-.11,5.69,0,5.75,1.17.33,6.17-13.42,11.6-22,13.14-12.57,2.24-26.34-3.63-29-16.56C844.83,400.62,859.49,388.74,874.22,386.58Zm-13.73,22.64c6.81-1.19,10.23-1.69,17.08-2.51,5.47-.65,11.14-2.33,10.86-5.77-.28-3.28-4.52-10.26-12.52-9.31-11.77,1.4-19.37,11.37-18.37,16.82C857.79,409.79,858.54,409,860.49,409.22Z" transform="translate(-713.32 -31.52)"/>
    <path class="g" d="M910,406.86c-.24-4.71-1-9.7-1.13-14.51,0-1.05-.19-2.09-.22-3.21a6.92,6.92,0,0,1,1.9-5.49,1.26,1.26,0,0,1,.46-.24l2.48,0c6.18,0,6.32,2.86,6.71,5.34.1.61.42,2.25.87,2.26,4-2.17,10.75-3.61,16-4.38a27.42,27.42,0,0,1,5.86-.05l1.68.15c7,.62,9.1,3.17,12,6.62,0,.24,0,1.53-.07,1.77-.06.48-.37,1.65-.38,1.73a8,8,0,0,1-1.08,1.4c-1.46,2.09-1.87,4.34-7,3.81a7.52,7.52,0,0,1-5-2.09c0-.51.07-.77.11-1.28.16-1.76,1.2-3.28,1.36-5l0-.48c0-.32-.09-.66-1-.74-7.53-.65-19.73,2.31-23.19,6.35a22.53,22.53,0,0,0-.53,5.45c-.08,5.05.23,11.88.18,14.61v.64c0,2.49.73,5,.68,7.48,0,1.6-2.45,2.44-4.71,2.43-2,0-4.9-.74-5-2.22C910.81,420.52,910.32,413.64,910,406.86Z" transform="translate(-713.32 -31.52)"/>
    <path class="g" d="M969.94,411.67c.66-4.67.83-9.72,1.67-14.46.18-1,.21-2.08.4-3.19a6.87,6.87,0,0,1,2.93-5,1.21,1.21,0,0,1,.5-.16l2.44.46c6.09,1.15,5.68,4,5.59,6.52,0,.62,0,2.29.42,2.39,4.33-1.38,11.29-1.47,16.66-1.22a27.63,27.63,0,0,1,5.79,1.09l1.63.47c6.84,2,8.38,4.89,10.61,8.84-.08.23-.34,1.5-.42,1.73-.15.45-.68,1.55-.7,1.62a8.15,8.15,0,0,1-1.34,1.17c-1.84,1.76-2.69,3.89-7.64,2.37a7.56,7.56,0,0,1-4.51-3l.35-1.24c.5-1.69,1.81-3,2.31-4.68l.13-.46c.09-.31,0-.66-.84-.91-7.31-2.11-19.91-1.55-24.1,1.75a22.73,22.73,0,0,0-1.57,5.24c-1,4.95-2,11.71-2.62,14.38-.06.25-.08.38-.14.63-.52,2.43-.24,5-.77,7.47-.34,1.57-2.88,1.93-5.11,1.48-2-.39-4.68-1.67-4.46-3.13C968.15,425.24,969,418.39,969.94,411.67Z" transform="translate(-713.32 -31.52)"/>
    <path class="g" d="M1015.92,460.7c.67-1.72,2.07-2.05,5.09-.82s3.26,5,4.1,7c.87.9,1.34,2.31,2.71,3,5.65,3.07,11.61-2.31,13-5,.23-.46.35-.69.57-1.15a65.89,65.89,0,0,0,3.34-7.67c-2.27,2.1-13.13-1.91-16.5-3.34-13.82-5.88-11.75-15.13-9.29-21.92,3.24-9,6.27-14.47,11.72-23.33.56-1.07,3.44-.77,5.18-.09,3.49,1.35,5.56,4.16,4.72,5.77-2.42,4.58-6.59,8.16-10,16.73-.35.89-1.08,2.33-1.8,4.12-1.91,4.77-3.61,11.6,3,14.44,3.42,1.48,12.52,3.88,16.17.31q6.54-13.43,13.06-26.86c.85-1.73,3.58-1.6,6.54.23,1.62,1,4.06,3.76,4,5.12l-2.55,4.74c-4.26,7.92-6.25,12.86-10.52,20.78-1.6,3-2.92,5.72-4.22,8.12-6.49,12-10.27,16.07-18,15.94a19.42,19.42,0,0,1-8.68-1.23l-.91-.43c-7.43-3.4-10.12-7.6-11.07-13.32Z" transform="translate(-713.32 -31.52)"/>
    <path class="g" d="M754.1,567.38a111.43,111.43,0,0,1-9.59-10.3c-6.36-7.76-8.73-19.79-1.11-27.13a19.4,19.4,0,0,1,15.73-5.67,5.43,5.43,0,0,1,3.32,1.46c1,1.32.08,2.59-1.66,4-1.28,1-3.13.87-5,.65-2.52-.27-5.32-.42-7.78,1.8-4.94,4.44-3,10.1-1.35,13.47,3.41,7.44,9,13.1,15.14,19.23s15.49,13.83,21,8.81c2.85-2.61,2.72-6,2.59-8.7-.1-2.11-.1-4.12,1.21-5.18.93-.76,4.32,0,4.47.23a1,1,0,0,1,.22.44c0,.52-.06.78-.09,1.3-.24,5.32-.26,11.2-5,15.58a15.83,15.83,0,0,1-6.1,3.35A14.2,14.2,0,0,1,768.85,579,124.11,124.11,0,0,1,754.1,567.38Z" transform="translate(-713.32 -31.52)"/>
    <path class="g" d="M779.82,536.38a297,297,0,0,1-17.47-25.62c-.27-1.2.75-2.15,2.06-3.09l.51-.36a3.07,3.07,0,0,1,1.51-.68c.51-.05,2.75-.16,3.19-.17l1.27,1.86c2.55,3.71,4.51,7.62,8,12.71,1.23,1.78,2.6,3.76,4.29,5.82a4.29,4.29,0,0,1,.41-.58c2.6-4.12,5.82-9.83,10.69-12.7l.58-.34A20.08,20.08,0,0,1,802.4,511c12.84-.76,20.6,24.94,25.22,33.38.54,1.07,0,4.15-1.39,4.86-.8.42-2.7,1.26-3.6.75-4.79-9-7.17-13.43-11.93-22.39-.38-.71-3.34-5.07-4.14-6.25-1.56-2.29-4.64-5.93-9-3.37a21.77,21.77,0,0,0-2.62,1.85c-3.12,3.39-7.94,10.25-7.08,14.33.28.4,1.51,2.38,1.79,2.77,2.82,4.1,6,8,8.81,12.07.59.86,5.73,7.16,7,8.72l.45.66a3.27,3.27,0,0,1-.92,4.16c-1.65,1.17-3,1.18-4.23,0C793.28,554.22,786.4,545.24,779.82,536.38Z" transform="translate(-713.32 -31.52)"/>
    <path class="g" d="M828.17,521.33c-2-4.26-4.5-8.63-6.45-13-.42-1-1-1.87-1.4-2.9a8.49,8.49,0,0,1-.89-5.57s.11-.31.21-.36l1.65-.7c4.11-1.76,5.28.81,6.52,3,.3.55,1.14,2,1.44,1.85,1.78-3.13,5.71-6.41,8.88-8.68a14.45,14.45,0,0,1,3.82-1.78l1.15-.37c4.83-1.54,7.08.2,10.17,2.51.07.23.51,1.44.58,1.67.12.47.34,1.66.36,1.73a8.54,8.54,0,0,1-.2,1.64c-.2,2.39.34,4.63-3.12,5.67a4.35,4.35,0,0,1-3.94-.46c-.16-.49-.23-.74-.39-1.23-.54-1.68-.42-3.4-.95-5.08l-.15-.46c-.09-.31-.29-.58-.91-.39-5.12,1.64-12,7.88-12.7,12.58a32,32,0,0,0,1.74,5.18c1.89,4.69,4.71,10.91,5.72,13.45.1.24.15.35.24.59.93,2.31,2.37,4.42,3.29,6.73.59,1.49-.59,2.91-2,3.5-1.25.52-3.34.61-4-.75C834.06,533.63,831.07,527.48,828.17,521.33Z" transform="translate(-713.32 -31.52)"/>
    <path class="g" d="M868.88,525.14c-3-12.51-5.48-25.11-8-37.71.07-.68,1.34-1.05,2.2-1.24l.43-.1c1.08-.23,4.3-.41,4.56.85q4.14,20.44,8.29,40.91c-.09,2.31-.34,2.83-3.11,3.44-1.21.27-3-.22-3.29-1.55Zm-6.06-55.31c2.53-.53,3.82.54,4.1,2a5.07,5.07,0,0,1-3.81,5.52c-1.34.29-3.15.18-3.76-1.06C858.5,474.54,858.1,470.81,862.82,469.83Z" transform="translate(-713.32 -31.52)"/>
    <path class="g" d="M886,518.53c.09,0,.29,0,.38,0,3.82.35,3.42,5.3,8.37,4.79a7.62,7.62,0,0,0,6.92-7.83l0-.32c-.47-4.39-6.87-12.54-10.85-16.13-3.28-2.95-7.78-5.49-8.36-9.54-.08-.61-.12-.91-.21-1.51-.44-3.83,3.83-7.7,9.45-8.24l.77-.07c4.52-.43,14.86,2.2,15.24,6.2.11,1.2-.9,2-2.81,2.11-3.93.17-6.44-3.55-11.61-3.07a3.57,3.57,0,0,0-2.8,3.34c.37,3,4.41,5.45,6.62,7.69a74.52,74.52,0,0,1,6.6,7.85c.08.12.13.18.21.31,2.45,3.33,4.88,7.27,5.18,11.12v.48c.2,6.74-7.05,12.16-14.49,13-4.12.43-10.49-2.78-11.11-6.38C883.27,521,884.44,518.76,886,518.53Z" transform="translate(-713.32 -31.52)"/>
    <path class="g" d="M920.33,486.74a18.88,18.88,0,0,0,0-2.65,3,3,0,0,0-2.37-.68c-1,0-2-.18-3.26-2.59v-.32c1.86-1.93,3.31-1.76,6.09-2.26,0,0,.34-.15.34-.23.93-6,1.41-10.89,2.69-17,.88-1.33,1.61-1.55,3.76-1.45,3.58.17,4.11,1.2,4,3.6-.29,4.49-1.5,9-1.77,13.56,0,.48,0,1.85,0,1.93l.31.34,2.54.17c1.55.12,3.77.14,6,.35,4.3.42,8.63,1.57,8.2,4.75-.25,1.83-2.51,1.53-4.76,1.27l-.76-.09c-1.72-.19-5.16-.62-8-.83a24.22,24.22,0,0,0-4.22-.13l-.45.21a100.28,100.28,0,0,0-1,10.32c-.29,5.12-.41,10.66-.71,15.87-.1,1.77-.35,3.59-.38,5-.06,3.73.36,6.54,5.5,7,6.59.56,6.88-4.1,11.11-3.51a3.11,3.11,0,0,1,2.51,3.78l-.17,1c-3.34,2.57-9,5-13.7,4.64-5.34-.47-9.79-2.78-11.1-8-1.34-9.52-.77-19.54-.53-29.08C920.14,490.91,920.29,488.75,920.33,486.74Z" transform="translate(-713.32 -31.52)"/>
    <path class="g" d="M951.93,523.68c1.94-10.69,3.2-21.67,5.06-32.46.16-.88.25-1.32.41-2.21s.28-1.5.18-1.59l.06-.32c.32-1.74,3-1.46,4.84-.86,1,.3,2.17,1.93,2.51,2.41a3.74,3.74,0,0,1-.15,1.69c-.13.63-.25,1.18.06,1.25,5.56-1.25,10-3.06,16.28-1.25,6,1.74,7.85,8.84,8.06,8.91,5.29-.84,10.1-1.46,15.93.74,8.62,3.24,6.15,13,4.11,17.33l-.17.36c-3.06,6.28-6.58,12.88-9.59,19.36-.45.94-.6,1.93-1.08,3-1.05,2.26-2.36,4.62-5.65,3.16-1-.43-2.44-1.84-2-2.95a4.67,4.67,0,0,1,1-1.34c.57-1.32.85-2,1.42-3.32,2.37-5.53,5-10.95,7.35-16.41l2.47-5.76c.86-2.25,2.34-5.93-.16-8.68-3.5-1.44-13.52-2.77-14.44-.12l-4.18,11.89c-1.41,4.1-3,8.55-4.36,12.43-.7,2.05-1.32,4-1.81,5.57s-2.58,2-4.7,1.32c-2.12-1.6-1.75-3.14-1.3-4.6l.18-.62c.83-2.1,3.06-8.72,5.13-15.47a141.94,141.94,0,0,0,3.81-15c.23-1.29.42-4.34-2.07-5.05-4-1.16-14.76,2.3-16.16,4.29-.12.55-.85,3.43-1,4-1.87,8.55-3.19,17.22-5.06,25.68-.21.94-2.48,1.76-3.44,1.57-1.13-.23-2.64-1.34-2.51-2.46C951.14,526.75,951.66,525.16,951.93,523.68Z" transform="translate(-713.32 -31.52)"/>
    <path class="g" d="M1016.37,554l-.31-.2c-6.35-3.9-10.43-11.31-7.19-17.59l.29-.58c7.49-11.44,20.67-5.48,29.49.67l1.48,1a10.93,10.93,0,0,0,1.41-5.84c.23-5.37-1.46-8.78-7.34-12.3l-.76-.45c-2.08-1.24-4.5-.78-6.7-2-.86-.47-3.25-1.77-3.3-2.61.22-.43.34-.64.56-1.06,1.7-3.2,9.19-.1,12.66,1.79l.68.41c13.51,8.21,14.31,21.55,5.21,33.32l-3.18,4.23c-2.6,3.47-6.21,9.39-8,9.93a4.7,4.7,0,0,1-4-.54c-3.39-2.44-.41-3.45-1.12-4.24C1022.75,557.65,1019.16,555.58,1016.37,554Zm2.82-4.4c3.3,2,7.55,4,11.3,3.21.27-.4.41-.6.69-1,1.37-2,3-3.9,4.34-5.88l.6-.85c.5-.73,1.52-2.37,1.57-2.43-.08-.33-.11-.49-.19-.82,0,0-1.35-1.37-2-1.85s-1.37-1.11-2.14-1.62c-5.77-3.8-14.53-5.33-17.67-.31C1013.66,541.3,1015.25,547.13,1019.19,549.56Z" transform="translate(-713.32 -31.52)"/>
    <path class="g" d="M1044.19,563.15c.08.06.18.25.26.31,2.45,3.21-1.56,6.17,2.37,9.74,3.49,3.18,8.35,2.83,10.83.32l.23-.23c2.95-3.29,4.48-13.78,4.32-19.29-.14-4.54-1.43-9.74,1.2-12.88l1-1.17c2.56-2.88,8.48-2.13,12.91,1.95l.61.57c3.55,3.29,9,13.36,6.3,16.3-.81.88-2.17.61-3.61-.87-3-3.06-2-7.53-6-11.31a3.69,3.69,0,0,0-4.51,0c-2,2.26-.94,7.09-1,10.33a74.85,74.85,0,0,1-1.15,10.47c0,.15,0,.23-.08.38-.73,4.17-1.94,8.74-4.61,11.53l-.35.33c-4.91,4.61-14.21,2.33-20.13-3-3.27-3-5.38-10-3.13-12.91C1040.4,562.65,1042.91,562.07,1044.19,563.15Z" transform="translate(-713.32 -31.52)"/>
  </g>
  <g>
    <path class="h" d="M818,390.21c-4.68,10.56-8.89,21-12.83,31.83-1.27,2-2.25,4.58-4.79,5.63a8.27,8.27,0,0,1-5.54.34c-3.81-2.2-7.37-4.66-11-7.14a76.75,76.75,0,0,0-14.76-8.25c-.1.14-.07.21,1.58,3.52s5,9.88,11.42,22.66c1.9,3.78,5,8.73,6.41,13.22.42,1.35.45,3.34-2.7,5-3.39,1.75-4.86.08-5.75-1.78-1.23-2.57-2.52-5.3-4.22-8.49-2.54-4.74-5.89-10.69-10.89-20-3.79-7.08-8.42-14.11-12.08-19.76-.88-1.37,3.5-4.69,6.16-6.05a5.63,5.63,0,0,1,1.88-.68c4-.49,5.34.3,10.35,3.34l.82.59c8.28,5.1,16.67,10,25,15.1.07.15.2.09.34,0,.34-1,.52-1.57.87-2.61,4.56-12.58,10-24.75,15.65-36.87,1.56-3.17,2.83-4.15,6.13-5.11,1.89-.55,5.83.2,6.13,1.28.76,2.79,1.14,4.18,1.91,7,4.75,17.29,9.92,34.47,15,51.67.25.93-2.18,2.67-4.35,3.3-1.29.37-2.53.4-3.21-.48Q826.95,413.72,818,390.21Z" transform="translate(-713.32 -31.52)"/>
    <path class="h" d="M877.72,381.67c9.8-1.43,23,2.9,24.65,14.15,0,.93.07,1.39.11,2.32-2,7.09-11.25,8.3-19.87,9.3-2.54.3-3.81.46-6.35.81-4.94.68-9.62,1.19-14.39,2.08.92,4.89,4.73,14.15,16.41,12.55A26.43,26.43,0,0,0,892,417.05c1.65-1.68,1.39-3.2,4.85-3.45,1.52-.11,5.69,0,5.76,1.17.33,6.17-13.42,11.6-22,13.14-12.56,2.25-26.33-3.63-29-16.56C848.33,395.71,863,383.83,877.72,381.67ZM864,404.32c6.81-1.2,10.22-1.7,17.07-2.51,5.47-.66,11.15-2.34,10.86-5.78-.27-3.28-4.52-10.25-12.51-9.3-11.77,1.39-19.38,11.37-18.37,16.81C861.3,404.88,862,404.09,864,404.32Z" transform="translate(-713.32 -31.52)"/>
    <path class="h" d="M913.47,402c-.25-4.7-1.05-9.69-1.14-14.51,0-1-.19-2.08-.21-3.21a6.85,6.85,0,0,1,1.9-5.49,1.26,1.26,0,0,1,.46-.24l2.47,0c6.18,0,6.32,2.86,6.72,5.33.09.61.41,2.26.87,2.26,4-2.17,10.75-3.6,16-4.38a26.67,26.67,0,0,1,5.85,0l1.69.14c7,.62,9.09,3.18,12,6.62,0,.24,0,1.53-.08,1.77-.06.48-.36,1.66-.37,1.74a8,8,0,0,1-1.08,1.4c-1.46,2.08-1.88,4.34-7,3.8a7.46,7.46,0,0,1-5-2.09c0-.51.06-.76.11-1.27.16-1.76,1.19-3.28,1.35-5l0-.48c0-.32-.09-.66-1-.73-7.52-.66-19.73,2.3-23.19,6.34a22.53,22.53,0,0,0-.53,5.45c-.08,5.06.24,11.88.19,14.61v.64c0,2.49.73,5,.68,7.48,0,1.61-2.45,2.44-4.72,2.44-2,0-4.9-.75-5-2.23C914.32,415.62,913.82,408.73,913.47,402Z" transform="translate(-713.32 -31.52)"/>
    <path class="h" d="M973.44,406.76c.66-4.66.84-9.72,1.67-14.46.18-1,.22-2.08.41-3.19a6.85,6.85,0,0,1,2.93-5,1.18,1.18,0,0,1,.5-.15l2.44.45c6.09,1.16,5.67,4,5.58,6.52,0,.62,0,2.3.43,2.39,4.33-1.37,11.29-1.47,16.65-1.21a26.89,26.89,0,0,1,5.79,1.09l1.64.47c6.83,2,8.38,4.88,10.6,8.83-.07.23-.34,1.5-.41,1.73-.16.46-.68,1.55-.7,1.63a8.54,8.54,0,0,1-1.34,1.16c-1.85,1.76-2.69,3.89-7.64,2.38a7.65,7.65,0,0,1-4.52-3l.36-1.23c.49-1.7,1.81-3,2.3-4.69l.14-.46c.09-.31,0-.66-.84-.91-7.31-2.1-19.92-1.55-24.1,1.75a21.72,21.72,0,0,0-1.57,5.25c-1,4.94-2.06,11.71-2.63,14.37l-.13.63c-.52,2.44-.24,5-.77,7.47-.34,1.57-2.88,1.93-5.11,1.49-2-.39-4.68-1.67-4.46-3.14C971.65,420.33,972.49,413.48,973.44,406.76Z" transform="translate(-713.32 -31.52)"/>
    <path class="h" d="M1019.43,455.79c.67-1.72,2.06-2.05,5.09-.81s3.26,5,4.09,7c.87.91,1.35,2.31,2.72,3.06,5.64,3.06,11.6-2.32,13-5.05l.57-1.15a66.9,66.9,0,0,0,3.34-7.67c-2.27,2.11-13.14-1.9-16.5-3.33-13.82-5.88-11.75-15.13-9.29-21.93,3.24-9,6.27-14.47,11.71-23.33.57-1.07,3.44-.77,5.19-.09,3.49,1.35,5.56,4.16,4.71,5.77-2.41,4.58-6.59,8.16-10,16.73-.36.89-1.09,2.33-1.8,4.12-1.91,4.77-3.61,11.61,3,14.45,3.42,1.47,12.52,3.87,16.17.3q6.54-13.43,13.06-26.86c.85-1.73,3.57-1.6,6.53.23,1.63,1,4.06,3.76,4,5.12-1,1.9-1.53,2.84-2.54,4.74-4.26,7.92-6.25,12.87-10.52,20.78-1.6,3-2.93,5.72-4.23,8.12-6.48,12-10.26,16.07-18,15.95a19.52,19.52,0,0,1-8.67-1.24l-.92-.42c-7.42-3.41-10.12-7.61-11.06-13.33Z" transform="translate(-713.32 -31.52)"/>
    <path class="h" d="M757.61,562.47a110.17,110.17,0,0,1-9.6-10.3c-6.35-7.75-8.73-19.78-1.1-27.13a19.4,19.4,0,0,1,15.73-5.67,5.4,5.4,0,0,1,3.31,1.46c1,1.33.09,2.59-1.65,4-1.29,1-3.14.87-5,.66-2.52-.28-5.32-.42-7.79,1.79-4.93,4.44-3,10.11-1.34,13.47,3.41,7.44,9,13.1,15.13,19.23s15.5,13.83,21,8.81c2.84-2.61,2.71-6,2.58-8.7-.1-2.11-.09-4.12,1.22-5.18.92-.75,4.32.05,4.46.23a1.06,1.06,0,0,1,.22.44c0,.52-.05.78-.09,1.3-.24,5.32-.25,11.2-5,15.58a15.7,15.7,0,0,1-6.1,3.35,14.19,14.19,0,0,1-11.13-1.73A124.29,124.29,0,0,1,757.61,562.47Z" transform="translate(-713.32 -31.52)"/>
    <path class="h" d="M783.32,531.47a297.68,297.68,0,0,1-17.47-25.62c-.26-1.2.75-2.15,2.07-3.09l.51-.36a3,3,0,0,1,1.5-.67c.52-.06,2.76-.16,3.2-.17l1.27,1.85c2.54,3.71,4.51,7.62,8,12.71,1.23,1.78,2.6,3.76,4.28,5.82a4.23,4.23,0,0,1,.42-.58c2.59-4.11,5.82-9.83,10.68-12.7l.59-.34a20.09,20.09,0,0,1,7.51-2.22c12.85-.76,20.6,24.95,25.23,33.38.54,1.08,0,4.15-1.39,4.86-.8.42-2.7,1.27-3.61.75-4.78-9-7.17-13.43-11.92-22.39-.39-.7-3.35-5.07-4.14-6.24-1.56-2.3-4.65-5.94-9-3.37a20,20,0,0,0-2.63,1.84c-3.11,3.39-7.93,10.25-7.07,14.34.27.39,1.51,2.37,1.78,2.77,2.83,4.09,6,8,8.81,12.06.59.86,5.73,7.16,7,8.72l.45.66a3.28,3.28,0,0,1-.93,4.17c-1.65,1.16-3,1.17-4.23,0C796.79,549.31,789.91,540.33,783.32,531.47Z" transform="translate(-713.32 -31.52)"/>
    <path class="h" d="M831.67,516.43c-2-4.27-4.49-8.64-6.45-13-.42-1-.94-1.87-1.4-2.89a8.5,8.5,0,0,1-.88-5.58s.1-.31.21-.35l1.64-.71c4.12-1.75,5.29.81,6.53,3,.3.54,1.14,2,1.44,1.84,1.78-3.13,5.7-6.4,8.88-8.68a14.17,14.17,0,0,1,3.82-1.78l1.15-.37c4.83-1.53,7.08.2,10.17,2.51.06.24.51,1.44.57,1.68.13.46.35,1.65.37,1.73a9.65,9.65,0,0,1-.2,1.64c-.21,2.39.33,4.62-3.13,5.66a4.3,4.3,0,0,1-3.93-.46c-.16-.49-.24-.73-.39-1.22-.54-1.68-.42-3.41-1-5.09l-.14-.46c-.1-.31-.3-.58-.91-.38-5.12,1.63-12,7.88-12.71,12.57a32,32,0,0,0,1.75,5.18c1.89,4.69,4.7,10.92,5.72,13.45.09.24.14.36.24.6.92,2.31,2.37,4.41,3.28,6.72.6,1.5-.58,2.92-2,3.51-1.25.51-3.35.6-4-.76C837.56,528.72,834.57,522.58,831.67,516.43Z" transform="translate(-713.32 -31.52)"/>
    <path class="h" d="M872.39,520.23c-3-12.5-5.48-25.1-8-37.71.07-.67,1.34-1,2.2-1.24l.43-.09c1.08-.24,4.3-.42,4.55.84q4.15,20.46,8.29,40.91c-.08,2.31-.33,2.83-3.1,3.45-1.22.27-3-.23-3.3-1.55C873,523,872.82,522.07,872.39,520.23Zm-6.06-55.31c2.53-.53,3.82.54,4.09,2a5.07,5.07,0,0,1-3.8,5.53c-1.34.28-3.15.17-3.76-1.06C862,469.63,861.61,465.9,866.33,464.92Z" transform="translate(-713.32 -31.52)"/>
    <path class="h" d="M889.52,513.62c.09,0,.28,0,.38,0,3.82.35,3.41,5.31,8.37,4.8a7.63,7.63,0,0,0,6.92-7.83l0-.32c-.48-4.4-6.87-12.55-10.85-16.13-3.29-2.95-7.78-5.5-8.36-9.55l-.22-1.51c-.43-3.83,3.84-7.69,9.45-8.24l.78-.07c4.51-.42,14.85,2.2,15.23,6.2.12,1.2-.89,2-2.81,2.11-3.93.18-6.43-3.55-11.6-3.07a3.56,3.56,0,0,0-2.8,3.34c.37,3,4.4,5.46,6.61,7.69a72.18,72.18,0,0,1,6.6,7.85l.22.31c2.45,3.33,4.87,7.27,5.17,11.12l0,.48c.19,6.74-7.05,12.16-14.5,13-4.11.44-10.48-2.78-11.1-6.38C886.78,516.09,888,513.85,889.52,513.62Z" transform="translate(-713.32 -31.52)"/>
    <path class="h" d="M923.84,481.83a20.42,20.42,0,0,0-.05-2.65,3,3,0,0,0-2.37-.68c-1,0-2-.18-3.25-2.59v-.32c1.86-1.93,3.3-1.76,6.09-2.26,0,0,.33-.15.34-.23.92-6,1.41-10.88,2.69-17,.87-1.34,1.6-1.56,3.75-1.46,3.59.18,4.12,1.2,4,3.6-.29,4.49-1.49,9-1.77,13.56,0,.48,0,1.85,0,1.93l.32.34,2.54.17c1.54.12,3.76.14,6,.35,4.3.43,8.62,1.57,8.19,4.75-.25,1.83-2.5,1.53-4.76,1.27l-.75-.09c-1.72-.19-5.16-.61-8-.83a26.41,26.41,0,0,0-4.22-.13l-.44.22a102.53,102.53,0,0,0-1,10.31c-.29,5.13-.4,10.67-.7,15.88-.1,1.76-.36,3.59-.38,5-.07,3.73.35,6.54,5.5,7,6.58.57,6.87-4.1,11.1-3.51a3.11,3.11,0,0,1,2.51,3.78c-.06.41-.1.62-.16,1-3.35,2.57-9,5.05-13.71,4.64-5.33-.47-9.78-2.78-11.09-8-1.34-9.52-.77-19.54-.53-29.07C923.64,486,923.79,483.84,923.84,481.83Z" transform="translate(-713.32 -31.52)"/>
    <path class="h" d="M955.43,518.77c1.94-10.69,3.2-21.66,5.07-32.45l.4-2.21a4.34,4.34,0,0,0,.19-1.6l.06-.32c.32-1.73,3-1.45,4.84-.86,1,.3,2.17,1.93,2.51,2.41a3.79,3.79,0,0,1-.15,1.7c-.14.62-.26,1.17.06,1.24,5.56-1.25,10-3.06,16.28-1.25,6,1.74,7.85,8.84,8,8.91,5.29-.84,10.1-1.45,15.93.74,8.63,3.24,6.16,13,4.11,17.33l-.17.36c-3.06,6.28-6.57,12.88-9.59,19.36-.44,1-.59,1.94-1.07,3-1.05,2.25-2.36,4.61-5.65,3.16-1-.44-2.44-1.85-2-3a4.35,4.35,0,0,1,1-1.33c.56-1.33.85-2,1.42-3.32,2.36-5.54,5-11,7.35-16.42l2.47-5.75c.85-2.26,2.33-5.93-.16-8.69-3.5-1.44-13.53-2.77-14.44-.11-1.68,4.75-2.52,7.13-4.19,11.88-1.4,4.11-3,8.56-4.36,12.43-.7,2-1.32,4-1.81,5.57s-2.57,2-4.7,1.33c-2.11-1.6-1.74-3.15-1.3-4.61l.19-.62c.83-2.09,3.06-8.71,5.13-15.47a146.51,146.51,0,0,0,3.81-14.95c.22-1.29.41-4.33-2.08-5.05-4-1.15-14.76,2.3-16.15,4.3-.12.54-.86,3.42-1,4-1.86,8.55-3.18,17.22-5.06,25.68-.2.94-2.48,1.77-3.43,1.57-1.14-.23-2.65-1.33-2.52-2.45C954.65,521.84,955.16,520.26,955.43,518.77Z" transform="translate(-713.32 -31.52)"/>
    <path class="h" d="M1019.88,549.05l-.31-.19c-6.35-3.91-10.43-11.32-7.2-17.6l.3-.57c7.49-11.45,20.67-5.49,29.48.66l1.48,1a10.8,10.8,0,0,0,1.41-5.85c.24-5.37-1.46-8.78-7.33-12.3l-.76-.45c-2.09-1.24-4.5-.77-6.7-2-.86-.48-3.26-1.77-3.31-2.62l.57-1.06c1.69-3.19,9.19-.09,12.66,1.79l.67.41c13.51,8.22,14.31,21.56,5.21,33.32l-3.18,4.24c-2.6,3.46-6.2,9.38-8,9.92a4.7,4.7,0,0,1-4-.54c-3.38-2.44-.41-3.45-1.12-4.23C1026.25,552.75,1022.66,550.67,1019.88,549.05Zm2.82-4.39c3.3,2,7.54,4,11.29,3.2.28-.39.42-.59.69-1,1.38-2,3-3.9,4.35-5.88l.59-.85c.51-.72,1.53-2.36,1.57-2.43l-.18-.81s-1.36-1.38-2-1.85-1.36-1.12-2.14-1.63c-5.77-3.8-14.53-5.33-17.66-.31C1017.16,536.39,1018.76,542.22,1022.7,544.66Z" transform="translate(-713.32 -31.52)"/>
    <path class="h" d="M1047.7,558.24c.08.06.18.25.25.31,2.45,3.21-1.55,6.18,2.37,9.75,3.5,3.18,8.36,2.83,10.84.31l.22-.23c2.95-3.29,4.48-13.78,4.32-19.29-.13-4.54-1.42-9.74,1.2-12.88l1-1.17c2.56-2.88,8.49-2.12,12.92,2l.61.56c3.55,3.29,9,13.36,6.29,16.3-.81.88-2.17.62-3.61-.87-3-3.06-2-7.53-6-11.31a3.69,3.69,0,0,0-4.51,0c-2,2.27-.93,7.1-1,10.34a74.9,74.9,0,0,1-1.14,10.47c0,.15-.05.22-.08.37-.73,4.18-1.94,8.75-4.61,11.53l-.35.33c-4.92,4.62-14.22,2.34-20.13-3-3.27-3-5.38-10-3.13-12.9C1043.91,557.75,1046.41,557.17,1047.7,558.24Z" transform="translate(-713.32 -31.52)"/>
  </g>
</svg>
