<svg xmlns="http://www.w3.org/2000/svg" width="372.02" height="327.7" viewBox="0 0 372.02 327.7">
  <defs>
    <style>
      .a {
        fill: #ed7524;
      }

      .b {
        fill: #c45d18;
      }

      .c {
        fill: #ff8f33;
      }

      .d {
        fill: #ed8e2f;
      }

      .e {
        fill: #ce8451;
      }

      .f {
        fill: #f7ac4b;
      }

      .g {
        fill: #f4e5dc;
        stroke: #edd6ca;
        stroke-miterlimit: 10;
        stroke-width: 10px;
      }
    </style>
  </defs>
  <title>pie</title>
  <g>
    <path class="a" d="M508.06,192.74l-25.2,82.06c-.58.83-2.21,3.15-4.41,5.94-25.57,32.59-55.34,38.74-131.64,72.41-7.67,3.38-1.1.54-11.65,5.2-37.19,16.39-94.53,41-180.46,76.12l-1.89-98.77Z" transform="translate(-152.81 -113.1)"/>
    <path class="b" d="M447.12,305.65a35.52,35.52,0,0,0,13.82-7.83c6.53-6,9.06-13.15,10.33-16.71,4.92-13.72,13.73-37.46,24.64-68.37,3.06-.08,12.15-3.37,12.15-3.37-21.57,54.41-30.24,79-32.83,89.06a23.94,23.94,0,0,1-1.83,5c-3.2,6.4-8.94,10.35-28.9,19.21-4.81,2.14-8.62,3.75-10.95,4.72-13.68,5.74-24.08,9.62-26.16,10.4-18.45,6.9-30.18,12.27-56,22.35-10.46,4.1-33.58,12.44-79.39,29L224,406.44l-69.06,24.88-.3-11.65Z" transform="translate(-152.81 -113.1)"/>
    <g>
      <path class="c" d="M142.63,152" transform="translate(-152.81 -113.1)"/>
      <path class="d" d="M227.81,149.16l-75,178.36v7.94L499.52,215.13l-8.19-5.7s-6.77-3.67-7-4.28-9.84-5.09-9.84-5.09l-8.6-5.29-17.82-7.54-19-5-15.24-4.79L400.75,173s-17-4.27-17.82-4.27-15.58-4.48-15.58-4.48L353,161.17l-34.22-7.73-27.46-4.28H227.81Z" transform="translate(-152.81 -113.1)"/>
      <path class="e" d="M418.8,174.31,490.69,204l9.28,5.7,4,2.1-41.72,99.44-14.68,9.46L154.61,427.71l.3,12.28s11.68,1.8,17.67,0-1.8,1.8,20.07-6.29-14.38,5.4,21.87-8.08-11.39,4.19,29.95-12.28,36.54-12.58,59-21.57,23.06-9.29,38.94-15.28,23.66-9,45.83-18.27,27.25-9.58,43.73-16.77,16.47-6.29,25.46-10.49,15-12.88,15.87-15.87,48.23-103,48.23-103l3.29-8.09V192.58L520,184.49s-158.75-97.35-286.95-64.7l-2.7,19.59" transform="translate(-152.81 -113.1)"/>
      <path class="f" d="M490.17,215c5.61.74,10.6-1.71,13.78-3.74a255.78,255.78,0,0,0-41-26.75c-28.66-15-54.56-21.58-88.07-27.9a1118.36,1118.36,0,0,0-143.17-17.26l-6.29,13.52a9,9,0,0,1-.94-.06,254.84,254.84,0,0,1,54.92,1.85c23,3.41,32.59,8.84,58.54,10.22,3.59.19,6,.2,10.58.65a180,180,0,0,1,41,8.92c13.94,4.23,25.64,8,34.45,10.93,31.89,10.56,47.94,16,53,21.38C479.11,209,483.39,214.14,490.17,215Z" transform="translate(-152.81 -113.1)"/>
      <path class="g" d="M364.28,185.71c.18-9.7-7.26-18.82-19.17-25.23h0s-.87-5-5.54-15.34-16.07-17.62-22.29-22.8-21.77-4.15-21.77-4.15,8.81,23.33,0,22.81-20.73,13-20.73,13-18.2,13.94-19.33,24.65c-12.8,7.28-20.73,17.36-20.73,28.51,0,22.18,31.42,40.17,70.17,40.17s70.18-18,70.18-40.17C375.07,199.25,371.11,191.91,364.28,185.71Z" transform="translate(-152.81 -113.1)"/>
    </g>
  </g>
</svg>
