<svg xmlns="http://www.w3.org/2000/svg" viewBox="0 0 514 614.54"><defs><style>.a{fill:#d70600;}.b,.c{fill:#ffd061;}.c,.d{stroke:#f4b537;stroke-miterlimit:10;}.d,.e{fill:#f4b537;}</style></defs><title>present</title><path class="a" d="M860,415H760.31A117.31,117.31,0,0,0,643,532.31V632H860Z" transform="translate(-643 -314.46)"/><path class="a" d="M643,713v98.69A117.31,117.31,0,0,0,760.31,929H860V713Z" transform="translate(-643 -314.46)"/><path class="a" d="M941,929h98.69A117.31,117.31,0,0,0,1157,811.69V713H941Z" transform="translate(-643 -314.46)"/><path class="a" d="M1039.69,415H941V632h216V532.31A117.31,117.31,0,0,0,1039.69,415Z" transform="translate(-643 -314.46)"/><polygon class="b" points="298 100.54 217 100.54 217 317.54 0 317.54 0 398.54 217 398.54 217 614.54 298 614.54 298 398.54 514 398.54 514 317.54 298 317.54 298 100.54"/><path class="c" d="M864,373.07c0-.15.07-.29.09-.44,2.37-14.18-39.64-36-93.82-48.8s-100-11.61-102.36,2.57a7.43,7.43,0,0,0,.09,2.85V356.9c0,.14-.07.29-.09.43-2.37,14.19,39.64,36,93.82,48.8s100,11.62,102.36-2.56a7.43,7.43,0,0,0-.09-2.85Zm-99.23-5.76c-49.59-11.53-88.43-29.21-86.74-39.48s43.26-9.25,92.85,2.29,88.44,29.2,86.75,39.47S814.37,378.84,764.77,367.31Z" transform="translate(-643 -314.46)"/><ellipse class="d" cx="767.83" cy="348.71" rx="18.8" ry="92.21" transform="translate(-390.62 701.69) rotate(-76.75)"/><path class="c" d="M935,400.72a7.43,7.43,0,0,0-.09,2.85c2.36,14.18,48.19,15.32,102.36,2.56s96.19-34.61,93.82-48.8c0-.14-.06-.29-.09-.43V329.25a7.43,7.43,0,0,0,.09-2.85c-2.36-14.18-48.19-15.33-102.36-2.57s-96.19,34.62-93.82,48.8c0,.15.06.29.09.44Zm6.37-31.13c-1.69-10.27,37.15-27.94,86.75-39.47s91.17-12.56,92.85-2.29-37.15,27.95-86.74,39.48S943.06,379.86,941.37,369.59Z" transform="translate(-643 -314.46)"/><ellipse class="e" cx="1031.17" cy="348.71" rx="92.21" ry="18.8" transform="translate(-695.48 -68.78) rotate(-13.25)"/><rect class="c" x="221" y="43.54" width="73" height="57" rx="21.65"/></svg>