<svg xmlns="http://www.w3.org/2000/svg" width="214.72" height="257.01" viewBox="0 0 214.72 257.01">
  <defs>
    <style>
      .a {
        fill: #d70600;
      }

      .b, .c {
        fill: #ffd061;
      }

      .c, .d {
        stroke: #f4b537;
        stroke-miterlimit: 10;
      }

      .d, .e {
        fill: #f4b537;
      }
    </style>
  </defs>
  <title>present</title>
  <path class="a" d="M212.55,125.42H170.91a49,49,0,0,0-49,49v41.64h90.65Z" transform="translate(-121.9 -83.13)"/>
  <path class="a" d="M121.9,249.91v41.23a49,49,0,0,0,49,49h41.64V249.91Z" transform="translate(-121.9 -83.13)"/>
  <path class="a" d="M246.39,340.14h41.22a49,49,0,0,0,49-49h0V249.91H246.39Z" transform="translate(-121.9 -83.13)"/>
  <path class="a" d="M287.61,125.42H246.39v90.65h90.23V174.43a49,49,0,0,0-49-49Z" transform="translate(-121.9 -83.13)"/>
  <polygon class="b" points="124.48 42.3 90.65 42.3 90.65 132.94 0 132.94 0 166.78 90.65 166.78 90.65 257.01 124.48 257.01 124.48 166.78 214.72 166.78 214.72 132.94 124.48 132.94 124.48 42.3"/>
  <path class="c" d="M214.22,107.91a1.62,1.62,0,0,1,0-.19c1-5.92-16.56-15-39.19-20.38s-41.78-4.85-42.76,1.07a3.17,3.17,0,0,0,0,1.19v11.55a1.13,1.13,0,0,1,0,.18c-1,5.93,16.56,15,39.19,20.39s41.77,4.85,42.76-1.07a3.17,3.17,0,0,0,0-1.19Zm-41.45-2.41c-20.72-4.81-36.94-12.2-36.24-16.49s18.08-3.86,38.79,1,37,12.19,36.24,16.48S193.49,110.32,172.77,105.5Z" transform="translate(-121.9 -83.13)"/>
  <ellipse class="d" cx="174.03" cy="97.72" rx="7.85" ry="38.52" transform="translate(-82.88 161.59) rotate(-76.75)"/>
  <path class="c" d="M243.88,119.46a3.17,3.17,0,0,0,0,1.19c1,5.92,20.13,6.4,42.76,1.07s40.18-14.46,39.19-20.39a1.13,1.13,0,0,0,0-.18V89.6a3,3,0,0,0,0-1.19c-1-5.92-20.13-6.4-42.76-1.07s-40.18,14.46-39.19,20.38a1.06,1.06,0,0,0,0,.19Zm2.66-13c-.71-4.29,15.52-11.67,36.24-16.48s38.08-5.25,38.79-1-15.52,11.68-36.24,16.49S247.25,110.74,246.54,106.45Z" transform="translate(-121.9 -83.13)"/>
  <ellipse class="e" cx="284.05" cy="97.75" rx="38.52" ry="7.85" transform="translate(-136.74 -15.42) rotate(-13.25)"/>
  <rect class="c" x="92.32" y="18.48" width="30.49" height="23.81" rx="9.04"/>
</svg>
