<svg xmlns="http://www.w3.org/2000/svg" viewBox="0 0 721.93 868.34"><defs><style>.a{fill:#b27c6f;}.b{fill:#cc8c72;}.c{fill:#c1826c;}.d{fill:#fc1010;}</style></defs><title>rudolf</title><path class="a" d="M1347.46,211.35a14.4,14.4,0,0,0-19.91-3.94L1294,229.87l13.5-34.36A14.35,14.35,0,0,0,1280.8,185l-11.61,29.55-7.83-33.16a14.39,14.39,0,0,0-17.26-10.67h0A14.38,14.38,0,0,0,1233.43,188l17.33,73.45L1239,291.37l-7.82-33.15a14.39,14.39,0,0,0-17.27-10.67h0a14.39,14.39,0,0,0-10.67,17.26l17.34,73.46-9.14,23.24-7.82-33.15a14.4,14.4,0,0,0-17.27-10.68h0A14.41,14.41,0,0,0,1175.68,335L1193,408.4l-26.9,68.45a299.44,299.44,0,0,1,23.44,18.84l28-71.18a14,14,0,0,0,4.33-1.94l66.58-44.6a14.35,14.35,0,0,0-16-23.85l-37,24.8,10-25.47a13.06,13.06,0,0,0,1.3-.77l66.59-44.6a14.35,14.35,0,0,0-16-23.85l-33.53,22.46,11.81-30.06a12.32,12.32,0,0,0,1.3-.77l66.58-44.6A14.39,14.39,0,0,0,1347.46,211.35Z" transform="translate(-627.95 -170.35)"/><path class="a" d="M784.8,408.4,802.14,335a14.41,14.41,0,0,0-10.67-17.27h0a14.4,14.4,0,0,0-17.27,10.68l-7.82,33.15-9.14-23.24,17.34-73.46a14.39,14.39,0,0,0-10.67-17.26h0a14.39,14.39,0,0,0-17.27,10.67l-7.82,33.15-11.76-29.92L744.39,188a14.39,14.39,0,0,0-10.67-17.27h0a14.41,14.41,0,0,0-17.27,10.67l-7.82,33.16L697,185a14.35,14.35,0,0,0-26.72,10.5l13.51,34.36-33.54-22.46a14.35,14.35,0,0,0-16,23.85l66.58,44.6a12.32,12.32,0,0,0,1.3.77L714,306.69l-33.53-22.46a14.35,14.35,0,1,0-16,23.85l66.58,44.6a14.47,14.47,0,0,0,1.31.77l10,25.47-37-24.8a14.35,14.35,0,0,0-16,23.85L756,422.57a14,14,0,0,0,4.33,1.94l29.86,76A297.89,297.89,0,0,1,813.32,481Z" transform="translate(-627.95 -170.35)"/><path class="b" d="M992.5,420.69a296.36,296.36,0,0,0-202.35,79.82c-1.55,1.45-3.1,2.91-4.62,4.4A13.55,13.55,0,0,1,787,523.42L738.51,583.5a13.37,13.37,0,0,1-9.9,5l.09.15c-1.15,0-2.3,0-3.43-.09A295.23,295.23,0,0,0,696,717.19c0,125.11,77.49,232.11,187.09,275.65a153.5,153.5,0,1,1,218.82,0C1211.51,949.3,1289,842.3,1289,717.19a295.14,295.14,0,0,0-33.25-136.52c-.83.09-1.66.17-2.49.21l.08-.15a13.42,13.42,0,0,1-10.22-4.35l-52.39-56.67a13.55,13.55,0,0,1,2.64-20.59c-1.26-1.16-2.53-2.29-3.81-3.43a299.44,299.44,0,0,0-23.44-18.84A295.09,295.09,0,0,0,992.5,420.69Z" transform="translate(-627.95 -170.35)"/><path class="c" d="M992.5,731.69A153.49,153.49,0,1,0,1146,885.19,153.5,153.5,0,0,0,992.5,731.69Zm59.73,63.54-25.37,43.94c-15.46,26.77-54.1,26.77-69.55,0l-25.37-43.94C916.48,768.46,935.8,735,966.71,735h50.74C1048.36,735,1067.68,768.46,1052.23,795.23Z" transform="translate(-627.95 -170.35)"/><path class="d" d="M1017.45,735H966.71c-30.91,0-50.23,33.46-34.77,60.23l25.37,43.94c15.45,26.77,54.09,26.77,69.55,0l25.37-43.94C1067.68,768.46,1048.36,735,1017.45,735Z" transform="translate(-627.95 -170.35)"/><path class="b" d="M728.61,588.53a13.37,13.37,0,0,0,9.9-5L787,523.42a13.55,13.55,0,0,0-1.42-18.51,13.41,13.41,0,0,0-5-2.9L678.22,469.08a13.57,13.57,0,0,0-17.3,16.29c2.56,56.29,30.44,101,64.35,103.22,1.13.08,2.28.11,3.43.09Zm-4.52-21.09a7.67,7.67,0,0,1-6.09,3.3l0,.1c-21.71-.29-39.71-32.8-41.08-73.37-1.57-6.9,4.2-13.58,10.68-11l62.55,25.07c5.53,2.22,7.52,10,3.83,15.06Z" transform="translate(-627.95 -170.35)"/><path class="c" d="M750.2,511.55l-62.55-25.07c-6.48-2.59-12.25,4.09-10.68,11,1.37,40.57,19.37,73.08,41.08,73.37l0-.1a7.67,7.67,0,0,0,6.09-3.3L754,526.61C757.72,521.57,755.73,513.77,750.2,511.55Z" transform="translate(-627.95 -170.35)"/><path class="b" d="M1190.73,519.71l52.39,56.67a13.42,13.42,0,0,0,10.22,4.35l-.08.15c.83,0,1.66-.12,2.49-.21,34.14-3.81,59.41-50.59,58.16-107.44,2-10-8-19.2-18.36-15.09l-99.88,39.77a13.2,13.2,0,0,0-2.3,1.21A13.55,13.55,0,0,0,1190.73,519.71Zm35.87-14.32,60.72-29.25c6.28-3,12.49,3.26,11.39,10.25,1.37,40.57-14.39,74.22-36,76l0-.11a7.67,7.67,0,0,1-6.3-2.88l-32.63-38.72C1219.77,515.89,1221.23,508,1226.6,505.39Z" transform="translate(-627.95 -170.35)"/><path class="c" d="M1256.43,559.38a7.67,7.67,0,0,0,6.3,2.88l0,.11c21.64-1.76,37.4-35.41,36-76,1.1-7-5.11-13.27-11.39-10.25l-60.72,29.25c-5.37,2.58-6.83,10.5-2.8,15.27Z" transform="translate(-627.95 -170.35)"/></svg>