<svg xmlns="http://www.w3.org/2000/svg" viewBox="0 0 396 476" id="el_7RcBM10vm"><style>@-webkit-keyframes el_fbnijuTNWG_Animation{0%{opacity: 0.5;}15%{opacity: 0.75;}30%{opacity: 0.85;}45%{opacity: 1;}60%{opacity: 0.95;}75%{opacity: 0.85;}90%{opacity: 0.75;}100%{opacity: 0.65;}}@keyframes el_fbnijuTNWG_Animation{0%{opacity: 0.5;}15%{opacity: 0.75;}30%{opacity: 0.85;}45%{opacity: 1;}60%{opacity: 0.95;}75%{opacity: 0.85;}90%{opacity: 0.75;}100%{opacity: 0.65;}}@-webkit-keyframes el_0L2ofQnszx_ffoPOHvAx_Animation{0%{-webkit-transform: scale(1.1, 1.1);transform: scale(1.1, 1.1);}100%{-webkit-transform: scale(1.1, 1.1);transform: scale(1.1, 1.1);}}@keyframes el_0L2ofQnszx_ffoPOHvAx_Animation{0%{-webkit-transform: scale(1.1, 1.1);transform: scale(1.1, 1.1);}100%{-webkit-transform: scale(1.1, 1.1);transform: scale(1.1, 1.1);}}@-webkit-keyframes el_0L2ofQnszx_5cKWOvV6D_Animation{0%{-webkit-transform: rotate(0deg);transform: rotate(0deg);}15%{-webkit-transform: rotate(5deg);transform: rotate(5deg);}30%{-webkit-transform: rotate(0deg);transform: rotate(0deg);}45%{-webkit-transform: rotate(5deg);transform: rotate(5deg);}60%{-webkit-transform: rotate(0deg);transform: rotate(0deg);}75%{-webkit-transform: rotate(5deg);transform: rotate(5deg);}90%{-webkit-transform: rotate(0deg);transform: rotate(0deg);}100%{-webkit-transform: rotate(0deg);transform: rotate(0deg);}}@keyframes el_0L2ofQnszx_5cKWOvV6D_Animation{0%{-webkit-transform: rotate(0deg);transform: rotate(0deg);}15%{-webkit-transform: rotate(5deg);transform: rotate(5deg);}30%{-webkit-transform: rotate(0deg);transform: rotate(0deg);}45%{-webkit-transform: rotate(5deg);transform: rotate(5deg);}60%{-webkit-transform: rotate(0deg);transform: rotate(0deg);}75%{-webkit-transform: rotate(5deg);transform: rotate(5deg);}90%{-webkit-transform: rotate(0deg);transform: rotate(0deg);}100%{-webkit-transform: rotate(0deg);transform: rotate(0deg);}}@-webkit-keyframes el_kF5TLbFWHm_ONnPoW8GS_Animation{0%{-webkit-transform: scale(1.1, 1.1);transform: scale(1.1, 1.1);}100%{-webkit-transform: scale(1.1, 1.1);transform: scale(1.1, 1.1);}}@keyframes el_kF5TLbFWHm_ONnPoW8GS_Animation{0%{-webkit-transform: scale(1.1, 1.1);transform: scale(1.1, 1.1);}100%{-webkit-transform: scale(1.1, 1.1);transform: scale(1.1, 1.1);}}@-webkit-keyframes el_kF5TLbFWHm_iSDVoLhUV_Animation{0%{-webkit-transform: rotate(0deg);transform: rotate(0deg);}15%{-webkit-transform: rotate(5deg);transform: rotate(5deg);}30%{-webkit-transform: rotate(0deg);transform: rotate(0deg);}45%{-webkit-transform: rotate(5deg);transform: rotate(5deg);}60%{-webkit-transform: rotate(0deg);transform: rotate(0deg);}75%{-webkit-transform: rotate(5deg);transform: rotate(5deg);}90%{-webkit-transform: rotate(0deg);transform: rotate(0deg);}100%{-webkit-transform: rotate(0deg);transform: rotate(0deg);}}@keyframes el_kF5TLbFWHm_iSDVoLhUV_Animation{0%{-webkit-transform: rotate(0deg);transform: rotate(0deg);}15%{-webkit-transform: rotate(5deg);transform: rotate(5deg);}30%{-webkit-transform: rotate(0deg);transform: rotate(0deg);}45%{-webkit-transform: rotate(5deg);transform: rotate(5deg);}60%{-webkit-transform: rotate(0deg);transform: rotate(0deg);}75%{-webkit-transform: rotate(5deg);transform: rotate(5deg);}90%{-webkit-transform: rotate(0deg);transform: rotate(0deg);}100%{-webkit-transform: rotate(0deg);transform: rotate(0deg);}}@-webkit-keyframes el_v3_DVvkK_u_ouTLmrpG3_Animation{0%{-webkit-transform: scale(1.1, 1.1);transform: scale(1.1, 1.1);}100%{-webkit-transform: scale(1.1, 1.1);transform: scale(1.1, 1.1);}}@keyframes el_v3_DVvkK_u_ouTLmrpG3_Animation{0%{-webkit-transform: scale(1.1, 1.1);transform: scale(1.1, 1.1);}100%{-webkit-transform: scale(1.1, 1.1);transform: scale(1.1, 1.1);}}@-webkit-keyframes el_v3_DVvkK_u_3P1a-CkSL_Animation{0%{-webkit-transform: rotate(0deg);transform: rotate(0deg);}15%{-webkit-transform: rotate(-5deg);transform: rotate(-5deg);}30%{-webkit-transform: rotate(0deg);transform: rotate(0deg);}45%{-webkit-transform: rotate(-5deg);transform: rotate(-5deg);}60%{-webkit-transform: rotate(0deg);transform: rotate(0deg);}75%{-webkit-transform: rotate(-5deg);transform: rotate(-5deg);}90%{-webkit-transform: rotate(0deg);transform: rotate(0deg);}100%{-webkit-transform: rotate(0deg);transform: rotate(0deg);}}@keyframes el_v3_DVvkK_u_3P1a-CkSL_Animation{0%{-webkit-transform: rotate(0deg);transform: rotate(0deg);}15%{-webkit-transform: rotate(-5deg);transform: rotate(-5deg);}30%{-webkit-transform: rotate(0deg);transform: rotate(0deg);}45%{-webkit-transform: rotate(-5deg);transform: rotate(-5deg);}60%{-webkit-transform: rotate(0deg);transform: rotate(0deg);}75%{-webkit-transform: rotate(-5deg);transform: rotate(-5deg);}90%{-webkit-transform: rotate(0deg);transform: rotate(0deg);}100%{-webkit-transform: rotate(0deg);transform: rotate(0deg);}}@-webkit-keyframes el_y4HItbJ1bv_WxfOarZfo_Animation{0%{-webkit-transform: scale(1.1, 1.1);transform: scale(1.1, 1.1);}100%{-webkit-transform: scale(1.1, 1.1);transform: scale(1.1, 1.1);}}@keyframes el_y4HItbJ1bv_WxfOarZfo_Animation{0%{-webkit-transform: scale(1.1, 1.1);transform: scale(1.1, 1.1);}100%{-webkit-transform: scale(1.1, 1.1);transform: scale(1.1, 1.1);}}@-webkit-keyframes el_y4HItbJ1bv_zM7QFv8Dg_Animation{0%{-webkit-transform: rotate(0deg);transform: rotate(0deg);}15%{-webkit-transform: rotate(-5deg);transform: rotate(-5deg);}30%{-webkit-transform: rotate(0deg);transform: rotate(0deg);}45%{-webkit-transform: rotate(-5deg);transform: rotate(-5deg);}60%{-webkit-transform: rotate(0deg);transform: rotate(0deg);}75%{-webkit-transform: rotate(-5deg);transform: rotate(-5deg);}90%{-webkit-transform: rotate(0deg);transform: rotate(0deg);}100%{-webkit-transform: rotate(0deg);transform: rotate(0deg);}}@keyframes el_y4HItbJ1bv_zM7QFv8Dg_Animation{0%{-webkit-transform: rotate(0deg);transform: rotate(0deg);}15%{-webkit-transform: rotate(-5deg);transform: rotate(-5deg);}30%{-webkit-transform: rotate(0deg);transform: rotate(0deg);}45%{-webkit-transform: rotate(-5deg);transform: rotate(-5deg);}60%{-webkit-transform: rotate(0deg);transform: rotate(0deg);}75%{-webkit-transform: rotate(-5deg);transform: rotate(-5deg);}90%{-webkit-transform: rotate(0deg);transform: rotate(0deg);}100%{-webkit-transform: rotate(0deg);transform: rotate(0deg);}}#el_7RcBM10vm *{-webkit-animation-duration: 2s;animation-duration: 2s;-webkit-animation-iteration-count: infinite;animation-iteration-count: infinite;-webkit-animation-timing-function: cubic-bezier(0, 0, 1, 1);animation-timing-function: cubic-bezier(0, 0, 1, 1);}#el_yiGsJ0R9dH{fill: #b27c6f;-webkit-transform: translate(-627.95px, -170.35px);transform: translate(-627.95px, -170.35px);}#el_ehU8JmuDWQ{fill: #b27c6f;-webkit-transform: translate(-627.95px, -170.35px);transform: translate(-627.95px, -170.35px);}#el_KkeCT53E-D{fill: #cc8c72;-webkit-transform: translate(-627.95px, -170.35px);transform: translate(-627.95px, -170.35px);}#el_4m73TmJQQF{fill: #c1826c;-webkit-transform: translate(-627.95px, -170.35px);transform: translate(-627.95px, -170.35px);}#el_fbnijuTNWG{fill: #fc1010;-webkit-transform: translate(-627.95px, -170.35px);transform: translate(-627.95px, -170.35px);-webkit-animation-name: el_fbnijuTNWG_Animation;animation-name: el_fbnijuTNWG_Animation;-webkit-animation-timing-function: cubic-bezier(0.42, 0, 0.58, 1);animation-timing-function: cubic-bezier(0.42, 0, 0.58, 1);}#el_y4HItbJ1bv{fill: #cc8c72;-webkit-transform: translate(-627.95px, -170.35px);transform: translate(-627.95px, -170.35px);}#el_v3_DVvkK_u{fill: #c1826c;-webkit-transform: translate(-627.95px, -170.35px);transform: translate(-627.95px, -170.35px);}#el_kF5TLbFWHm{fill: #cc8c72;-webkit-transform: translate(-627.95px, -170.35px);transform: translate(-627.95px, -170.35px);}#el_0L2ofQnszx{fill: #c1826c;-webkit-transform: translate(-627.95px, -170.35px);transform: translate(-627.95px, -170.35px);}#el_y4HItbJ1bv_zM7QFv8Dg{-webkit-animation-name: el_y4HItbJ1bv_zM7QFv8Dg_Animation;animation-name: el_y4HItbJ1bv_zM7QFv8Dg_Animation;-webkit-transform-origin: 50% 50%;transform-origin: 50% 50%;transform-box: fill-box;-webkit-animation-timing-function: cubic-bezier(0.42, 0, 0.58, 1);animation-timing-function: cubic-bezier(0.42, 0, 0.58, 1);}#el_y4HItbJ1bv_WxfOarZfo{-webkit-animation-name: el_y4HItbJ1bv_WxfOarZfo_Animation;animation-name: el_y4HItbJ1bv_WxfOarZfo_Animation;-webkit-transform-origin: 50% 50%;transform-origin: 50% 50%;transform-box: fill-box;-webkit-animation-timing-function: cubic-bezier(0.42, 0, 0.58, 1);animation-timing-function: cubic-bezier(0.42, 0, 0.58, 1);}#el_v3_DVvkK_u_3P1a-CkSL{-webkit-animation-name: el_v3_DVvkK_u_3P1a-CkSL_Animation;animation-name: el_v3_DVvkK_u_3P1a-CkSL_Animation;-webkit-transform-origin: 50% 50%;transform-origin: 50% 50%;transform-box: fill-box;-webkit-animation-timing-function: cubic-bezier(0.42, 0, 0.58, 1);animation-timing-function: cubic-bezier(0.42, 0, 0.58, 1);}#el_v3_DVvkK_u_ouTLmrpG3{-webkit-animation-name: el_v3_DVvkK_u_ouTLmrpG3_Animation;animation-name: el_v3_DVvkK_u_ouTLmrpG3_Animation;-webkit-transform-origin: 50% 50%;transform-origin: 50% 50%;transform-box: fill-box;-webkit-animation-timing-function: cubic-bezier(0.42, 0, 0.58, 1);animation-timing-function: cubic-bezier(0.42, 0, 0.58, 1);}#el_kF5TLbFWHm_iSDVoLhUV{-webkit-animation-name: el_kF5TLbFWHm_iSDVoLhUV_Animation;animation-name: el_kF5TLbFWHm_iSDVoLhUV_Animation;-webkit-transform-origin: 50% 50%;transform-origin: 50% 50%;transform-box: fill-box;-webkit-animation-timing-function: cubic-bezier(0.42, 0, 0.58, 1);animation-timing-function: cubic-bezier(0.42, 0, 0.58, 1);}#el_kF5TLbFWHm_ONnPoW8GS{-webkit-animation-name: el_kF5TLbFWHm_ONnPoW8GS_Animation;animation-name: el_kF5TLbFWHm_ONnPoW8GS_Animation;-webkit-transform-origin: 50% 50%;transform-origin: 50% 50%;transform-box: fill-box;-webkit-animation-timing-function: cubic-bezier(0.42, 0, 0.58, 1);animation-timing-function: cubic-bezier(0.42, 0, 0.58, 1);}#el_0L2ofQnszx_5cKWOvV6D{-webkit-animation-name: el_0L2ofQnszx_5cKWOvV6D_Animation;animation-name: el_0L2ofQnszx_5cKWOvV6D_Animation;-webkit-transform-origin: 50% 50%;transform-origin: 50% 50%;transform-box: fill-box;-webkit-animation-timing-function: cubic-bezier(0.42, 0, 0.58, 1);animation-timing-function: cubic-bezier(0.42, 0, 0.58, 1);}#el_0L2ofQnszx_ffoPOHvAx{-webkit-animation-name: el_0L2ofQnszx_ffoPOHvAx_Animation;animation-name: el_0L2ofQnszx_ffoPOHvAx_Animation;-webkit-transform-origin: 50% 50%;transform-origin: 50% 50%;transform-box: fill-box;-webkit-animation-timing-function: cubic-bezier(0.42, 0, 0.58, 1);animation-timing-function: cubic-bezier(0.42, 0, 0.58, 1);}</style>
  <defs>
    
  </defs>
  <title>rudolf</title>
  <path d="M1022.68,192.84a7.9,7.9,0,0,0-10.93-2.16L993.35,203l7.41-18.85a7.88,7.88,0,0,0-14.66-5.76l-6.36,16.21-4.3-18.19a7.89,7.89,0,0,0-9.47-5.85h0a7.89,7.89,0,0,0-5.85,9.47l9.51,40.3-6.45,16.41-4.3-18.19a7.89,7.89,0,0,0-9.47-5.85h0a7.89,7.89,0,0,0-5.85,9.47l9.51,40.3-5,12.75L943.76,257a7.89,7.89,0,0,0-9.47-5.85h0a7.89,7.89,0,0,0-5.85,9.47L938,301,923.19,338.5q6.69,4.85,12.86,10.33l15.35-39.05a7.71,7.71,0,0,0,2.37-1.06l36.53-24.47a7.87,7.87,0,1,0-8.77-13.08l-20.31,13.6,5.49-14q.38-.19.72-.42L1004,245.91a7.88,7.88,0,0,0-8.77-13.09L976.8,245.14l6.47-16.48a7.6,7.6,0,0,0,.72-.43l36.53-24.46A7.91,7.91,0,0,0,1022.68,192.84Z" id="el_yiGsJ0R9dH"/>
  <path d="M714,301l9.51-40.3a7.89,7.89,0,0,0-5.86-9.47h0a7.9,7.9,0,0,0-9.47,5.85l-4.29,18.19-5-12.75,9.51-40.3a7.9,7.9,0,0,0-5.86-9.47h0a7.9,7.9,0,0,0-9.47,5.85l-4.29,18.19-6.45-16.41,9.51-40.3a7.9,7.9,0,0,0-5.86-9.47h0a7.9,7.9,0,0,0-9.47,5.85l-4.29,18.19-6.37-16.21a7.88,7.88,0,0,0-14.66,5.76L658.59,203l-18.4-12.32a7.88,7.88,0,0,0-8.76,13.09L668,228.23a7.45,7.45,0,0,0,.71.43l6.48,16.48-18.4-12.32A7.88,7.88,0,0,0,648,245.91l36.53,24.47c.23.15.47.29.71.42l5.49,14-20.31-13.6a7.87,7.87,0,1,0-8.76,13.08l36.53,24.47a7.51,7.51,0,0,0,2.37,1.06l16.38,41.7a164.43,164.43,0,0,1,12.71-10.72Z" id="el_ehU8JmuDWQ"/>
  <path d="M827.94,307.69a161.91,161.91,0,0,0-98.3,33.07,164.43,164.43,0,0,0-12.71,10.72c-.85.79-1.7,1.6-2.53,2.41a7.44,7.44,0,0,1,.78,10.16L688.6,397a7.38,7.38,0,0,1-5.43,2.76l.05.08c-.63,0-1.26,0-1.88-.05a162.79,162.79,0,0,0,86.58,221.77,84.21,84.21,0,1,1,120,0,162.77,162.77,0,0,0,84.4-226.12c-.45.05-.91.1-1.36.12l0-.08a7.4,7.4,0,0,1-5.61-2.39L936.69,362a7.44,7.44,0,0,1,1.45-11.3l-2.09-1.88q-6.16-5.47-12.86-10.33A161.86,161.86,0,0,0,827.94,307.69Z" id="el_KkeCT53E-D"/>
  <path d="M827.94,478.3a84.2,84.2,0,1,0,84.21,84.22A84.22,84.22,0,0,0,827.94,478.3Zm32.77,34.86-13.92,24.11a22,22,0,0,1-38.15,0l-13.92-24.11a22,22,0,0,1,19.07-33h27.84A22,22,0,0,1,860.71,513.16Z" id="el_4m73TmJQQF"/>
  <path d="M841.63,480.12H813.79a22,22,0,0,0-19.07,33l13.92,24.11a22,22,0,0,0,38.15,0l13.92-24.11A22,22,0,0,0,841.63,480.12Z" id="el_fbnijuTNWG"/>
  <g id="el_rKv6rTxa0F">
    <g id="el_y4HItbJ1bv_zM7QFv8Dg" data-animator-group="true" data-animator-type="1"><g id="el_y4HItbJ1bv_WxfOarZfo" data-animator-group="true" data-animator-type="2"><path d="M714.4,353.89a7.38,7.38,0,0,0-2.74-1.59l-56.13-18.07a7.46,7.46,0,0,0-9.5,8.94c1.41,30.88,16.71,55.39,35.31,56.63.62,0,1.25.06,1.88.05l-.05-.08A7.38,7.38,0,0,0,688.6,397l26.58-33A7.44,7.44,0,0,0,714.4,353.89Zm-17.29,11.9L680.69,388.2a4.27,4.27,0,0,1-3.34,1.81l0,.05c-11.91-.16-21.79-18-22.54-40.25-.86-3.78,2.31-7.45,5.86-6L695,357.54C698.05,358.75,699.14,363,697.11,365.79Z" id="el_y4HItbJ1bv"/></g></g>
    <g id="el_v3_DVvkK_u_3P1a-CkSL" data-animator-group="true" data-animator-type="1"><g id="el_v3_DVvkK_u_ouTLmrpG3" data-animator-group="true" data-animator-type="2"><path d="M695,357.54,660.7,343.78c-3.55-1.42-6.72,2.25-5.86,6,.75,22.26,10.63,40.09,22.54,40.25l0-.05a4.27,4.27,0,0,0,3.34-1.81l16.42-22.41C699.14,363,698.05,358.75,695,357.54Z" id="el_v3_DVvkK_u"/></g></g>
  </g>
  <g id="el_vK22CFm9c1">
    <g id="el_kF5TLbFWHm_iSDVoLhUV" data-animator-group="true" data-animator-type="1"><g id="el_kF5TLbFWHm_ONnPoW8GS" data-animator-group="true" data-animator-type="2"><path d="M994.19,328.24l-54.78,21.81a7.25,7.25,0,0,0-1.27.66,7.44,7.44,0,0,0-1.45,11.3l28.74,31.09a7.4,7.4,0,0,0,5.61,2.39l0,.08c.45,0,.91-.07,1.36-.12,18.73-2.09,32.6-27.75,31.91-58.94A7.45,7.45,0,0,0,994.19,328.24Zm-18,57.17,0-.06a4.23,4.23,0,0,1-3.46-1.57l-17.9-21.25c-2.2-2.62-1.41-7,1.54-8.38l33.31-16c3.45-1.66,6.85,1.79,6.25,5.62C996.68,366,988,384.45,976.16,385.41Z" id="el_kF5TLbFWHm"/></g></g>
    <g id="el_0L2ofQnszx_5cKWOvV6D" data-animator-group="true" data-animator-type="1"><g id="el_0L2ofQnszx_ffoPOHvAx" data-animator-group="true" data-animator-type="2"><path d="M989.68,338.11l-33.31,16c-3,1.42-3.74,5.76-1.54,8.38l17.9,21.25a4.23,4.23,0,0,0,3.46,1.57l0,.06c11.88-1,20.52-19.42,19.77-41.68C996.53,339.9,993.13,336.45,989.68,338.11Z" id="el_0L2ofQnszx"/></g></g>
  </g>
<script>(function(){var a=document.querySelector('#el_7RcBM10vm'),b=a.querySelectorAll('style'),c=function(d){b.forEach(function(f){var g=f.textContent;g&amp;&amp;(f.textContent=g.replace(/transform-box:[^;\r\n]*/gi,'transform-box: '+d))})};c('initial'),window.requestAnimationFrame(function(){return c('fill-box')})})();</script></svg>