<svg xmlns="http://www.w3.org/2000/svg" viewBox="0 0 732.5 911.5"><defs><style>.a{fill:#fcd4d4;}.b{fill:#fc1010;}.c{fill:#f7f7f7;}</style></defs><title>santa</title><path class="a" d="M1038,453.71h0c0,.1,0,.19,0,.29C1038,453.9,1038,453.81,1038,453.71Z" transform="translate(-603 -90.5)"/><polygon class="a" points="291 363.5 291 363.5 291 363.5 291 363.5"/><path class="a" d="M1110,453.57h0c0,.14,0,.29,0,.43C1110,453.86,1110,453.71,1110,453.57Z" transform="translate(-603 -90.5)"/><path class="a" d="M966,453.85h0v0Z" transform="translate(-603 -90.5)"/><path class="a" d="M1098.6,753.22a26.57,26.57,0,0,1,2.59,5c1.55-1.62,3.09-3.25,4.6-4.9-1.08.1-2.18.15-3.29.15A35.85,35.85,0,0,1,1098.6,753.22Z" transform="translate(-603 -90.5)"/><path class="a" d="M647.6,703.56c.5.86,1,1.72,1.52,2.57.65-1,1.34-2,2.08-3C650,703.35,648.82,703.47,647.6,703.56Z" transform="translate(-603 -90.5)"/><path class="a" d="M687.48,756.8q1.72,1.8,3.48,3.58a29.67,29.67,0,0,1,5.37-7A35.76,35.76,0,0,1,687.48,756.8Z" transform="translate(-603 -90.5)"/><path class="a" d="M1110,454a36,36,0,0,1-72,0,36,36,0,0,1-72,0,36,36,0,0,1-72,0,36,36,0,0,1-72,.14h0a36,36,0,0,1-72,.14h0a36,36,0,0,1-72,.14h0a36,36,0,0,1-58.29,27.83A287.51,287.51,0,0,0,623,648.58a52,52,0,0,1,20.5-4.08A49.81,49.81,0,0,1,670,651.7a13.9,13.9,0,0,1,12-7.2,13.73,13.73,0,0,1,10.64,5.14,43.17,43.17,0,0,1,20.86-5.14A43.7,43.7,0,0,1,733.1,649,30,30,0,0,1,749,644.5a30.58,30.58,0,0,1,10.65,1.9,44.12,44.12,0,0,1,47.57-.1,42.34,42.34,0,0,1,12.28-1.8,40.54,40.54,0,0,1,21.33,5.87C846,641.11,854.91,635,865,635c8.16,0,15.53,4,20.79,10.42a46.54,46.54,0,0,1,23.21-6,45.83,45.83,0,0,1,26.19,7.93c6-4.8,15.76-7.93,26.81-7.93,10.36,0,19.59,2.75,25.64,7.05,7.06-4.33,17.37-7.05,28.86-7.05a62.56,62.56,0,0,1,22.53,3.94,35.88,35.88,0,0,1,45.25-.59,49,49,0,0,1,18.22-3.35c12.61,0,23.58,4.33,29.3,10.73a42.83,42.83,0,0,1,21.7-5.62,45.34,45.34,0,0,1,14.1,2.21,287.43,287.43,0,0,0,2.31-165.81A36,36,0,0,1,1110,454Z" transform="translate(-603 -90.5)"/><path class="b" d="M641.8,418h.2a36,36,0,0,1,36,36,36,36,0,0,1,72,0,36,36,0,0,1,72,0,36,36,0,0,1,72,0h0a36,36,0,0,1,72-.15h0a36,36,0,0,1,72-.14h0a36,36,0,0,1,72-.14h0A36,36,0,0,1,1146,418h.32c5.59-122,39.69-222.41,85.4-259.31a53.32,53.32,0,0,1-2.22-15C923.43,153.37,676.92,269.7,641.8,418Z" transform="translate(-603 -90.5)"/><path class="b" d="M678,454.42c0-.14,0-.28,0-.42,0,.14,0,.28,0,.42Z" transform="translate(-603 -90.5)"/><path class="b" d="M750,454.28c0-.09,0-.19,0-.28,0,.09,0,.19,0,.28Z" transform="translate(-603 -90.5)"/><path class="b" d="M822,454.14v0Z" transform="translate(-603 -90.5)"/><path class="c" d="M678,454.42c0-.14,0-.28,0-.42a36,36,0,0,0-36-36h-.2A36,36,0,1,0,678,454.42Z" transform="translate(-603 -90.5)"/><path class="c" d="M714,490a36,36,0,0,0,36-35.72c0-.09,0-.19,0-.28a36,36,0,0,0-72,0c0,.14,0,.28,0,.42A36,36,0,0,0,714,490Z" transform="translate(-603 -90.5)"/><path class="c" d="M786,490a36,36,0,0,0,36-35.86V454a36,36,0,0,0-72,0c0,.09,0,.19,0,.28A36,36,0,0,0,786,490Z" transform="translate(-603 -90.5)"/><path class="c" d="M858,490a36,36,0,0,0,36-36h0a36,36,0,0,0-72,0v.14A36,36,0,0,0,858,490Z" transform="translate(-603 -90.5)"/><path class="c" d="M930,490a36,36,0,0,0,36-36v-.15a36,36,0,0,0-72,.15h0A36,36,0,0,0,930,490Z" transform="translate(-603 -90.5)"/><path class="c" d="M1002,490a36,36,0,0,0,36-36c0-.1,0-.19,0-.29a36,36,0,0,0-72,.14V454A36,36,0,0,0,1002,490Z" transform="translate(-603 -90.5)"/><path class="c" d="M1074,490a36,36,0,0,0,36-36c0-.14,0-.29,0-.43a36,36,0,0,0-72,.14c0,.1,0,.19,0,.29A36,36,0,0,0,1074,490Z" transform="translate(-603 -90.5)"/><path class="c" d="M1110,453.57c0,.14,0,.29,0,.43a36,36,0,1,0,36.32-36H1146A36,36,0,0,0,1110,453.57Z" transform="translate(-603 -90.5)"/><path class="c" d="M1282.5,90.5a53,53,0,0,0-53,53v.16a53,53,0,1,0,53-53.16Z" transform="translate(-603 -90.5)"/><path class="c" d="M1131.8,650.12c-5.72-6.4-16.69-10.73-29.3-10.73a49,49,0,0,0-18.22,3.35,35.88,35.88,0,0,0-45.25.59,62.56,62.56,0,0,0-22.53-3.94c-11.49,0-21.8,2.72-28.86,7.05-6-4.3-15.28-7.05-25.64-7.05-11,0-20.82,3.13-26.81,7.93A45.83,45.83,0,0,0,909,639.39a46.54,46.54,0,0,0-23.21,6C880.53,639,873.16,635,865,635c-10.09,0-19,6.11-24.17,15.37a40.54,40.54,0,0,0-21.33-5.87,42.34,42.34,0,0,0-12.28,1.8,44.12,44.12,0,0,0-47.57.1A30.58,30.58,0,0,0,749,644.5,30,30,0,0,0,733.1,649a43.7,43.7,0,0,0-19.6-4.47,43.17,43.17,0,0,0-20.86,5.14A13.73,13.73,0,0,0,682,644.5a13.9,13.9,0,0,0-12,7.2,49.81,49.81,0,0,0-26.45-7.2,52,52,0,0,0-20.5,4.08c-12,5.14-20,14.65-20,25.53,0,16.35,18.13,29.61,40.5,29.61,1.39,0,2.75-.05,4.1-.16s2.42-.21,3.6-.38c-.74.94-1.43,1.93-2.08,3a33.15,33.15,0,0,0-5.12,17.7c0,18.77,15.67,34,35,34a36,36,0,0,0,17.33-4.46,29.67,29.67,0,0,0-5.37,7,23.55,23.55,0,0,0-3,11.33c0,14.36,13.49,26.42,31.72,29.78-3.61,2.47-5.72,5.42-5.72,8.6,0,7.94,13.1,14.5,30.12,15.56,1.36,19.62,15.4,35.07,32.58,35.24-3,3-4.7,6.51-4.7,10.25,0,11.3,15.67,20.47,35,20.47,1,0,2.09,0,3.12-.09C798.19,895.91,790,904.94,790,915.37c0,14.73,16.34,26.68,36.5,26.68a47.11,47.11,0,0,0,17.77-3.38A27.42,27.42,0,0,0,842,949.73c0,12.72,8.28,23,18.5,23a15.08,15.08,0,0,0,4.31-.64c-3.32,6.73-2.15,14.51,4.05,20.73,9.93,9.94,29,12.12,42.62,4.86,8.4-4.48,12.74-11.51,12.51-18.57,14.68-1.43,26-10.61,26-21.74a16.9,16.9,0,0,0-.19-2.47c12-3.56,20.19-10.61,20.19-18.73,0-.33,0-.65,0-1,17-1.57,30-10.35,30-21a.49.49,0,0,0,0-.12c9.82-2.64,17-11.07,17-21.08,0-.58,0-1.16-.08-1.73,16.45-1.74,29.08-12.08,29.08-24.59a19.66,19.66,0,0,0-3.93-11.6,18.79,18.79,0,0,0,5.93-13.6c17-2.15,30-14.11,30-28.53,0-7.5-3.51-14.33-9.27-19.46a28.4,28.4,0,0,0,6.77.81c15.19,0,27.5-11.94,27.5-26.68a25.74,25.74,0,0,0-1.81-9.51,26.57,26.57,0,0,0-2.59-5,35.85,35.85,0,0,0,3.9.21c1.11,0,2.21,0,3.29-.15,13.08-1.19,23.21-9.34,23.21-19.22a14.79,14.79,0,0,0-1.09-5.51c.36,0,.72,0,1.09,0,16.57,0,30-11.29,30-25.22a21.71,21.71,0,0,0-1.77-8.56c17.3-1.36,30.77-12.07,30.77-25.07,0-10.26-8.38-19.08-20.4-23a45.34,45.34,0,0,0-14.1-2.21A42.83,42.83,0,0,0,1131.8,650.12Z" transform="translate(-603 -90.5)"/></svg>