<svg xmlns="http://www.w3.org/2000/svg" width="1185.06" height="554.13" viewBox="0 0 1185.06 554.13">
  <defs>
    <style>
      .a {
        fill: #bc2019;
      }

      .b, .d {
        fill: #6d3e38;
      }

      .b, .c, .d {
        stroke: #5b3a38;
        stroke-miterlimit: 10;
      }

      .b {
        stroke-width: 10px;
      }

      .c {
        fill: #562824;
      }

      .c, .d {
        stroke-width: 7px;
      }
    </style>
  </defs>
  <title>sled</title>
  <g>
    <path class="a" d="M1526.23,421.41l-832.49-41.1s-41.85-2.72-50.83-10.52-18.26,3.21-41.46-28.52-5.31-70.51-5.31-70.51,5.81-23.62,23.28-34.52,59.38-13.06,59.38-13.06l2.39-38.31s-38.27,2.21-47.43,5.56S591,205.83,591,205.83l-26,17s-35.67,33-29.9,72.77,1.2,17.46,8.07,46.85c1.44,6.16,11.26,38.52,74.69,59S1545.58,467,1545.58,467Z" transform="translate(-360.52 -184.87)"/>
    <path class="a" d="M1452,674l-248.08-11.12L1211,625s0-20-6-36-22-27-22-27h-67l21,26,11,24.44,7,21.56-5.07,26.46L686,639.68A121.64,121.64,0,0,1,690,605c5-19,14-21,21-34s21-18.36,21-18.36H666S657,548,648,563s-9,25-9,25l-10,49.12,29.71,1.33L537,633s-46-3-56-14-20,5-46-40-7-101-7-101,6-34,25-50,65-20,65-20l2-55s-42,4-52,9-46.7,23-46.7,23L393,410s-38.63,48.16-31.63,105,1.6,25,9.63,67c1.68,8.81,13,55,83,83s1020,74,1020,74Z" transform="translate(-360.52 -184.87)"/>
    <polygon class="b" points="941.51 331.29 238.75 322.73 407.48 115.13 1052.48 115.13 941.51 331.29"/>
    <line class="c" x1="376.95" y1="152.7" x2="1027.36" y2="164.07"/>
    <line class="c" x1="343.59" y1="193.74" x2="1006.18" y2="205.32"/>
    <line class="c" x1="306.54" y1="234.92" x2="984.9" y2="246.78"/>
    <line class="c" x1="268.76" y1="281.8" x2="955.87" y2="303.33"/>
    <rect class="d" x="593" y="513.16" width="706" height="44.84" transform="translate(-351.01 -201.32) rotate(1)"/>
  </g>
  <polygon class="d" points="937.52 346.69 941.87 372.77 1052.48 184.38 1046.35 136.51 937.52 346.69"/>
</svg>
