<svg xmlns="http://www.w3.org/2000/svg" width="474.38" height="486.7" viewBox="0 0 474.38 486.7">
  <defs>
    <style>
      .a {
        fill: #54d3d0;
      }
    </style>
  </defs>
  <title>snowflake</title>
  <path class="a" d="M864.39,353.35H839.85l19-33a6.67,6.67,0,0,0-11.55-6.67l-22.9,39.67H801.38l19.41-33.63a6.66,6.66,0,1,0-11.54-6.67L786,353.35H766.82l19-33a6.67,6.67,0,1,0-11.55-6.67l-22.9,39.67H730.25l19.42-33.63a6.67,6.67,0,0,0-11.55-6.67l-23.27,40.3h-63.8L697.41,307h47.28a6.67,6.67,0,0,0,0-13.34H710.75l12.06-12.06h47.92a6.67,6.67,0,0,0,0-13.34H736.15l11.43-11.43h47.91a6.67,6.67,0,0,0,0-13.34H760.92L773,231.42h47.28a6.67,6.67,0,0,0,0-13.34H786.32l15.27-15.27a7,7,0,0,0,0-9.88h0a7,7,0,0,0-9.88,0l-15.59,15.59V174a6.67,6.67,0,1,0-13.33,0v47.91l-11.43,11.43V199.35a6.67,6.67,0,1,0-13.34,0v47.27l-11.43,11.43V224.11a6.67,6.67,0,0,0-13.34,0v47.28l-12.7,12.7V249.52a6.67,6.67,0,1,0-13.33,0v47.91l-46.36,46.36V297.12l24.35-42.18a6.67,6.67,0,0,0-11.55-6.67l-12.8,22.17v-9.52l24.35-42.18a6.67,6.67,0,0,0-11.55-6.66l-12.8,22.17V216.47l24.35-42.18a6.67,6.67,0,0,0-11.55-6.67l-12.8,22.17V169.47l24.35-42.17a6.67,6.67,0,0,0-11.55-6.67l-12.8,22.17v-13a7,7,0,1,0-14,0v13l-12.8-22.17a6.67,6.67,0,1,0-11.55,6.67l24.35,42.17v20.32l-12.8-22.17a6.67,6.67,0,1,0-11.55,6.67l24.35,42.18v17.78l-12.8-22.17a6.67,6.67,0,0,0-11.55,6.66l24.35,42.18v9.52l-12.8-22.17a6.67,6.67,0,1,0-11.55,6.67l24.35,42.18v46l-48.27-48.26V247.61a6.67,6.67,0,1,0-13.33,0v33.94l-12.07-12.07V220.94a6.67,6.67,0,1,0-13.33,0v35.21l-10.8-10.8V197.44a6.67,6.67,0,0,0-13.34,0V232l-11.43-11.43V173.31a6.67,6.67,0,1,0-13.33,0v33.94l-14.32-14.32a7,7,0,0,0-9.88,0h0a7,7,0,0,0,0,9.88l15.27,15.27H447.49a6.67,6.67,0,0,0,0,13.34H495.4l10.79,10.79H472.25a6.67,6.67,0,0,0,0,13.34h47.28l10.16,10.16H496.38a6.67,6.67,0,0,0,0,13.34H543l13.33,13.33H521.79a6.67,6.67,0,1,0,0,13.34H569.7l47.63,47.63H550.25l-22.53-39A6.67,6.67,0,1,0,516.17,321l18.68,32.36H513.79l-22.9-39.67a6.67,6.67,0,1,0-11.55,6.67l19.05,33h-21.8l-22.54-39A6.66,6.66,0,1,0,442.51,321l18.68,32.36h-21.7l-22.9-39.67A6.67,6.67,0,1,0,405,320.35l19,33H404a7,7,0,1,0,0,14h20.1l-19,33A6.67,6.67,0,1,0,416.59,407l22.9-39.66h22.43L442.51,401a6.66,6.66,0,1,0,11.54,6.67l23.27-40.3h21.07l-19.05,33A6.67,6.67,0,1,0,490.89,407l22.9-39.66h21.8L516.17,401a6.67,6.67,0,1,0,11.55,6.67L551,367.32h66.34L598.2,386.44a7.78,7.78,0,0,0-.92.56H551a6.67,6.67,0,1,0,0,13.34h33.3l-16.58,16.59a6.75,6.75,0,0,0-.93.56H520.52a6.67,6.67,0,1,0,0,13.33h33.3L536,448.68a6.2,6.2,0,0,0-.93.56H488.76a6.67,6.67,0,0,0,0,13.34h33.31l-19.69,19.68H457a6.67,6.67,0,1,0,0,13.34h32l-22.9,22.89a7,7,0,1,0,9.88,9.88l24.48-24.48v33.94a6.67,6.67,0,1,0,13.34,0V490.55l18.42-18.41v32.67a6.67,6.67,0,0,0,13.33,0v-46L564,440.38v32.67a6.67,6.67,0,1,0,13.33,0v-46L594.5,409.9v32.67a6.67,6.67,0,0,0,13.34,0v-46l19-19.06v56.83l-24.35,42.18a6.67,6.67,0,1,0,11.55,6.67L626.89,461v12.7l-24.35,42.17a6.67,6.67,0,1,0,11.55,6.67l12.8-22.17v14l-24.35,42.18a6.67,6.67,0,0,0,11.55,6.66L626.89,541v10.8L602.54,594a6.67,6.67,0,1,0,11.55,6.67l12.8-22.17v11.72a7,7,0,1,0,14,0V578.5l12.8,22.17A6.67,6.67,0,1,0,665.21,594l-24.35-42.17V541l12.8,22.17a6.67,6.67,0,0,0,11.55-6.66l-24.35-42.18v-14l12.8,22.17a6.67,6.67,0,1,0,11.55-6.67l-24.35-42.17V461l12.8,22.17a6.67,6.67,0,0,0,11.55-6.67l-24.35-42.18V376.88l17.78,17.78v47.91a6.67,6.67,0,0,0,13.34,0V408l17.14,17.14v47.91a6.67,6.67,0,0,0,13.34,0V438.48l18.41,18.42v47.91a6.67,6.67,0,0,0,13.34,0V470.23l19.69,19.69v48.54a6.67,6.67,0,1,0,13.33,0V503.25l25.12,25.12a7,7,0,0,0,9.88-9.88l-22.9-22.89h32a6.67,6.67,0,0,0,0-13.34H766l-20.32-20.32h32.67a6.67,6.67,0,0,0,0-13.34h-46l-18.42-18.41h32.67a6.67,6.67,0,0,0,0-13.34h-46l-17.15-17.14h32.67a6.67,6.67,0,0,0,0-13.34h-46l-19.06-19.05h64.54l22.53,39a6.67,6.67,0,0,0,11.55-6.67L731,367.32h20.43L774.32,407a6.67,6.67,0,1,0,11.55-6.67l-19-33h19.89l22.54,39a6.66,6.66,0,1,0,11.54-6.67l-18.68-32.36h22.34L847.35,407a6.67,6.67,0,0,0,11.55-6.67l-19-33h24.54a7,7,0,1,0,0-14Z" transform="translate(-397 -117.3)"/>
</svg>
