<svg xmlns="http://www.w3.org/2000/svg" viewBox="0 0 879.85 902.7"><defs><style>.a{fill:#54d3d0;}</style></defs><title>snowflake</title><path class="a" d="M1263.89,555.1h-45.53l35.34-61.19a12.37,12.37,0,1,0-21.42-12.37L1189.8,555.1H1147l36-62.37a12.37,12.37,0,1,0-21.42-12.37l-43.16,74.74h-35.54l35.34-61.19a12.37,12.37,0,1,0-21.43-12.37l-42.47,73.56H1015.1l36-62.37a12.37,12.37,0,1,0-21.42-12.37L986.53,555.1H868.2l86-86h87.68a12.37,12.37,0,1,0,0-24.73H978.92L1001.3,422h88.86a12.37,12.37,0,0,0,0-24.74H1026l21.2-21.2h88.86a12.37,12.37,0,0,0,0-24.73H1072L1094.35,329H1182a12.37,12.37,0,1,0,0-24.74h-62.94l28.32-28.32a13,13,0,0,0,0-18.32h0a13,13,0,0,0-18.32,0l-28.92,28.91V222.36a12.37,12.37,0,0,0-24.73,0v88.86l-21.2,21.21V269.48a12.37,12.37,0,0,0-24.74,0v87.68l-21.2,21.2V315.41a12.37,12.37,0,0,0-24.73,0V403.1L960,426.65V362.53a12.37,12.37,0,0,0-24.74,0v88.86l-86,86V450.81l45.16-78.22A12.37,12.37,0,1,0,873,360.22l-23.74,41.12V383.67l45.16-78.22A12.37,12.37,0,0,0,873,293.08l-23.74,41.13v-33L894.45,223A12.37,12.37,0,0,0,873,210.63l-23.74,41.13V214.07l45.16-78.23A12.37,12.37,0,0,0,873,123.47L849.29,164.6V140.5a13,13,0,0,0-25.91,0v24.1l-23.74-41.13a12.37,12.37,0,0,0-21.42,12.37l45.16,78.23v37.69l-23.74-41.13A12.37,12.37,0,0,0,778.22,223l45.16,78.23v33l-23.74-41.13a12.37,12.37,0,0,0-21.42,12.37l45.16,78.22v17.67l-23.74-41.12a12.37,12.37,0,1,0-21.42,12.37l45.16,78.22v85.38l-89.52-89.51V359a12.37,12.37,0,0,0-24.73,0v62.95l-22.38-22.38v-90a12.37,12.37,0,0,0-24.73,0v65.31l-20-20V265.94a12.37,12.37,0,0,0-24.73,0v64.13l-21.2-21.2V221.19a12.37,12.37,0,1,0-24.74,0v62.94l-26.56-26.55a13,13,0,0,0-18.32,0h0a13,13,0,0,0,0,18.32l28.32,28.32H490.64a12.37,12.37,0,0,0,0,24.74H579.5l20,20H536.57a12.37,12.37,0,0,0,0,24.74h87.69l18.84,18.84H581.33a12.37,12.37,0,0,0,0,24.74h86.51L692.57,442H628.45a12.37,12.37,0,0,0,0,24.74h88.86l88.34,88.33H681.24l-41.79-72.38A12.37,12.37,0,1,0,618,495.08l34.65,60H613.61l-42.47-73.56a12.37,12.37,0,1,0-21.42,12.37l35.33,61.19H544.61l-41.79-72.38a12.37,12.37,0,0,0-21.42,12.36l34.65,60H475.8l-42.47-73.56a12.37,12.37,0,1,0-21.42,12.37l35.33,61.19H410A13,13,0,0,0,410,581h37.28l-35.33,61.2a12.37,12.37,0,1,0,21.42,12.36L475.8,581h41.61l-36,62.37a12.37,12.37,0,1,0,21.42,12.37L546,581h39.08l-35.33,61.2a12.37,12.37,0,1,0,21.42,12.36L613.61,581H654l-36,62.37a12.37,12.37,0,1,0,21.42,12.37L682.6,581h123l-35.48,35.47a12.38,12.38,0,0,0-1.71,1H682.63a12.37,12.37,0,0,0,0,24.74H744.4L713.64,673a12.48,12.48,0,0,0-1.72,1H626.09a12.37,12.37,0,1,0,0,24.73h61.77l-33.12,33.12a12.38,12.38,0,0,0-1.71,1H567.2a12.37,12.37,0,1,0,0,24.73H629l-36.51,36.52H508.31a12.37,12.37,0,1,0,0,24.73h59.41L525.26,861.4a13,13,0,0,0,18.33,18.32l45.4-45.4v62.95a12.37,12.37,0,1,0,24.73,0V809.59l34.16-34.16V836a12.37,12.37,0,0,0,24.74,0V750.69l34.15-34.15v60.59a12.37,12.37,0,0,0,24.74,0V691.8l31.8-31.8v60.59a12.37,12.37,0,1,0,24.73,0V635.26l35.34-35.33v105.4l-45.16,78.23a12.37,12.37,0,1,0,21.42,12.36l23.74-41.12v23.56l-45.16,78.22A12.37,12.37,0,1,0,799.64,869l23.74-41.12v25.91L778.22,932a12.37,12.37,0,1,0,21.42,12.36l23.74-41.12v20l-45.16,78.23a12.37,12.37,0,0,0,21.42,12.37l23.74-41.13v21.74a13,13,0,1,0,25.91,0V972.7L873,1013.83a12.37,12.37,0,0,0,21.42-12.37l-45.16-78.23v-20L873,944.33A12.37,12.37,0,1,0,894.45,932l-45.16-78.23V827.83L873,869a12.37,12.37,0,1,0,21.42-12.37l-45.16-78.22V754.8L873,795.92a12.37,12.37,0,1,0,21.42-12.36l-45.16-78.23V598.75l33,33v88.86a12.37,12.37,0,0,0,24.74,0V656.47l31.8,31.8v88.86a12.37,12.37,0,1,0,24.73,0V713l34.16,34.16V836a12.37,12.37,0,0,0,24.74,0V771.89L1059,808.41v90a12.37,12.37,0,0,0,24.73,0V833.14l46.58,46.58a13,13,0,0,0,18.33-18.32l-42.46-42.46h59.41a12.37,12.37,0,1,0,0-24.73h-84.15l-37.69-37.69h60.6a12.37,12.37,0,0,0,0-24.74H1019l-34.16-34.16h60.59a12.37,12.37,0,1,0,0-24.73H960.08l-31.81-31.8h60.6a12.37,12.37,0,0,0,0-24.74H903.54L868.2,581H987.89l41.8,72.39A12.37,12.37,0,0,0,1051.11,641l-34.65-60h37.89l42.47,73.56a12.37,12.37,0,0,0,21.43-12.36L1082.91,581h36.9l41.8,72.39A12.37,12.37,0,0,0,1183,641l-34.66-60h41.43l42.48,73.56a12.37,12.37,0,0,0,21.42-12.36L1218.36,581h45.53a13,13,0,0,0,0-25.92Z" transform="translate(-397 -117.3)"/></svg>