<svg xmlns="http://www.w3.org/2000/svg" width="558.95" height="603.69" viewBox="0 0 558.95 603.69">
  <defs>
    <style>
      .a {
        fill: #964241;
      }

      .b {
        fill: #fffa40;
      }

      .c {
        fill: #ff0c00;
      }

      .d {
        fill: #10ad3c;
      }

      .e {
        fill: #f4d3b5;
      }

      .f {
        fill: #0f0f0f;
      }

      .g {
        fill: #a7e2ea;
      }
    </style>
  </defs>
  <title>train</title>
  <g>
    <polygon class="a" points="69.11 448.8 0 568.51 138.23 568.51 69.11 448.8"/>
    <ellipse class="b" cx="80.98" cy="413.3" rx="61.27" ry="84.21"/>
    <rect class="c" x="314.33" y="120.9" width="244.63" height="75.47"/>
    <rect class="c" x="65.36" y="316.08" width="271.52" height="137.06"/>
    <rect class="d" x="138.23" y="181.62" width="78.07" height="134.46"/>
    <rect class="e" x="65.36" y="453.14" width="471.04" height="78.07"/>
    <path class="f" d="M905.74,673.91A65.06,65.06,0,1,0,970.8,739,65.06,65.06,0,0,0,905.74,673.91Zm4.77,22.63a42.53,42.53,0,0,1,21.85,9.06l-21.85,21.85ZM901,727.45,879.11,705.6A42.53,42.53,0,0,1,901,696.54Zm-6.74,6.75H863.31a42.51,42.51,0,0,1,9.05-21.85Zm0,9.54-21.86,21.85a42.48,42.48,0,0,1-9.05-21.85Zm6.74,6.75V781.4a42.53,42.53,0,0,1-21.85-9.06Zm9.55,0,21.85,21.85a42.53,42.53,0,0,1-21.85,9.06Zm6.74-6.75h30.91a42.48,42.48,0,0,1-9,21.85Zm0-9.54,21.86-21.85a42.51,42.51,0,0,1,9,21.85Z" transform="translate(-775.31 -200.34)"/>
    <path class="f" d="M1067.9,673.91A65.06,65.06,0,1,0,1133,739,65.06,65.06,0,0,0,1067.9,673.91Zm4.77,22.63a42.52,42.52,0,0,1,21.86,9.06l-21.86,21.85Zm-9.54,30.91-21.85-21.85a42.53,42.53,0,0,1,21.85-9.06Zm-6.74,6.75h-30.91a42.43,42.43,0,0,1,9-21.85Zm0,9.54-21.86,21.85a42.39,42.39,0,0,1-9-21.85Zm6.74,6.75V781.4a42.53,42.53,0,0,1-21.85-9.06Zm9.54,0,21.86,21.85a42.52,42.52,0,0,1-21.86,9.06Zm6.75-6.75h30.91a42.41,42.41,0,0,1-9.06,21.85Zm0-9.54,21.85-21.85a42.44,42.44,0,0,1,9.06,21.85Z" transform="translate(-775.31 -200.34)"/>
    <path class="f" d="M1230.75,673.91A65.06,65.06,0,1,0,1295.81,739,65.06,65.06,0,0,0,1230.75,673.91Zm4.77,22.63a42.53,42.53,0,0,1,21.85,9.06l-21.85,21.85ZM1226,727.45l-21.86-21.85a42.52,42.52,0,0,1,21.86-9.06Zm-6.75,6.75h-30.91a42.44,42.44,0,0,1,9.06-21.85Zm0,9.54-21.85,21.85a42.41,42.41,0,0,1-9.06-21.85Zm6.75,6.75V781.4a42.52,42.52,0,0,1-21.86-9.06Zm9.54,0,21.85,21.85a42.53,42.53,0,0,1-21.85,9.06Zm6.75-6.75h30.9a42.39,42.39,0,0,1-9.05,21.85Zm0-9.54,21.85-21.85a42.43,42.43,0,0,1,9.05,21.85Z" transform="translate(-775.31 -200.34)"/>
    <path class="d" d="M1112.19,396.71V653.48h199.52V396.71Zm145.74,113.92h-92.24V418.39h92.24Z" transform="translate(-775.31 -200.34)"/>
    <circle class="g" cx="157.05" cy="53.23" r="16.72"/>
    <circle class="g" cx="196.35" cy="83.16" r="13.2"/>
    <circle class="g" cx="187.96" cy="14.19" r="14.19"/>
    <circle class="g" cx="198.24" cy="158.35" r="16.08"/>
    <circle class="g" cx="158.66" cy="128.71" r="18.43"/>
  </g>
</svg>
