<svg xmlns="http://www.w3.org/2000/svg" viewBox="0 0 493.06 995"><defs><style>.a{fill:#7f604b;}.b{fill:#30b746;}.c{fill:#eded72;}.d{fill:#ef4343;}.e{fill:#145def;}</style></defs><title>tree</title><rect class="a" x="210.19" y="730" width="73" height="265"/><polygon class="b" points="246.19 80 47 425 445.37 425 246.19 80"/><polygon class="b" points="246.59 236 22 625 471.18 625 246.59 236"/><polygon class="b" points="246.53 371 0 798 493.06 798 246.53 371"/><polygon class="c" points="246.82 0 266.71 38.42 311.19 44.59 279 74.49 286.6 116.72 246.82 96.78 207.04 116.72 214.64 74.49 182.45 44.59 226.93 38.42 246.82 0"/><circle class="d" cx="182.69" cy="289.5" r="18.5"/><circle class="d" cx="201.69" cy="402.5" r="18.5"/><circle class="d" cx="283.69" cy="252.5" r="18.5"/><circle class="d" cx="329.69" cy="365.5" r="18.5"/><circle class="d" cx="145.69" cy="559.5" r="18.5"/><circle class="d" cx="320.69" cy="523.5" r="18.5"/><circle class="d" cx="264.69" cy="700.5" r="18.5"/><circle class="d" cx="366.69" cy="711.5" r="18.5"/><circle class="d" cx="120.69" cy="718.5" r="18.5"/><circle class="e" cx="246.69" cy="347.5" r="18.5"/><circle class="e" cx="227.69" cy="500.5" r="18.5"/><circle class="e" cx="329.69" cy="632.5" r="18.5"/><circle class="e" cx="191.69" cy="632.5" r="18.5"/><circle class="e" cx="238.69" cy="193.5" r="18.5"/></svg>